<?xml version="1.0" encoding="UTF-8" standalone="no"?>
<svg width="114px" height="114px" viewBox="0 0 114 114" version="1.1" xmlns="http://www.w3.org/2000/svg" xmlns:xlink="http://www.w3.org/1999/xlink" xmlns:sketch="http://www.bohemiancoding.com/sketch/ns">
    <!-- Generator: Sketch Beta 3.2 (9940) - http://www.bohemiancoding.com/sketch -->
    <title>good-web-bundle-logo</title>
    <desc>Created with Sketch Beta.</desc>
    <defs></defs>
    <g id="Page-1" stroke="none" stroke-width="1" fill="none" fill-rule="evenodd" sketch:type="MSPage">
        <g id="good-web-bundle-logo-+-Rectangle-1-+-Group" sketch:type="MSLayerGroup" transform="translate(8.000000, 2.000000)">
            <g id="Group" transform="translate(0.120000, 0.850000)" sketch:type="MSShapeGroup">
                <path d="M93.41068,28.3575 L52.96918,28.3575 L52.96918,46.8312 L93.41068,46.8312 C95.52367,46.8312 97.25305,45.09498 97.25305,42.97401 L97.25305,32.21412 C97.25305,30.09372 95.52367,28.3575 93.41068,28.3575 L93.41068,28.3575 Z" id="Shape" fill="#EE2249"></path>
                <path d="M4.84237,46.83063 L45.28387,46.83063 L45.28387,28.35693 L4.84237,28.35693 C2.72881,28.35693 1,30.09258 1,32.21412 L1,42.97344 C1,45.09441 2.72881,46.83063 4.84237,46.83063 L4.84237,46.83063 Z" id="Shape" fill="#EE2249"></path>
                <path d="M93.41068,90.43677 L52.96918,90.43677 L52.96918,108.91104 L93.41068,108.91104 C95.52367,108.91104 97.25305,107.17482 97.25305,105.05328 L97.25305,94.29339 C97.25305,92.17299 95.52367,90.43677 93.41068,90.43677 L93.41068,90.43677 Z" id="Shape" fill="#EE2249"></path>
                <path d="M1,94.29396 L1,105.05385 C1,107.17539 2.72881,108.91161 4.84237,108.91161 L45.28387,108.91161 L45.28387,90.43734 L4.84237,90.43734 C2.72881,90.43677 1,92.17299 1,94.29396 L1,94.29396 Z" id="Shape" fill="#EE2249"></path>
                <path d="M33.69349,22.02822 C38.45413,23.85564 43.92499,24.90273 48.70273,24.90273 L48.70273,22.96587 L48.70729,22.96359 L48.71071,22.96587 L48.71071,24.90273 C53.48959,24.90273 58.95931,23.85564 63.71995,22.02822 C67.62331,20.52855 72.70828,17.85639 74.75572,13.64466 C76.2799,10.50909 75.80452,7.10619 73.41736,4.06695 C71.11285,1.13373 67.88266,-0.00513 64.32244,0.84645 C58.26562,2.29995 52.20709,9.28302 48.70615,15.44928 C45.20521,9.28416 39.14611,2.29881 33.08929,0.84702 C29.5285,-0.01026 26.29831,1.13658 23.99665,4.06752 C21.60892,7.10676 21.13411,10.50909 22.65829,13.64466 C24.70516,17.85639 29.78956,20.52855 33.69349,22.02822 L33.69349,22.02822 Z M56.974,13.69482 C60.01381,9.81882 63.27535,7.15635 65.69671,6.57495 C66.01078,6.50028 66.29977,6.46209 66.57166,6.46209 C67.43578,6.46209 68.11408,6.85539 68.78326,7.70697 C70.0384,9.30468 69.8275,10.30446 69.45586,11.0694 C67.87639,14.3184 60.82606,17.51895 53.67427,18.61449 C54.52927,17.08974 55.63393,15.4014 56.974,13.69482 L56.974,13.69482 Z M28.63018,7.70697 C29.29879,6.85539 29.97652,6.46209 30.84235,6.46209 C31.11253,6.46209 31.40209,6.50028 31.71559,6.57495 C34.13752,7.15635 37.39849,9.81654 40.43887,13.69254 C41.77951,15.4014 42.88246,17.08917 43.73803,18.61392 C36.58681,17.51724 29.53705,14.31726 27.95815,11.0694 C27.58537,10.30446 27.3739,9.30468 28.63018,7.70697 L28.63018,7.70697 Z" id="Shape" fill="#EE2249"></path>
                <path d="M83.1427,88.03422 L97.14076,88.03422 L97.14076,83.53236 L88.19518,83.53236 L88.19518,79.92084 L95.84344,79.92084 L95.84344,75.41841 L88.19518,75.41841 L88.19518,71.96193 L97.14076,71.96193 L97.14076,67.46121 L83.1427,67.46121 L83.1427,88.03422 Z" id="Shape" fill="#000000"></path>
                <path d="M68.81803,67.46121 L68.81803,88.03422 L82.52026,88.03422 L82.52026,83.53236 L73.86994,83.53236 L73.86994,67.46121 L68.81803,67.46121 Z" id="Shape" fill="#000000"></path>
                <path d="M65.49037,86.01585 C65.7634,85.74339 66.00052,85.47777 66.2023,85.21899 C66.40408,84.96021 66.57793,84.67578 66.72328,84.3657 C66.86863,84.05505 66.99802,83.77974 67.11031,83.54034 C67.2226,83.2998 67.30981,82.99257 67.3708,82.6158 C67.43122,82.2396 67.48537,81.95061 67.53268,81.74826 C67.57942,81.54648 67.60735,81.22158 67.61647,80.7747 C67.62616,80.32839 67.63072,80.01489 67.63072,79.83648 L67.63072,78.79281 L67.63072,77.748 L67.63072,76.59147 L67.63072,75.39219 C67.63072,75.26964 67.61647,74.93334 67.58797,74.38329 C67.56004,73.8321 67.51558,73.46103 67.45516,73.2678 C67.39417,73.07514 67.31152,72.76278 67.20835,72.32958 C67.10461,71.89695 66.98092,71.55552 66.83443,71.30643 C66.68908,71.05677 66.50098,70.76265 66.2707,70.42407 C66.04099,70.08549 65.7805,69.77085 65.48866,69.47901 C64.14517,68.13438 62.2978,67.46121 59.94769,67.46121 L52.31995,67.46121 L52.31995,88.03536 L59.94883,88.03536 C62.29837,88.03422 64.14574,87.36162 65.49037,86.01585 L65.49037,86.01585 Z M57.37243,83.53236 L57.37243,71.96193 L59.60854,71.96193 C60.71206,71.96193 61.5226,72.34782 62.04244,73.11903 C62.24878,73.43025 62.39071,73.86516 62.46652,74.42433 C62.54176,74.98407 62.57995,76.09158 62.57995,77.74686 C62.57995,79.40271 62.54461,80.51079 62.47279,81.07053 C62.40211,81.63027 62.25847,82.06461 62.04187,82.37526 C61.5226,83.14704 60.71092,83.53179 59.6074,83.53179 L57.37243,83.53179 L57.37243,83.53236 L57.37243,83.53236 Z" id="Shape" fill="#000000"></path>
                <path d="M45.43321,77.80386 L38.8309,67.46121 L34.41226,67.46121 L34.41226,88.03422 L39.46417,88.03422 L39.46417,77.69043 L46.06762,88.03422 L50.48398,88.03422 L50.48398,67.46121 L45.43321,67.46121 L45.43321,77.80386 Z" id="Shape" fill="#000000"></path>
                <path d="M17.32195,67.46121 L17.32195,80.80947 C17.32195,83.00169 18.06751,84.7818 19.55863,86.15094 C21.04918,87.51894 22.89313,88.20351 25.08934,88.20351 C27.28555,88.20351 29.13862,87.51951 30.64912,86.15094 C32.15962,84.7818 32.91487,83.00226 32.91487,80.80947 L32.91487,67.46121 L27.86296,67.46121 L27.86296,80.69718 C27.86296,81.63768 27.6133,82.37412 27.11512,82.90536 C26.61637,83.43717 25.94434,83.70279 25.09732,83.70279 C24.25087,83.70279 23.58568,83.4366 23.10118,82.90536 C22.61668,82.37412 22.37443,81.63768 22.37443,80.69718 L22.37443,67.46121 L17.32195,67.46121 L17.32195,67.46121 L17.32195,67.46121 Z" id="Shape" fill="#000000"></path>
                <path d="M16.20475,73.41087 C16.20475,71.59713 15.63532,70.15161 14.49703,69.07602 C13.35874,67.99929 11.74051,67.46121 9.64291,67.46121 L1.10659,67.46121 L1.10659,88.03479 L10.06699,88.03479 C11.95768,88.03479 13.50067,87.50298 14.69539,86.43879 C15.89011,85.37631 16.48747,83.89317 16.48747,81.99108 C16.48747,81.31278 16.40026,80.70459 16.22641,80.16765 C16.05199,79.63014 15.81202,79.18269 15.5065,78.82416 C15.20098,78.4662 14.9422,78.20172 14.73016,78.03243 C14.51869,77.86257 14.25763,77.68416 13.94698,77.49492 C15.45178,76.47291 16.20475,75.11232 16.20475,73.41087 L16.20475,73.41087 Z M6.15793,71.96193 L9.32257,71.96193 C9.96553,71.96193 10.43179,72.12951 10.72021,72.46467 C11.00863,72.79926 11.15341,73.20111 11.15341,73.66908 C11.15341,74.13819 11.00863,74.53947 10.72021,74.87406 C10.43179,75.20922 9.96553,75.3768 9.32257,75.3768 L6.15793,75.3768 L6.15793,71.96193 L6.15793,71.96193 Z M10.98982,82.99713 C10.69285,83.35395 10.22317,83.53179 9.58192,83.53179 L6.15793,83.53179 L6.15793,79.87752 L9.58192,79.87752 C10.21405,79.87752 10.68088,80.05422 10.98298,80.40591 C11.28451,80.7576 11.43556,81.18852 11.43556,81.69753 C11.43556,82.20768 11.28679,82.64031 10.98982,82.99713 L10.98982,82.99713 Z" id="Shape" fill="#000000"></path>
                <path d="M96.98971,53.86329 C96.98971,52.40295 96.53086,51.23901 95.61487,50.37204 C94.69888,49.50507 93.39529,49.07187 91.70695,49.07187 L84.83332,49.07187 L84.83332,65.6355 L92.04724,65.6355 C93.57028,65.6355 94.81174,65.20743 95.7739,64.35129 C96.73549,63.49515 97.21657,62.301 97.21657,60.77055 C97.21657,60.22449 97.14589,59.73486 97.00681,59.30166 C96.86659,58.8696 96.67336,58.50822 96.42712,58.22037 C96.18088,57.93252 95.97226,57.71991 95.80183,57.58368 C95.6314,57.44631 95.42164,57.30267 95.17198,57.14991 C96.38323,56.32854 96.98971,55.23243 96.98971,53.86329 L96.98971,53.86329 Z M88.90141,52.69707 L91.44874,52.69707 C91.96687,52.69707 92.34136,52.83159 92.57449,53.10063 C92.80648,53.37081 92.92276,53.694 92.92276,54.07134 C92.92276,54.44868 92.80648,54.77187 92.57449,55.04205 C92.34193,55.31166 91.96801,55.44618 91.44874,55.44618 L88.90141,55.44618 L88.90141,52.69707 L88.90141,52.69707 Z M92.79052,61.58109 C92.55169,61.86837 92.17378,62.01201 91.65793,62.01201 L88.90141,62.01201 L88.90141,59.0691 L91.65793,59.0691 C92.16694,59.0691 92.542,59.2116 92.78539,59.49489 C93.02878,59.77818 93.15019,60.12474 93.15019,60.53457 C93.14962,60.94554 93.02992,61.29324 92.79052,61.58109 L92.79052,61.58109 Z" id="Shape" fill="#000000"></path>
                <path d="M73.1335,49.07301 L69.65764,49.07301 L67.48822,57.81966 L64.81777,49.07301 L61.93186,49.07301 L59.25115,57.81966 L57.09313,49.07301 L52.83295,49.07301 L57.38896,65.6355 L60.69439,65.6355 L63.3751,57.4674 L66.04498,65.6355 L69.37321,65.6355 L73.1335,51.86316 L73.1335,65.6355 L84.4024,65.6355 L84.4024,62.01201 L77.20045,62.01201 L77.20045,59.1033 L83.35702,59.1033 L83.35702,55.47924 L77.20045,55.47924 L77.20045,52.69707 L84.4024,52.69707 L84.4024,49.07301 L73.89502,49.07301 L73.1335,49.07301 Z" id="Shape" fill="#000000"></path>
                <path d="M51.27229,53.74758 C51.2227,53.59254 51.15658,53.3406 51.07336,52.99176 C50.99014,52.64349 50.88925,52.36875 50.7724,52.16811 C50.65498,51.96747 50.50336,51.73035 50.31811,51.45789 C50.13343,51.18543 49.9231,50.93178 49.68883,50.69694 C48.60697,49.61394 47.11984,49.07244 45.22801,49.07244 L39.0874,49.07244 L39.0874,65.6355 L45.22801,65.6355 C47.11984,65.6355 48.60754,65.094 49.68883,64.01043 C49.90942,63.79098 50.0998,63.57723 50.26282,63.36861 C50.42527,63.16056 50.56549,62.93085 50.68291,62.68119 C50.79919,62.43153 50.90293,62.2098 50.99356,62.01657 C51.08362,61.82334 51.15373,61.57596 51.20332,61.27215 C51.25234,60.97005 51.29509,60.73692 51.33328,60.5739 C51.3709,60.41088 51.3937,60.14925 51.40111,59.78958 C51.40909,59.42991 51.41308,59.17797 51.41308,59.03376 L51.41308,58.19415 L51.41308,57.35226 L51.41308,56.42088 L51.41308,55.4553 C51.41308,55.35669 51.40111,55.08651 51.37831,54.64362 C51.35722,54.2013 51.32131,53.90205 51.27229,53.74758 L51.27229,53.74758 Z M47.2612,60.02955 C47.2042,60.47985 47.08849,60.82983 46.91407,61.08006 C46.49626,61.70079 45.84361,62.01201 44.95441,62.01201 L43.15492,62.01201 L43.15492,52.69707 L44.95441,52.69707 C45.84361,52.69707 46.49626,53.00772 46.91407,53.62845 C47.08051,53.87868 47.19451,54.22866 47.25607,54.67896 C47.31649,55.12983 47.34727,56.02131 47.34727,57.35397 C47.34727,58.68663 47.3182,59.57868 47.2612,60.02955 L47.2612,60.02955 Z" id="Shape" fill="#000000"></path>
                <path d="M37.90066,62.75016 C38.12467,62.3181 38.29111,61.93962 38.40055,61.61415 C38.50999,61.28925 38.59207,60.81501 38.64508,60.19428 C38.69809,59.57355 38.72431,59.13408 38.72431,58.87644 L38.72431,57.3534 L38.72431,55.83207 C38.72431,55.57386 38.69809,55.13439 38.64508,54.51423 C38.59207,53.89293 38.51056,53.41926 38.40055,53.09379 C38.29111,52.76832 38.12467,52.38756 37.90066,51.95208 C37.67722,51.51717 37.39507,51.12843 37.05478,50.78814 C35.81218,49.55352 34.26919,48.9345 32.42524,48.93051 C30.58129,48.92652 29.0383,49.54554 27.7957,50.78814 C27.45484,51.129 27.17098,51.51717 26.94355,51.95208 C26.71669,52.38756 26.54968,52.76832 26.44423,53.09379 C26.33935,53.41413 26.25955,53.87868 26.20312,54.48459 C26.15011,53.87868 26.06974,53.41413 25.96144,53.09379 C25.852,52.76832 25.68499,52.38756 25.46155,51.95208 C25.23811,51.51717 24.95596,51.12843 24.61567,50.78814 C23.37307,49.55352 21.83008,48.9345 19.98556,48.93051 C18.14161,48.92652 16.59862,49.54554 15.35659,50.78814 C15.01573,51.129 14.73187,51.51717 14.50501,51.95208 C14.27758,52.38756 14.11114,52.76832 14.00512,53.09379 C13.91335,53.37594 13.84096,53.77665 13.78624,54.28167 C13.5343,52.79226 12.89989,51.53541 11.8756,50.51511 C10.81939,49.46232 9.30661,48.93564 7.33726,48.93564 C5.51269,48.92823 3.98167,49.54497 2.74306,50.78757 C2.40277,51.12843 2.12005,51.5166 1.89319,51.95151 C1.6669,52.38699 1.50046,52.76832 1.39444,53.09322 C1.28842,53.41869 1.20748,53.89179 1.15105,54.51366 C1.09462,55.13439 1.06612,55.57386 1.06612,55.8315 L1.06612,57.3534 L1.06612,58.87587 C1.06612,59.13351 1.09405,59.57298 1.15105,60.19371 C1.20805,60.81444 1.28899,61.28811 1.39444,61.61301 C1.50046,61.93905 1.66633,62.31753 1.89319,62.74959 C2.11948,63.18108 2.40334,63.56754 2.74306,63.9084 C3.97369,65.15043 5.50528,65.77116 7.33726,65.77116 C9.35164,65.77116 10.95733,65.15043 12.15433,63.9084 C12.77506,63.27228 13.21111,62.53584 13.46077,61.69851 C13.59529,61.24878 13.69219,60.71982 13.75489,60.11847 C13.7566,60.14355 13.75945,60.16692 13.76116,60.19371 C13.81816,60.81444 13.8991,61.28811 14.00455,61.61415 C14.11057,61.93962 14.27644,62.31753 14.5033,62.74959 C14.72959,63.18108 15.01345,63.56754 15.35317,63.9084 C16.59178,65.15043 18.13477,65.77116 19.98214,65.77116 C21.82951,65.77116 23.37478,65.15043 24.61681,63.9084 C24.9571,63.56697 25.23925,63.18108 25.46269,62.74959 C25.6867,62.31753 25.85314,61.93962 25.96258,61.61415 C26.07031,61.29381 26.15125,60.82926 26.20369,60.22449 C26.26012,60.82983 26.33992,61.29381 26.44366,61.61415 C26.54968,61.93962 26.71555,62.31753 26.94241,62.74959 C27.1687,63.18108 27.45256,63.56754 27.79228,63.9084 C29.03089,65.15043 30.57388,65.77116 32.42125,65.77116 C34.26862,65.77116 35.81332,65.15043 37.05535,63.9084 C37.39564,63.56754 37.67779,63.18222 37.90066,62.75016 L37.90066,62.75016 Z M7.33726,56.0937 L7.33726,59.53536 L9.77971,59.53536 L9.77971,59.76963 C9.77971,60.51462 9.57109,61.09089 9.15499,61.50015 C8.7463,61.93278 8.13982,62.14824 7.33726,62.14824 C6.62533,62.14026 6.09124,61.90941 5.73556,61.45512 C5.51554,61.18038 5.3605,60.78309 5.26987,60.2661 C5.17924,59.74854 5.13364,58.78467 5.13364,57.37734 C5.13364,55.96887 5.17924,55.00443 5.26987,54.48573 C5.36107,53.96703 5.51554,53.56746 5.73556,53.28759 C6.10663,52.80309 6.64015,52.56027 7.33726,52.56027 C8.01898,52.56027 8.54167,52.7079 8.90476,53.00316 C9.26842,53.29899 9.53689,53.77152 9.71131,54.42303 L13.77085,54.42303 C13.768,54.45438 13.76401,54.48174 13.76116,54.51423 C13.70473,55.13496 13.67623,55.57443 13.67623,55.83207 L13.67623,56.0937 L7.33726,56.0937 L7.33726,56.0937 Z M22.08202,60.21138 C21.99025,60.7221 21.83464,61.11825 21.61462,61.39869 C21.24241,61.89858 20.69806,62.14824 19.98043,62.14824 C19.2628,62.14824 18.71845,61.89858 18.34624,61.39869 C18.12565,61.11825 17.97004,60.7221 17.87884,60.21138 C17.78764,59.70066 17.74261,58.74819 17.74261,57.35397 C17.74261,55.96089 17.78821,55.00386 17.87884,54.48573 C17.97004,53.96703 18.12565,53.56746 18.34624,53.28759 C18.71845,52.80252 19.2628,52.56198 19.98043,52.56597 C20.69806,52.56996 21.24241,52.80993 21.61462,53.28759 C21.82723,53.56005 21.98113,53.95734 22.07632,54.48003 C22.17151,55.00272 22.21882,55.96089 22.21882,57.35397 C22.21882,58.74762 22.17322,59.70009 22.08202,60.21138 L22.08202,60.21138 Z M34.52113,60.21138 C34.42936,60.7221 34.27432,61.11825 34.05373,61.39869 C33.68152,61.89858 33.13717,62.14824 32.41954,62.14824 C31.70191,62.14824 31.15699,61.89858 30.78535,61.39869 C30.56476,61.11825 30.40972,60.7221 30.31795,60.21138 C30.22675,59.70066 30.18172,58.74819 30.18172,57.35397 C30.18172,55.96089 30.22732,55.00386 30.31795,54.48573 C30.40972,53.96703 30.56476,53.56746 30.78535,53.28759 C31.15756,52.80252 31.70191,52.56198 32.41954,52.56597 C33.13717,52.56996 33.68152,52.80993 34.05373,53.28759 C34.26634,53.56005 34.42081,53.95734 34.51543,54.48003 C34.61005,55.00272 34.65793,55.96089 34.65793,57.35397 C34.65736,58.74762 34.61233,59.70009 34.52113,60.21138 L34.52113,60.21138 Z" id="Shape" fill="#000000"></path>
            </g>
        </g>
    </g>
</svg>