<?xml version="1.0" encoding="utf-8"?>
<!-- Generator: Adobe Illustrator 15.1.0, SVG Export Plug-In . SVG Version: 6.00 Build 0)  -->
<!DOCTYPE svg PUBLIC "-//W3C//DTD SVG 1.1//EN" "http://www.w3.org/Graphics/SVG/1.1/DTD/svg11.dtd">
<svg version="1.1" id="GOOD_WEB_BUNDLE" xmlns="http://www.w3.org/2000/svg" xmlns:xlink="http://www.w3.org/1999/xlink" x="0px"
	 y="0px" width="135px" height="165px" viewBox="0 0 135 165" enable-background="new 0 0 135 165" xml:space="preserve">
<g>
	<path d="M128.932,38.69h-56.31v25.725h56.31c2.943,0,5.351-2.418,5.351-5.371V44.061C134.283,41.108,131.875,38.69,128.932,38.69z"
		/>
	<path d="M5.611,64.415h56.311V38.69H5.611c-2.943,0-5.35,2.418-5.35,5.371v14.982C0.261,61.997,2.668,64.415,5.611,64.415z"/>
	<path d="M128.932,125.131h-56.31v25.723h56.31c2.943,0,5.351-2.418,5.351-5.371v-14.98
		C134.283,127.549,131.875,125.131,128.932,125.131z"/>
	<path d="M0.261,130.502v14.98c0,2.953,2.407,5.371,5.35,5.371h56.311v-25.723H5.611C2.668,125.131,0.261,127.549,0.261,130.502z"/>
	<path d="M45.783,29.879c6.628,2.543,14.246,4.002,20.898,4.002v-2.697l0.005-0.002l0.005,0.002v2.697
		c6.653,0,14.271-1.459,20.898-4.002c5.436-2.089,12.516-5.809,15.366-11.674c2.123-4.366,1.461-9.104-1.862-13.336
		C97.885,0.786,93.387-0.8,88.43,0.386C79.996,2.41,71.561,12.133,66.686,20.718C61.812,12.133,53.375,2.407,44.941,0.386
		C39.984-0.808,35.486,0.79,32.281,4.87c-3.325,4.232-3.986,8.97-1.863,13.336C33.268,24.07,40.347,27.79,45.783,29.879z
		 M78.199,18.275c4.232-5.397,8.773-9.104,12.146-9.913c0.437-0.104,0.839-0.157,1.218-0.157c1.204,0,2.148,0.547,3.08,1.733
		c1.748,2.225,1.454,3.616,0.937,4.682c-2.2,4.523-12.017,8.98-21.975,10.505C74.794,23.002,76.332,20.652,78.199,18.275z
		 M38.732,9.938c0.931-1.186,1.875-1.733,3.08-1.733c0.377,0,0.779,0.053,1.215,0.157c3.373,0.81,7.913,4.513,12.146,9.911
		c1.867,2.379,3.403,4.729,4.594,6.852c-9.958-1.527-19.773-5.982-21.972-10.505C37.278,13.554,36.983,12.163,38.732,9.938z"/>
	<path d="M21.432,100.629c0-2.525-0.792-4.537-2.377-6.035c-1.585-1.5-3.838-2.25-6.759-2.25H0.409v28.646h12.476
		c2.633,0,4.781-0.74,6.445-2.221c1.663-1.48,2.495-3.545,2.495-6.193c0-0.945-0.121-1.791-0.363-2.539
		c-0.243-0.748-0.577-1.371-1.002-1.871c-0.425-0.498-0.786-0.865-1.081-1.102c-0.294-0.238-0.658-0.486-1.09-0.75
		C20.384,104.895,21.432,102.999,21.432,100.629z M7.442,98.614h4.407c0.896,0,1.544,0.232,1.946,0.699
		c0.401,0.465,0.603,1.023,0.603,1.678c0,0.652-0.201,1.211-0.603,1.678c-0.402,0.467-1.051,0.699-1.946,0.699H7.442V98.614z
		 M14.17,113.979c-0.414,0.496-1.067,0.744-1.96,0.744H7.442v-5.088h4.768c0.88,0,1.53,0.246,1.95,0.734
		c0.42,0.49,0.63,1.09,0.63,1.801C14.791,112.879,14.584,113.481,14.17,113.979z"/>
	<path d="M22.987,92.344v18.588c0,3.051,1.038,5.531,3.114,7.438c2.076,1.904,4.643,2.857,7.701,2.857
		c3.058,0,5.638-0.953,7.742-2.857c2.103-1.906,3.154-4.387,3.154-7.438V92.344h-7.034v18.43c0,1.311-0.347,2.336-1.042,3.076
		c-0.694,0.738-1.631,1.109-2.81,1.109s-2.105-0.371-2.78-1.109c-0.675-0.74-1.012-1.766-1.012-3.076v-18.43H22.987z"/>
	<polygon points="62.128,106.747 52.936,92.344 46.784,92.344 46.784,120.991 53.817,120.991 53.817,106.59 63.012,120.991 
		69.162,120.991 69.162,92.344 62.128,92.344 	"/>
	<path d="M90.056,118.182c0.38-0.379,0.71-0.75,0.991-1.109c0.282-0.361,0.523-0.758,0.727-1.189
		c0.202-0.434,0.382-0.816,0.538-1.15c0.157-0.334,0.278-0.762,0.362-1.287c0.086-0.523,0.16-0.926,0.227-1.207
		c0.064-0.281,0.104-0.734,0.117-1.355c0.013-0.623,0.02-1.059,0.02-1.307v-1.455v-1.453v-1.611v-1.67c0-0.17-0.02-0.639-0.06-1.404
		c-0.039-0.768-0.101-1.283-0.186-1.553c-0.085-0.268-0.2-0.703-0.344-1.307s-0.317-1.078-0.52-1.424
		c-0.203-0.348-0.466-0.758-0.786-1.229c-0.32-0.473-0.683-0.91-1.089-1.316c-1.871-1.873-4.442-2.811-7.715-2.811h-10.62v28.646
		H82.34C85.613,120.991,88.185,120.055,90.056,118.182z M78.753,114.723V98.614h3.113c1.536,0,2.666,0.535,3.388,1.609
		c0.289,0.434,0.486,1.039,0.592,1.818c0.104,0.779,0.157,2.322,0.157,4.627s-0.049,3.848-0.147,4.627s-0.3,1.385-0.602,1.816
		c-0.722,1.074-1.852,1.611-3.388,1.611H78.753z"/>
	<polygon points="94.691,92.344 94.691,120.991 113.769,120.991 113.769,114.723 101.725,114.723 101.725,92.344 	"/>
	<polygon points="114.636,120.991 134.126,120.991 134.126,114.723 121.67,114.723 121.67,109.694 132.319,109.694 132.319,103.426 
		121.67,103.426 121.67,98.614 134.126,98.614 134.126,92.344 114.636,92.344 	"/>
	<path d="M51.642,85.786c0.311-0.602,0.543-1.127,0.696-1.58c0.153-0.455,0.266-1.113,0.34-1.979c0.074-0.865,0.11-1.477,0.11-1.834
		v-2.121v-2.119c0-0.357-0.037-0.969-0.11-1.834c-0.074-0.865-0.188-1.525-0.34-1.979s-0.385-0.982-0.696-1.59
		c-0.311-0.605-0.704-1.146-1.178-1.621c-1.73-1.719-3.878-2.58-6.446-2.586c-2.567-0.006-4.716,0.857-6.446,2.586
		c-0.475,0.475-0.87,1.016-1.186,1.621c-0.316,0.607-0.549,1.137-0.696,1.59c-0.146,0.447-0.257,1.094-0.335,1.938
		c-0.074-0.844-0.186-1.49-0.336-1.938c-0.152-0.453-0.385-0.982-0.696-1.59c-0.311-0.605-0.704-1.146-1.178-1.621
		c-1.73-1.719-3.878-2.58-6.446-2.586c-2.567-0.006-4.716,0.857-6.445,2.586c-0.475,0.475-0.87,1.016-1.187,1.621
		c-0.316,0.607-0.549,1.137-0.696,1.59c-0.128,0.395-0.229,0.951-0.305,1.654c-0.352-2.074-1.235-3.824-2.66-5.244
		c-1.471-1.467-3.578-2.199-6.319-2.199c-2.54-0.01-4.673,0.85-6.397,2.578c-0.473,0.475-0.867,1.016-1.183,1.621
		c-0.316,0.607-0.547,1.137-0.694,1.59s-0.26,1.113-0.339,1.979c-0.079,0.865-0.118,1.477-0.118,1.834v2.119v2.121
		c0,0.357,0.039,0.969,0.118,1.834c0.079,0.865,0.191,1.523,0.339,1.979c0.147,0.453,0.378,0.979,0.694,1.58
		c0.315,0.602,0.71,1.141,1.183,1.615c1.715,1.729,3.847,2.594,6.397,2.594c2.805,0,5.041-0.865,6.707-2.594
		c0.864-0.887,1.471-1.912,1.819-3.078c0.187-0.627,0.322-1.363,0.409-2.201c0.003,0.037,0.006,0.068,0.009,0.105
		c0.079,0.865,0.192,1.523,0.339,1.979c0.147,0.453,0.378,0.979,0.694,1.58c0.315,0.602,0.709,1.141,1.183,1.615
		c1.725,1.729,3.873,2.594,6.446,2.594c2.572,0,4.723-0.865,6.453-2.594c0.475-0.475,0.867-1.014,1.178-1.615
		s0.543-1.127,0.696-1.58c0.15-0.445,0.262-1.094,0.336-1.936c0.079,0.842,0.19,1.49,0.334,1.936
		c0.147,0.453,0.378,0.979,0.694,1.58c0.315,0.602,0.71,1.141,1.183,1.615c1.725,1.729,3.873,2.594,6.445,2.594
		s4.723-0.865,6.453-2.594C50.938,86.926,51.331,86.387,51.642,85.786z M9.084,76.516v4.793h3.401v0.328
		c0,1.035-0.29,1.84-0.87,2.408c-0.569,0.602-1.413,0.902-2.531,0.902c-0.992-0.01-1.735-0.332-2.23-0.965
		c-0.306-0.383-0.522-0.936-0.648-1.656s-0.19-2.061-0.19-4.021c0-1.963,0.063-3.305,0.19-4.025C6.332,73.557,6.548,73,6.854,72.61
		c0.517-0.674,1.26-1.012,2.23-1.012c0.949,0,1.677,0.205,2.183,0.617c0.506,0.41,0.88,1.07,1.123,1.977h5.652
		c-0.004,0.043-0.01,0.082-0.014,0.127c-0.079,0.865-0.119,1.477-0.119,1.834v0.363H9.084z M29.615,82.25
		c-0.127,0.713-0.344,1.264-0.65,1.654c-0.518,0.695-1.277,1.043-2.275,1.043c-0.999,0-1.758-0.348-2.276-1.043
		c-0.307-0.391-0.523-0.941-0.65-1.654c-0.127-0.711-0.19-2.037-0.19-3.979c0-1.939,0.063-3.271,0.19-3.992
		c0.127-0.723,0.344-1.279,0.65-1.67c0.518-0.674,1.277-1.01,2.276-1.004c0.999,0.006,1.757,0.34,2.275,1.004
		c0.296,0.381,0.51,0.934,0.643,1.66c0.132,0.729,0.198,2.062,0.198,4.002C29.805,80.213,29.742,81.54,29.615,82.25z M46.935,82.25
		c-0.127,0.713-0.344,1.264-0.65,1.654c-0.518,0.695-1.276,1.043-2.275,1.043s-1.757-0.348-2.276-1.043
		c-0.307-0.391-0.523-0.941-0.65-1.654c-0.127-0.711-0.19-2.037-0.19-3.979c0-1.939,0.063-3.271,0.19-3.992
		c0.126-0.723,0.343-1.279,0.65-1.67c0.519-0.674,1.277-1.01,2.276-1.004s1.757,0.34,2.275,1.004c0.296,0.381,0.51,0.934,0.643,1.66
		c0.132,0.729,0.198,2.062,0.198,4.002C47.125,80.213,47.062,81.54,46.935,82.25z"/>
	<path d="M70.259,73.25c-0.069-0.215-0.161-0.566-0.276-1.053c-0.116-0.484-0.256-0.867-0.418-1.146
		c-0.164-0.279-0.375-0.609-0.633-0.988c-0.258-0.379-0.55-0.732-0.876-1.059c-1.507-1.51-3.578-2.264-6.211-2.264h-8.55v23.062
		h8.551c2.634,0,4.705-0.752,6.212-2.262c0.306-0.305,0.571-0.604,0.798-0.893c0.227-0.291,0.421-0.609,0.584-0.957
		c0.164-0.348,0.308-0.656,0.434-0.926c0.126-0.27,0.223-0.613,0.292-1.035c0.068-0.422,0.129-0.746,0.182-0.975
		c0.052-0.227,0.084-0.59,0.094-1.09c0.011-0.502,0.016-0.852,0.016-1.053v-1.17v-1.172v-1.297v-1.344
		c0-0.137-0.016-0.514-0.047-1.131C70.377,73.883,70.328,73.467,70.259,73.25z M64.675,81.999c-0.08,0.627-0.241,1.115-0.484,1.463
		c-0.582,0.865-1.491,1.297-2.728,1.297h-2.506V71.788h2.506c1.237,0,2.146,0.432,2.728,1.297c0.232,0.348,0.391,0.836,0.476,1.463
		c0.084,0.627,0.126,1.869,0.126,3.725C64.793,80.129,64.754,81.37,64.675,81.999z"/>
	<polygon points="100.699,66.741 95.859,66.741 92.838,78.92 89.121,66.741 85.103,66.741 81.37,78.92 78.364,66.741 72.432,66.741 
		78.776,89.803 83.378,89.803 87.112,78.432 90.829,89.803 95.463,89.803 100.699,70.627 100.699,89.803 116.39,89.803 
		116.39,84.758 106.362,84.758 106.362,80.709 114.935,80.709 114.935,75.663 106.362,75.663 106.362,71.788 116.39,71.788 
		116.39,66.741 101.759,66.741 	"/>
	<path d="M133.917,73.413c0-2.035-0.639-3.654-1.914-4.861c-1.276-1.207-3.09-1.811-5.442-1.811h-9.569v23.062h10.044
		c2.12,0,3.85-0.596,5.188-1.787s2.009-2.854,2.009-4.986c0-0.762-0.098-1.443-0.292-2.045c-0.195-0.602-0.465-1.104-0.807-1.506
		c-0.343-0.402-0.634-0.697-0.87-0.887c-0.238-0.191-0.53-0.393-0.878-0.604C133.073,76.844,133.917,75.319,133.917,73.413z
		 M122.654,71.788h3.547c0.722,0,1.244,0.188,1.567,0.562c0.322,0.375,0.484,0.826,0.484,1.352s-0.162,0.977-0.484,1.352
		c-0.323,0.375-0.846,0.562-1.567,0.562h-3.547V71.788z M128.07,84.159c-0.334,0.4-0.859,0.6-1.578,0.6h-3.838v-4.098h3.838
		c0.709,0,1.231,0.199,1.57,0.594c0.338,0.395,0.508,0.877,0.508,1.447S128.403,83.758,128.07,84.159z"/>
</g>
</svg>
