<?xml version="1.0" encoding="UTF-8" standalone="no"?>
<svg width="135px" height="152px" viewBox="0 0 135 152" version="1.1" xmlns="http://www.w3.org/2000/svg" xmlns:xlink="http://www.w3.org/1999/xlink" xmlns:sketch="http://www.bohemiancoding.com/sketch/ns">
    <!-- Generator: Sketch 3.1.1 (8761) - http://www.bohemiancoding.com/sketch -->
    <title>good-web-bundle-logo-blk</title>
    <desc>Created with Sketch.</desc>
    <defs></defs>
    <g id="Page-1" stroke="none" stroke-width="1" fill="none" fill-rule="evenodd" sketch:type="MSPage">
        <g id="good-web-bundle-logo-blk" sketch:type="MSLayerGroup" fill="#FFFFFF">
            <g id="Page-1" sketch:type="MSShapeGroup">
                <g id="Group">
                    <path d="M129.508,38.848 L72.831,38.848 L72.831,64.675 L129.508,64.675 C132.469,64.675 134.893,62.248 134.893,59.282 L134.893,44.24 C134.893,41.275 132.469,38.848 129.508,38.848 L129.508,38.848 L129.508,38.848 Z" id="Shape"></path>
                    <path d="M5.385,64.674 L62.061,64.674 L62.061,38.847 L5.385,38.847 C2.423,38.847 0,41.274 0,44.24 L0,59.282 C0,62.247 2.423,64.674 5.385,64.674 L5.385,64.674 L5.385,64.674 Z" id="Shape_1_"></path>
                    <path d="M129.508,125.637 L72.831,125.637 L72.831,151.465 L129.508,151.465 C132.469,151.465 134.893,149.037 134.893,146.07 L134.893,131.027 C134.893,128.064 132.469,125.637 129.508,125.637 L129.508,125.637 L129.508,125.637 Z" id="Shape_2_"></path>
                    <path d="M0,131.029 L0,146.072 C0,149.037 2.423,151.465 5.385,151.465 L62.061,151.465 L62.061,125.637 L5.385,125.637 C2.423,125.637 0,128.064 0,131.029 L0,131.029 L0,131.029 Z" id="Shape_3_"></path>
                    <path d="M45.818,30 C52.489,32.555 60.156,34.019 66.852,34.019 L66.852,31.311 L66.859,31.308 L66.864,31.311 L66.864,34.019 C73.561,34.019 81.227,32.555 87.899,30 C93.369,27.903 100.495,24.168 103.364,18.28 C105.501,13.896 104.835,9.139 101.489,4.89 C98.259,0.789 93.732,-0.803 88.743,0.388 C80.254,2.419 71.764,12.182 66.857,20.802 C61.951,12.183 53.459,2.417 44.971,0.388 C39.981,-0.81 35.454,0.793 32.228,4.89 C28.882,9.139 28.217,13.895 30.353,18.279 C33.221,24.167 40.347,27.903 45.818,30 L45.818,30 L45.818,30 Z M78.443,18.349 C82.704,12.931 87.275,9.208 90.668,8.395 C91.108,8.291 91.514,8.237 91.895,8.237 C93.106,8.237 94.056,8.787 94.995,9.977 C96.753,12.211 96.458,13.608 95.936,14.678 C93.723,19.22 83.842,23.695 73.82,25.226 C75.018,23.096 76.566,20.735 78.443,18.349 L78.443,18.349 L78.443,18.349 Z M38.722,9.978 C39.659,8.788 40.609,8.238 41.823,8.238 C42.201,8.238 42.607,8.291 43.047,8.396 C46.441,9.209 51.011,12.928 55.273,18.347 C57.152,20.736 58.697,23.096 59.896,25.227 C49.873,23.693 39.993,19.22 37.78,14.679 C37.258,13.609 36.961,12.212 38.722,9.978 L38.722,9.978 L38.722,9.978 Z" id="Shape_4_"></path>
                    <path d="M115.117,122.277 L134.734,122.277 L134.734,115.984 L122.198,115.984 L122.198,110.935 L132.916,110.935 L132.916,104.64 L122.198,104.64 L122.198,99.807 L134.734,99.807 L134.734,93.515 L115.117,93.515 L115.117,122.277 L115.117,122.277 Z" id="Shape_5_"></path>
                    <path d="M95.043,93.516 L95.043,122.277 L114.245,122.277 L114.245,115.984 L102.122,115.984 L102.122,93.516 L95.043,93.516 L95.043,93.516 Z" id="Shape_6_"></path>
                    <path d="M90.379,119.455 C90.762,119.074 91.094,118.703 91.377,118.342 C91.659,117.981 91.902,117.582 92.107,117.149 C92.31,116.715 92.492,116.331 92.648,115.995 C92.806,115.659 92.928,115.229 93.013,114.704 C93.098,114.177 93.174,113.774 93.241,113.491 C93.306,113.208 93.345,112.755 93.358,112.13 C93.372,111.505 93.379,111.068 93.379,110.818 L93.379,109.359 L93.379,107.898 L93.379,106.283 L93.379,104.605 C93.379,104.433 93.358,103.964 93.318,103.195 C93.279,102.424 93.216,101.906 93.132,101.634 C93.046,101.366 92.931,100.929 92.786,100.324 C92.64,99.719 92.467,99.242 92.262,98.893 C92.058,98.544 91.794,98.132 91.472,97.66 C91.15,97.186 90.784,96.746 90.376,96.338 C88.493,94.459 85.903,93.518 82.61,93.518 L71.922,93.518 L71.922,122.281 L82.613,122.281 C85.906,122.277 88.494,121.338 90.379,119.455 L90.379,119.455 L90.379,119.455 Z M79.002,115.984 L79.002,99.808 L82.136,99.808 C83.683,99.808 84.819,100.348 85.547,101.426 C85.836,101.862 86.035,102.469 86.141,103.25 C86.246,104.033 86.301,105.582 86.301,107.896 C86.301,110.21 86.25,111.759 86.151,112.542 C86.051,113.323 85.85,113.931 85.547,114.364 C84.819,115.444 83.682,115.981 82.136,115.981 L79.003,115.981 L79.003,115.984 L79.002,115.984 L79.002,115.984 Z" id="Shape_7_"></path>
                    <path d="M62.27,107.975 L53.018,93.517 L46.826,93.517 L46.826,122.278 L53.905,122.278 L53.905,107.817 L63.16,122.278 L69.349,122.278 L69.349,93.516 L62.27,93.516 L62.27,107.975 L62.27,107.975 Z" id="Shape_8_"></path>
                    <path d="M22.874,93.516 L22.874,112.178 C22.874,115.242 23.919,117.731 26.009,119.645 C28.098,121.557 30.682,122.514 33.76,122.514 C36.838,122.514 39.435,121.559 41.552,119.645 C43.669,117.731 44.727,115.243 44.727,112.178 L44.727,93.516 L37.647,93.516 L37.647,112.019 C37.647,113.335 37.297,114.365 36.599,115.107 C35.9,115.851 34.958,116.222 33.771,116.222 C32.584,116.222 31.652,115.849 30.973,115.107 C30.294,114.365 29.954,113.336 29.954,112.019 L29.954,93.516 L22.874,93.516 L22.874,93.516 Z" id="Shape_9_"></path>
                    <path d="M21.309,101.834 C21.309,99.298 20.511,97.278 18.915,95.774 C17.32,94.268 15.052,93.516 12.112,93.516 L0.149,93.516 L0.149,122.279 L12.706,122.279 C15.356,122.279 17.518,121.535 19.193,120.047 C20.867,118.563 21.704,116.488 21.704,113.828 C21.704,112.881 21.582,112.031 21.338,111.279 C21.093,110.529 20.757,109.902 20.329,109.402 C19.901,108.9 19.538,108.531 19.241,108.295 C18.945,108.057 18.579,107.809 18.144,107.543 C20.253,106.115 21.309,104.213 21.309,101.834 L21.309,101.834 L21.309,101.834 Z M7.229,99.808 L11.664,99.808 C12.565,99.808 13.218,100.042 13.622,100.512 C14.026,100.979 14.229,101.541 14.229,102.196 C14.229,102.851 14.026,103.413 13.622,103.88 C13.218,104.349 12.564,104.583 11.664,104.583 L7.229,104.583 L7.229,99.808 L7.229,99.808 Z M14,115.236 C13.584,115.734 12.926,115.982 12.027,115.982 L7.229,115.982 L7.229,110.875 L12.027,110.875 C12.913,110.875 13.567,111.121 13.99,111.613 C14.413,112.105 14.624,112.707 14.624,113.418 C14.625,114.133 14.416,114.736 14,115.236 L14,115.236 L14,115.236 Z" id="Shape_10_"></path>
                    <path d="M134.523,74.506 C134.523,72.464 133.879,70.837 132.595,69.625 C131.312,68.413 129.486,67.807 127.118,67.807 L117.485,67.807 L117.485,90.964 L127.595,90.964 C129.729,90.964 131.469,90.365 132.818,89.169 C134.166,87.972 134.839,86.303 134.839,84.163 C134.839,83.399 134.74,82.715 134.545,82.109 C134.349,81.505 134.078,81 133.733,80.597 C133.388,80.195 133.096,79.897 132.857,79.707 C132.618,79.515 132.325,79.314 131.974,79.101 C133.674,77.953 134.523,76.42 134.523,74.506 L134.523,74.506 L134.523,74.506 Z M123.188,72.875 L126.758,72.875 C127.485,72.875 128.009,73.063 128.336,73.439 C128.66,73.816 128.824,74.268 128.824,74.796 C128.824,75.323 128.66,75.775 128.336,76.153 C128.01,76.53 127.485,76.718 126.758,76.718 L123.188,76.718 L123.188,72.875 L123.188,72.875 Z M128.639,85.295 C128.304,85.697 127.774,85.898 127.051,85.898 L123.188,85.898 L123.188,81.784 L127.051,81.784 C127.764,81.784 128.29,81.983 128.631,82.379 C128.973,82.775 129.143,83.26 129.143,83.833 C129.142,84.407 128.974,84.893 128.639,85.295 L128.639,85.295 L128.639,85.295 Z" id="Shape_11_"></path>
                    <path d="M101.09,67.809 L96.219,67.809 L93.179,80.037 L89.437,67.809 L85.393,67.809 L81.635,80.037 L78.612,67.809 L72.641,67.809 L79.026,90.964 L83.659,90.964 L87.415,79.545 L91.157,90.964 L95.821,90.964 L101.091,71.71 L101.091,90.964 L116.884,90.964 L116.884,85.898 L106.79,85.898 L106.79,81.832 L115.418,81.832 L115.418,76.766 L106.79,76.766 L106.79,72.876 L116.883,72.876 L116.883,67.81 L102.157,67.81 L101.09,67.81 L101.09,67.809 Z" id="Shape_12_"></path>
                    <path d="M70.453,74.344 C70.384,74.127 70.291,73.775 70.174,73.287 C70.058,72.8 69.916,72.416 69.752,72.136 C69.588,71.855 69.375,71.524 69.116,71.143 C68.857,70.762 68.562,70.408 68.234,70.079 C66.717,68.565 64.633,67.808 61.982,67.808 L53.377,67.808 L53.377,90.964 L61.982,90.964 C64.633,90.964 66.718,90.207 68.234,88.692 C68.543,88.385 68.81,88.087 69.039,87.795 C69.266,87.504 69.463,87.183 69.627,86.834 C69.79,86.485 69.936,86.175 70.063,85.905 C70.19,85.635 70.288,85.289 70.357,84.864 C70.426,84.442 70.486,84.115 70.54,83.888 C70.593,83.66 70.624,83.294 70.635,82.791 C70.646,82.288 70.652,81.936 70.652,81.734 L70.652,80.56 L70.652,79.383 L70.652,78.081 L70.652,76.731 C70.652,76.593 70.635,76.215 70.603,75.596 C70.572,74.979 70.521,74.56 70.453,74.344 L70.453,74.344 L70.453,74.344 Z M64.832,83.126 C64.752,83.755 64.59,84.245 64.346,84.595 C63.76,85.463 62.846,85.898 61.6,85.898 L59.078,85.898 L59.078,72.875 L61.6,72.875 C62.846,72.875 63.76,73.31 64.346,74.177 C64.578,74.527 64.739,75.016 64.825,75.645 C64.911,76.275 64.954,77.522 64.954,79.385 C64.953,81.249 64.912,82.496 64.832,83.126 L64.832,83.126 L64.832,83.126 Z" id="Shape_13_"></path>
                    <path d="M51.714,86.93 C52.027,86.326 52.261,85.797 52.414,85.342 C52.568,84.888 52.683,84.225 52.757,83.357 C52.832,82.489 52.868,81.875 52.868,81.515 L52.868,79.386 L52.868,77.259 C52.868,76.898 52.832,76.283 52.757,75.417 C52.683,74.548 52.569,73.886 52.414,73.431 C52.261,72.976 52.027,72.444 51.714,71.835 C51.401,71.227 51.006,70.684 50.528,70.208 C48.787,68.482 46.624,67.617 44.04,67.611 C41.456,67.605 39.293,68.471 37.552,70.208 C37.074,70.685 36.677,71.228 36.358,71.835 C36.04,72.444 35.806,72.976 35.658,73.431 C35.511,73.879 35.399,74.528 35.32,75.375 C35.246,74.528 35.133,73.878 34.982,73.431 C34.829,72.976 34.594,72.444 34.281,71.835 C33.968,71.227 33.573,70.684 33.095,70.208 C31.354,68.482 29.191,67.617 26.606,67.611 C24.022,67.605 21.859,68.471 20.119,70.208 C19.641,70.685 19.244,71.228 18.926,71.835 C18.607,72.444 18.374,72.976 18.225,73.431 C18.097,73.826 17.995,74.386 17.918,75.092 C17.565,73.01 16.676,71.253 15.24,69.826 C13.76,68.354 11.64,67.618 8.88,67.618 C6.323,67.608 4.177,68.47 2.442,70.207 C1.965,70.684 1.569,71.226 1.251,71.834 C0.934,72.443 0.7,72.976 0.552,73.43 C0.404,73.885 0.29,74.547 0.211,75.416 C0.132,76.284 0.092,76.898 0.092,77.258 L0.092,79.386 L0.092,81.514 C0.092,81.874 0.131,82.489 0.211,83.356 C0.291,84.224 0.404,84.886 0.552,85.34 C0.7,85.796 0.933,86.325 1.251,86.929 C1.568,87.532 1.966,88.073 2.442,88.549 C4.167,90.285 6.313,91.153 8.88,91.153 C11.703,91.153 13.953,90.285 15.63,88.549 C16.5,87.659 17.111,86.63 17.461,85.46 C17.649,84.831 17.785,84.091 17.873,83.251 C17.875,83.286 17.879,83.318 17.882,83.356 C17.962,84.224 18.075,84.886 18.223,85.342 C18.371,85.797 18.604,86.325 18.922,86.929 C19.239,87.532 19.637,88.073 20.113,88.549 C21.848,90.285 24.011,91.153 26.6,91.153 C29.189,91.153 31.355,90.285 33.095,88.549 C33.572,88.071 33.968,87.532 34.281,86.929 C34.595,86.325 34.828,85.797 34.982,85.342 C35.133,84.894 35.246,84.245 35.32,83.399 C35.399,84.245 35.511,84.894 35.656,85.342 C35.804,85.797 36.037,86.325 36.355,86.929 C36.672,87.532 37.07,88.073 37.546,88.549 C39.282,90.285 41.444,91.153 44.033,91.153 C46.622,91.153 48.787,90.285 50.528,88.549 C51.006,88.073 51.401,87.534 51.714,86.93 L51.714,86.93 L51.714,86.93 Z M8.881,77.624 L8.881,82.436 L12.304,82.436 L12.304,82.764 C12.304,83.806 12.012,84.611 11.429,85.183 C10.856,85.787 10.006,86.089 8.882,86.089 C7.884,86.078 7.136,85.755 6.637,85.12 C6.328,84.736 6.111,84.181 5.984,83.457 C5.857,82.733 5.793,81.386 5.793,79.418 C5.793,77.449 5.857,76.101 5.984,75.376 C6.112,74.651 6.328,74.092 6.637,73.701 C7.157,73.024 7.905,72.684 8.882,72.684 C9.837,72.684 10.57,72.891 11.079,73.303 C11.588,73.717 11.965,74.377 12.209,75.288 L17.898,75.288 C17.894,75.332 17.888,75.37 17.884,75.415 C17.805,76.283 17.765,76.897 17.765,77.257 L17.765,77.623 L8.881,77.623 L8.881,77.624 L8.881,77.624 Z M29.545,83.381 C29.417,84.095 29.198,84.649 28.89,85.041 C28.368,85.74 27.605,86.089 26.599,86.089 C25.594,86.089 24.83,85.74 24.309,85.041 C24,84.648 23.782,84.095 23.655,83.381 C23.527,82.667 23.464,81.335 23.464,79.386 C23.464,77.438 23.527,76.1 23.655,75.376 C23.782,74.651 24,74.092 24.31,73.701 C24.831,73.023 25.595,72.686 26.6,72.692 C27.606,72.697 28.369,73.033 28.891,73.701 C29.189,74.082 29.405,74.637 29.538,75.368 C29.671,76.099 29.738,77.438 29.738,79.386 C29.737,81.334 29.673,82.666 29.545,83.381 L29.545,83.381 L29.545,83.381 Z M46.978,83.381 C46.85,84.095 46.632,84.649 46.323,85.041 C45.801,85.74 45.038,86.089 44.032,86.089 C43.027,86.089 42.263,85.74 41.742,85.041 C41.433,84.649 41.216,84.095 41.087,83.381 C40.96,82.667 40.896,81.335 40.896,79.386 C40.896,77.438 40.96,76.1 41.087,75.376 C41.216,74.651 41.433,74.092 41.742,73.701 C42.263,73.023 43.027,72.686 44.032,72.692 C45.038,72.697 45.801,73.033 46.323,73.701 C46.621,74.082 46.837,74.637 46.97,75.368 C47.102,76.099 47.17,77.438 47.17,79.386 C47.168,81.334 47.105,82.666 46.978,83.381 L46.978,83.381 L46.978,83.381 Z" id="Shape_14_"></path>
                </g>
            </g>
        </g>
    </g>
</svg>