<?xml version="1.0" encoding="utf-8"?>
<!-- Generator: Adobe Illustrator 15.1.0, SVG Export Plug-In . SVG Version: 6.00 Build 0)  -->
<!DOCTYPE svg PUBLIC "-//W3C//DTD SVG 1.1//EN" "http://www.w3.org/Graphics/SVG/1.1/DTD/svg11.dtd">
<svg version="1.1" id="Layer_1" xmlns:sketch="http://www.bohemiancoding.com/sketch/ns"
	 xmlns="http://www.w3.org/2000/svg" xmlns:xlink="http://www.w3.org/1999/xlink" x="0px" y="0px" width="200px" height="152.5px"
	 viewBox="0 0 200 152.5" enable-background="new 0 0 200 152.5" xml:space="preserve">
<title>good-web-bundle-logo</title>
<desc>Created with Sketch Beta.</desc>
<g id="Page-1" sketch:type="MSPage">
	<g id="Group" transform="translate(50.000000, 5.000000)" sketch:type="MSLayerGroup">
		<path id="Shape" sketch:type="MSShapeGroup" d="M112.508,33.848H55.831v25.827h56.677c2.961,0,5.385-2.427,5.385-5.393V39.24
			C117.893,36.275,115.469,33.848,112.508,33.848L112.508,33.848z"/>
		<path id="Shape_1_" sketch:type="MSShapeGroup" d="M-11.615,59.674h56.676V33.847h-56.676c-2.962,0-5.385,2.427-5.385,5.393
			v15.042C-17,57.247-14.577,59.674-11.615,59.674L-11.615,59.674z"/>
		<path id="Shape_2_" sketch:type="MSShapeGroup" d="M112.508,120.637H55.831v25.828h56.677c2.961,0,5.385-2.428,5.385-5.395
			v-15.043C117.893,123.064,115.469,120.637,112.508,120.637L112.508,120.637z"/>
		<path id="Shape_3_" sketch:type="MSShapeGroup" d="M-17,126.029v15.043c0,2.965,2.423,5.393,5.385,5.393h56.676v-25.828h-56.676
			C-14.577,120.637-17,123.064-17,126.029L-17,126.029z"/>
		<path id="Shape_4_" sketch:type="MSShapeGroup" d="M28.818,25c6.671,2.555,14.338,4.019,21.034,4.019v-2.708l0.007-0.003
			l0.005,0.003v2.708c6.697,0,14.363-1.464,21.035-4.019c5.47-2.097,12.596-5.832,15.465-11.72c2.137-4.384,1.471-9.141-1.875-13.39
			c-3.23-4.101-7.757-5.693-12.746-4.502C63.254-2.581,54.764,7.182,49.857,15.802C44.951,7.183,36.459-2.583,27.971-4.612
			c-4.99-1.198-9.517,0.405-12.743,4.502c-3.346,4.249-4.011,9.005-1.875,13.389C16.221,19.167,23.347,22.903,28.818,25L28.818,25z
			 M61.443,13.349c4.261-5.418,8.832-9.141,12.225-9.954c0.44-0.104,0.846-0.158,1.227-0.158c1.211,0,2.161,0.55,3.1,1.74
			c1.758,2.234,1.463,3.631,0.941,4.701c-2.213,4.542-12.094,9.017-22.116,10.548C58.018,18.096,59.566,15.735,61.443,13.349
			L61.443,13.349z M21.722,4.978c0.937-1.19,1.887-1.74,3.101-1.74c0.378,0,0.784,0.053,1.224,0.158
			c3.394,0.813,7.964,4.532,12.226,9.951c1.879,2.389,3.424,4.749,4.623,6.88C32.873,18.693,22.993,14.22,20.78,9.679
			C20.258,8.609,19.961,7.212,21.722,4.978L21.722,4.978z"/>
		<path id="Shape_5_" sketch:type="MSShapeGroup" d="M98.117,117.277h19.617v-6.293h-12.536v-5.049h10.718v-6.295h-10.718v-4.833
			h12.536v-6.292H98.117V117.277z"/>
		<path id="Shape_6_" sketch:type="MSShapeGroup" d="M78.043,88.516v28.761h19.202v-6.293H85.122V88.516H78.043z"/>
		<path id="Shape_7_" sketch:type="MSShapeGroup" d="M73.379,114.455c0.383-0.381,0.715-0.752,0.998-1.113
			c0.282-0.361,0.525-0.76,0.73-1.193c0.203-0.434,0.385-0.818,0.541-1.154c0.158-0.336,0.28-0.766,0.365-1.291
			c0.085-0.527,0.161-0.93,0.228-1.213c0.065-0.283,0.104-0.736,0.117-1.361c0.014-0.625,0.021-1.062,0.021-1.312v-1.459v-1.461
			v-1.615v-1.678c0-0.172-0.021-0.641-0.061-1.41c-0.039-0.771-0.102-1.289-0.186-1.561c-0.086-0.268-0.201-0.705-0.346-1.31
			c-0.146-0.605-0.319-1.082-0.524-1.431c-0.204-0.349-0.468-0.761-0.79-1.233c-0.322-0.474-0.688-0.914-1.096-1.322
			c-1.883-1.879-4.473-2.82-7.766-2.82H54.922v28.763h10.691C68.906,117.277,71.494,116.338,73.379,114.455L73.379,114.455z
			 M62.002,110.984V94.808h3.134c1.547,0,2.683,0.54,3.411,1.618c0.289,0.436,0.488,1.043,0.594,1.824
			c0.105,0.783,0.16,2.332,0.16,4.646s-0.051,3.863-0.15,4.646c-0.1,0.781-0.301,1.389-0.604,1.822
			c-0.728,1.08-1.865,1.617-3.411,1.617h-3.133V110.984L62.002,110.984z"/>
		<path id="Shape_8_" sketch:type="MSShapeGroup" d="M45.27,102.975l-9.252-14.458h-6.192v28.761h7.079v-14.461l9.255,14.461h6.189
			V88.516H45.27V102.975z"/>
		<path id="Shape_9_" sketch:type="MSShapeGroup" d="M5.874,88.516v18.662c0,3.064,1.045,5.553,3.135,7.467
			c2.089,1.912,4.673,2.869,7.751,2.869c3.078,0,5.675-0.955,7.792-2.869s3.175-4.402,3.175-7.467V88.516h-7.08v18.503
			c0,1.316-0.35,2.346-1.048,3.088c-0.699,0.744-1.641,1.115-2.828,1.115c-1.187,0-2.119-0.373-2.798-1.115
			c-0.679-0.742-1.019-1.771-1.019-3.088V88.516H5.874L5.874,88.516L5.874,88.516z"/>
		<path id="Shape_10_" sketch:type="MSShapeGroup" d="M4.309,96.834c0-2.536-0.798-4.556-2.394-6.06
			c-1.595-1.506-3.863-2.258-6.803-2.258h-11.963v28.763h12.557c2.65,0,4.812-0.744,6.487-2.232
			c1.674-1.484,2.511-3.559,2.511-6.219c0-0.947-0.122-1.797-0.366-2.549c-0.245-0.75-0.581-1.377-1.009-1.877
			c-0.428-0.502-0.791-0.871-1.088-1.107c-0.296-0.238-0.662-0.486-1.097-0.752C3.253,101.115,4.309,99.213,4.309,96.834
			L4.309,96.834z M-9.771,94.808h4.435c0.901,0,1.554,0.234,1.958,0.704c0.404,0.467,0.607,1.029,0.607,1.684
			s-0.203,1.217-0.607,1.684c-0.404,0.469-1.058,0.703-1.958,0.703h-4.435V94.808L-9.771,94.808z M-3,110.236
			c-0.416,0.498-1.074,0.746-1.973,0.746h-4.798v-5.107h4.798c0.886,0,1.54,0.246,1.963,0.738c0.423,0.492,0.634,1.094,0.634,1.805
			C-2.375,109.133-2.584,109.736-3,110.236L-3,110.236z"/>
		<path id="Shape_11_" sketch:type="MSShapeGroup" d="M117.523,69.506c0-2.042-0.644-3.669-1.928-4.881
			c-1.283-1.212-3.109-1.818-5.477-1.818h-9.633v23.157h10.11c2.134,0,3.874-0.599,5.223-1.795c1.348-1.197,2.021-2.866,2.021-5.006
			c0-0.764-0.099-1.448-0.294-2.054c-0.196-0.604-0.467-1.109-0.812-1.512c-0.345-0.402-0.637-0.7-0.876-0.89
			c-0.239-0.192-0.532-0.393-0.883-0.606C116.674,72.953,117.523,71.42,117.523,69.506L117.523,69.506z M106.188,67.875h3.57
			c0.727,0,1.251,0.188,1.578,0.564c0.324,0.377,0.488,0.829,0.488,1.357c0,0.527-0.164,0.979-0.488,1.357
			c-0.326,0.377-0.851,0.565-1.578,0.565h-3.57V67.875L106.188,67.875z M111.639,80.295c-0.335,0.402-0.865,0.603-1.588,0.603
			h-3.863v-4.114h3.863c0.713,0,1.239,0.199,1.58,0.595c0.342,0.396,0.512,0.881,0.512,1.454
			C112.142,79.407,111.974,79.893,111.639,80.295L111.639,80.295z"/>
		<path id="Shape_12_" sketch:type="MSShapeGroup" d="M84.09,62.809h-4.871l-3.04,12.228l-3.742-12.228h-4.044l-3.758,12.228
			l-3.023-12.228h-5.971l6.385,23.155h4.633l3.756-11.419l3.742,11.419h4.664l5.27-19.254v19.254h15.793v-5.066H89.79v-4.066h8.628
			v-5.066H89.79v-3.89h10.093v-5.066H85.157H84.09z"/>
		<path id="Shape_13_" sketch:type="MSShapeGroup" d="M53.453,69.344c-0.069-0.217-0.162-0.569-0.279-1.057
			c-0.116-0.487-0.258-0.871-0.422-1.151c-0.164-0.281-0.377-0.612-0.636-0.993s-0.554-0.735-0.882-1.064
			c-1.517-1.514-3.601-2.271-6.252-2.271h-8.605v23.156h8.605c2.651,0,4.736-0.757,6.252-2.272c0.309-0.307,0.576-0.605,0.805-0.897
			c0.227-0.291,0.424-0.612,0.588-0.961c0.163-0.349,0.309-0.659,0.436-0.929s0.225-0.616,0.294-1.041
			c0.069-0.422,0.129-0.749,0.183-0.976c0.053-0.228,0.084-0.594,0.095-1.097s0.017-0.855,0.017-1.057v-1.174v-1.177v-1.302v-1.35
			c0-0.138-0.017-0.516-0.049-1.135C53.572,69.979,53.521,69.56,53.453,69.344L53.453,69.344z M47.832,78.126
			c-0.08,0.629-0.242,1.119-0.486,1.469c-0.586,0.868-1.5,1.303-2.746,1.303h-2.522V67.875H44.6c1.246,0,2.16,0.435,2.746,1.302
			c0.232,0.35,0.393,0.839,0.479,1.468c0.086,0.63,0.129,1.877,0.129,3.74C47.953,76.249,47.912,77.496,47.832,78.126L47.832,78.126
			z"/>
		<path id="Shape_14_" sketch:type="MSShapeGroup" d="M34.714,81.93c0.313-0.604,0.547-1.133,0.7-1.588
			c0.154-0.454,0.269-1.117,0.343-1.985c0.075-0.868,0.111-1.482,0.111-1.842v-2.129v-2.127c0-0.361-0.036-0.976-0.111-1.842
			c-0.074-0.869-0.188-1.531-0.343-1.986c-0.153-0.455-0.387-0.987-0.7-1.596c-0.313-0.608-0.708-1.151-1.186-1.627
			c-1.741-1.726-3.904-2.591-6.488-2.597c-2.584-0.006-4.747,0.86-6.488,2.597c-0.478,0.477-0.875,1.02-1.194,1.627
			c-0.318,0.609-0.552,1.141-0.7,1.596c-0.147,0.448-0.259,1.097-0.338,1.944c-0.074-0.847-0.187-1.497-0.338-1.944
			c-0.153-0.455-0.388-0.987-0.701-1.596c-0.313-0.608-0.708-1.151-1.186-1.627c-1.741-1.726-3.904-2.591-6.489-2.597
			c-2.584-0.006-4.747,0.86-6.487,2.597c-0.478,0.477-0.875,1.02-1.193,1.627c-0.319,0.609-0.552,1.141-0.701,1.596
			c-0.128,0.395-0.23,0.955-0.307,1.661c-0.353-2.082-1.242-3.839-2.678-5.266c-1.48-1.472-3.6-2.208-6.36-2.208
			c-2.557-0.01-4.703,0.852-6.438,2.589c-0.477,0.477-0.873,1.019-1.191,1.627c-0.317,0.609-0.551,1.142-0.699,1.596
			c-0.148,0.455-0.262,1.117-0.341,1.986c-0.079,0.868-0.119,1.482-0.119,1.842v2.128v2.128c0,0.36,0.039,0.975,0.119,1.842
			c0.08,0.868,0.193,1.53,0.341,1.984c0.148,0.456,0.381,0.985,0.699,1.589c0.317,0.603,0.715,1.144,1.191,1.62
			c1.725,1.736,3.871,2.604,6.438,2.604c2.823,0,5.073-0.868,6.75-2.604c0.87-0.89,1.481-1.919,1.831-3.089
			c0.188-0.629,0.324-1.369,0.412-2.209c0.002,0.035,0.006,0.067,0.009,0.105c0.08,0.868,0.193,1.53,0.341,1.986
			c0.148,0.455,0.381,0.983,0.699,1.587c0.317,0.603,0.715,1.144,1.191,1.62c1.735,1.736,3.898,2.604,6.487,2.604
			c2.589,0,4.755-0.868,6.495-2.604c0.477-0.478,0.873-1.017,1.186-1.62c0.314-0.604,0.547-1.132,0.701-1.587
			c0.151-0.448,0.264-1.097,0.338-1.943c0.079,0.846,0.191,1.495,0.336,1.943c0.148,0.455,0.381,0.983,0.699,1.587
			c0.317,0.603,0.715,1.144,1.191,1.62c1.736,1.736,3.898,2.604,6.487,2.604s4.754-0.868,6.495-2.604
			C34.006,83.073,34.401,82.534,34.714,81.93L34.714,81.93z M-8.119,72.624v4.812h3.423v0.328c0,1.042-0.292,1.847-0.875,2.419
			c-0.573,0.604-1.423,0.906-2.547,0.906c-0.998-0.011-1.746-0.334-2.245-0.969c-0.309-0.384-0.526-0.939-0.653-1.663
			s-0.191-2.071-0.191-4.039c0-1.969,0.064-3.317,0.191-4.042c0.128-0.725,0.344-1.284,0.653-1.675
			c0.52-0.677,1.268-1.017,2.245-1.017c0.955,0,1.688,0.207,2.197,0.619c0.509,0.414,0.886,1.074,1.13,1.985h5.689
			c-0.004,0.044-0.01,0.082-0.014,0.127c-0.079,0.868-0.119,1.482-0.119,1.842v0.366H-8.119L-8.119,72.624z M12.545,78.381
			c-0.128,0.714-0.347,1.268-0.655,1.66c-0.522,0.699-1.285,1.048-2.291,1.048c-1.005,0-1.769-0.349-2.29-1.048
			C7,79.648,6.782,79.095,6.655,78.381c-0.128-0.714-0.191-2.046-0.191-3.995c0-1.948,0.063-3.286,0.191-4.01
			C6.782,69.651,7,69.092,7.31,68.701c0.521-0.678,1.285-1.015,2.29-1.009c1.006,0.005,1.769,0.341,2.291,1.009
			c0.298,0.381,0.514,0.936,0.647,1.667s0.2,2.07,0.2,4.018C12.737,76.334,12.673,77.666,12.545,78.381L12.545,78.381z
			 M29.978,78.381c-0.128,0.714-0.346,1.268-0.655,1.66c-0.522,0.699-1.285,1.048-2.291,1.048c-1.005,0-1.769-0.349-2.29-1.048
			c-0.309-0.392-0.526-0.946-0.655-1.66c-0.127-0.714-0.191-2.046-0.191-3.995c0-1.948,0.064-3.286,0.191-4.01
			c0.129-0.725,0.346-1.284,0.655-1.675c0.521-0.678,1.285-1.015,2.29-1.009c1.006,0.005,1.769,0.341,2.291,1.009
			c0.298,0.381,0.514,0.936,0.647,1.667c0.132,0.731,0.2,2.07,0.2,4.018C30.168,76.334,30.105,77.666,29.978,78.381L29.978,78.381z"
			/>
	</g>
</g>
</svg>
