<?xml version="1.0" encoding="UTF-8" standalone="no"?>
<svg width="200px" height="200px" viewBox="0 0 200 200" version="1.1" xmlns="http://www.w3.org/2000/svg" xmlns:xlink="http://www.w3.org/1999/xlink" xmlns:sketch="http://www.bohemiancoding.com/sketch/ns">
    <!-- Generator: Sketch Beta 3.2 (9940) - http://www.bohemiancoding.com/sketch -->
    <title>good-web-bundle-logo</title>
    <desc>Created with Sketch Beta.</desc>
    <defs></defs>
    <g id="Page-1" stroke="none" stroke-width="1" fill="none" fill-rule="evenodd" sketch:type="MSPage">
        <g id="Group" sketch:type="MSLayerGroup" transform="translate(50.000000, 5.000000)" fill="#000000">
            <path d="M129.507337,39.6445312 L72.8313018,39.6445312 L72.8313018,65.47125 L129.507337,65.47125 C132.46855,65.47125 134.89216,63.0439687 134.89216,60.0787969 L134.89216,45.0361875 C134.89216,42.0718125 132.46855,39.6445312 129.507337,39.6445312 L129.507337,39.6445312 Z" id="Shape" sketch:type="MSShapeGroup"></path>
            <path d="M5.38482249,65.4704531 L62.060858,65.4704531 L62.060858,39.6437344 L5.38482249,39.6437344 C2.42281065,39.6437344 0,42.0702188 0,45.0361875 L0,60.078 C0,63.0431719 2.42281065,65.4704531 5.38482249,65.4704531 L5.38482249,65.4704531 Z" id="Shape" sketch:type="MSShapeGroup"></path>
            <path d="M129.507337,126.432984 L72.8313018,126.432984 L72.8313018,152.2605 L129.507337,152.2605 C132.46855,152.2605 134.89216,149.833219 134.89216,146.86725 L134.89216,131.824641 C134.89216,128.860266 132.46855,126.432984 129.507337,126.432984 L129.507337,126.432984 Z" id="Shape" sketch:type="MSShapeGroup"></path>
            <path d="M0,131.825438 L0,146.868047 C0,149.834016 2.42281065,152.261297 5.38482249,152.261297 L62.060858,152.261297 L62.060858,126.433781 L5.38482249,126.433781 C2.42281065,126.432984 0,128.860266 0,131.825438 L0,131.825438 Z" id="Shape" sketch:type="MSShapeGroup"></path>
            <path d="M45.8177219,30.7960313 C52.4894379,33.3508125 60.1564793,34.8146719 66.8521598,34.8146719 L66.8521598,32.1068906 L66.8585503,32.1037031 L66.8633432,32.1068906 L66.8633432,34.8146719 C73.5606213,34.8146719 81.2260651,33.3508125 87.8977811,30.7960313 C93.3680769,28.6994531 100.49432,24.9637031 103.363669,19.0755938 C105.499704,14.6919844 104.833491,9.93464063 101.488047,5.68570313 C98.258432,1.58498438 93.7315385,-0.007171875 88.7421302,1.18335938 C80.2539053,3.21539063 71.763284,12.9779063 66.8569527,21.5985 C61.9506213,12.9795 53.4592012,3.21379688 44.9709763,1.18415625 C39.9807692,-0.01434375 35.4538757,1.58896875 32.2282544,5.6865 C28.8820118,9.9354375 28.2165976,14.6919844 30.3526331,19.0755938 C33.2211834,24.9637031 40.3466272,28.6994531 45.8177219,30.7960313 L45.8177219,30.7960313 Z M78.443787,19.1457188 C82.7038757,13.7269688 87.2747041,10.0047656 90.6680769,9.19195313 C91.1082249,9.0875625 91.5132249,9.03417188 91.8942604,9.03417188 C93.1052663,9.03417188 94.055858,9.58401562 94.9936686,10.7745469 C96.7526627,13.0081875 96.4571006,14.4059063 95.9362722,15.4753125 C93.7227515,20.0175 83.8421893,24.4919531 73.8194379,26.0235469 C75.0176627,23.8919063 76.5657692,21.5315625 78.443787,19.1457188 L78.443787,19.1457188 Z M38.7218343,10.7745469 C39.6588462,9.58401563 40.6086391,9.03417188 41.8220414,9.03417188 C42.2006805,9.03417188 42.6064793,9.0875625 43.0458284,9.19195313 C46.44,10.0047656 51.0100296,13.7237813 55.2709172,19.1425313 C57.1497337,21.5315625 58.6954438,23.8911094 59.8944675,26.02275 C49.8725148,24.4895625 39.9927515,20.0159063 37.7800296,15.4753125 C37.2576036,14.4059063 36.9612426,13.0081875 38.7218343,10.7745469 L38.7218343,10.7745469 Z" id="Shape" sketch:type="MSShapeGroup"></path>
            <path d="M115.117456,123.074156 L134.734793,123.074156 L134.734793,116.780437 L122.198166,116.780437 L122.198166,111.731437 L132.916686,111.731437 L132.916686,105.436922 L122.198166,105.436922 L122.198166,100.604672 L134.734793,100.604672 L134.734793,94.3125469 L115.117456,94.3125469 L115.117456,123.074156 Z" id="Shape" sketch:type="MSShapeGroup"></path>
            <path d="M95.0423964,94.3125469 L95.0423964,123.074156 L114.245148,123.074156 L114.245148,116.780437 L102.122308,116.780437 L102.122308,94.3125469 L95.0423964,94.3125469 Z" id="Shape" sketch:type="MSShapeGroup"></path>
            <path d="M90.3789053,120.252422 C90.7615385,119.871516 91.0938462,119.500172 91.3766272,119.138391 C91.6594083,118.776609 91.9030473,118.378969 92.1067456,117.945469 C92.3104438,117.511172 92.4917751,117.126281 92.649142,116.791594 C92.8065089,116.455312 92.9287278,116.025797 93.0142012,115.499062 C93.0988757,114.973125 93.1747633,114.569109 93.2410651,114.286219 C93.306568,114.004125 93.3457101,113.549906 93.3584911,112.925156 C93.372071,112.301203 93.3784615,111.862922 93.3784615,111.6135 L93.3784615,110.154422 L93.3784615,108.69375 L93.3784615,107.076891 L93.3784615,105.400266 C93.3784615,105.228937 93.3584911,104.758781 93.3185503,103.989797 C93.2794083,103.219219 93.2171006,102.700453 93.132426,102.430312 C93.0469527,102.160969 92.9311243,101.724281 92.7865385,101.118656 C92.6411538,100.513828 92.4678107,100.0365 92.2625148,99.6882656 C92.0588166,99.3392344 91.7952071,98.9280469 91.4724852,98.4547031 C91.1505621,97.9813594 90.785503,97.5414844 90.3765089,97.1334844 C88.4936982,95.2536562 85.9047337,94.3125469 82.611213,94.3125469 L71.9214497,94.3125469 L71.9214497,123.07575 L82.6128107,123.07575 C85.9055325,123.074156 88.494497,122.133844 90.3789053,120.252422 L90.3789053,120.252422 Z M79.0021598,116.780437 L79.0021598,100.604672 L82.1359172,100.604672 C83.682426,100.604672 84.8183432,101.144156 85.5468639,102.222328 C85.8360355,102.657422 86.0349408,103.265437 86.1411834,104.047172 C86.2466272,104.829703 86.3001479,106.378031 86.3001479,108.692156 C86.3001479,111.007078 86.2506213,112.556203 86.1499704,113.338734 C86.0509172,114.121266 85.8496154,114.728484 85.5460651,115.162781 C84.8183432,116.24175 83.6808284,116.779641 82.1343195,116.779641 L79.0021598,116.779641 L79.0021598,116.780437 L79.0021598,116.780437 Z" id="Shape" sketch:type="MSShapeGroup"></path>
            <path d="M62.2701479,108.771844 L53.0174556,94.3125469 L46.8250296,94.3125469 L46.8250296,123.074156 L53.9049408,123.074156 L53.9049408,108.613266 L63.1592308,123.074156 L69.3484615,123.074156 L69.3484615,94.3125469 L62.2701479,94.3125469 L62.2701479,108.771844 Z" id="Shape" sketch:type="MSShapeGroup"></path>
            <path d="M22.8741124,94.3125469 L22.8741124,112.973766 C22.8741124,116.038547 23.9189645,118.527187 26.0086686,120.441281 C28.097574,122.353781 30.6817456,123.310828 33.7595858,123.310828 C36.837426,123.310828 39.4343787,122.354578 41.5512426,120.441281 C43.6681065,118.527188 44.7265385,116.039344 44.7265385,112.973766 L44.7265385,94.3125469 L37.6466272,94.3125469 L37.6466272,112.816781 C37.6466272,114.131625 37.2967456,115.161188 36.5985799,115.903875 C35.8996154,116.647359 34.9578107,117.018703 33.7707692,117.018703 C32.5845266,117.018703 31.6523077,116.646562 30.9733136,115.903875 C30.2943195,115.161188 29.9548225,114.131625 29.9548225,112.816781 L29.9548225,94.3125469 L22.8741124,94.3125469 L22.8741124,94.3125469 L22.8741124,94.3125469 Z" id="Shape" sketch:type="MSShapeGroup"></path>
            <path d="M21.308432,102.630328 C21.308432,100.094672 20.5104142,98.0737969 18.9151775,96.5700938 C17.3199408,95.0647969 15.0521006,94.3125469 12.1124556,94.3125469 L0.149378698,94.3125469 L0.149378698,123.074953 L12.7067751,123.074953 C15.3564497,123.074953 17.5188462,122.331469 19.1931657,120.843703 C20.8674852,119.358328 21.704645,117.284859 21.704645,114.625688 C21.704645,113.677406 21.582426,112.827141 21.338787,112.076484 C21.0943491,111.325031 20.7580473,110.699484 20.3298817,110.19825 C19.901716,109.697813 19.5390533,109.328063 19.2418935,109.091391 C18.9455325,108.853922 18.5796746,108.6045 18.1443195,108.339937 C20.2531953,106.911141 21.308432,105.009 21.308432,102.630328 L21.308432,102.630328 Z M7.22849112,100.604672 L11.6635207,100.604672 C12.5645858,100.604672 13.2180178,100.838953 13.6222189,101.307516 C14.0264201,101.775281 14.2293195,102.337078 14.2293195,102.991313 C14.2293195,103.647141 14.0264201,104.208141 13.6222189,104.675906 C13.2180178,105.144469 12.5645858,105.37875 11.6635207,105.37875 L7.22849112,105.37875 L7.22849112,100.604672 L7.22849112,100.604672 Z M14.0000592,116.032172 C13.5838757,116.531016 12.9256509,116.779641 12.0269822,116.779641 L7.22849112,116.779641 L7.22849112,111.670875 L12.0269822,111.670875 C12.9128698,111.670875 13.5671006,111.917906 13.9904734,112.409578 C14.4130473,112.90125 14.6247337,113.503688 14.6247337,114.215297 C14.6247337,114.9285 14.4162426,115.533328 14.0000592,116.032172 L14.0000592,116.032172 Z" id="Shape" sketch:type="MSShapeGroup"></path>
            <path d="M134.523107,75.3022969 C134.523107,73.2607031 133.880059,71.6334844 132.596361,70.4214375 C131.312663,69.2093906 129.485769,68.6037656 127.119675,68.6037656 L117.486746,68.6037656 L117.486746,91.7601562 L127.596568,91.7601562 C129.731006,91.7601562 131.470828,91.1617031 132.819231,89.9647969 C134.166834,88.7678906 134.841036,87.0984375 134.841036,84.9588281 C134.841036,84.1954219 134.741982,83.5109063 134.547071,82.9052813 C134.350562,82.30125 134.079763,81.7960312 133.734675,81.3936094 C133.389586,80.9911875 133.097219,80.6939531 132.858373,80.5035 C132.619527,80.3114531 132.325562,80.1106406 131.97568,79.8970781 C133.673166,78.7487813 134.523107,77.2163906 134.523107,75.3022969 L134.523107,75.3022969 Z M123.187899,73.6718906 L126.757811,73.6718906 C127.483935,73.6718906 128.008757,73.8599531 128.335473,74.2360781 C128.660592,74.6137969 128.82355,75.065625 128.82355,75.5931562 C128.82355,76.1206875 128.660592,76.5725156 128.335473,76.9502344 C128.009556,77.3271563 127.485533,77.5152188 126.757811,77.5152188 L123.187899,77.5152188 L123.187899,73.6718906 L123.187899,73.6718906 Z M128.638225,86.0919844 C128.303521,86.4936094 127.773905,86.6944219 127.050976,86.6944219 L123.187899,86.6944219 L123.187899,82.5801563 L127.050976,82.5801563 C127.76432,82.5801563 128.289941,82.779375 128.631036,83.1754219 C128.97213,83.5714688 129.142278,84.0559688 129.142278,84.6289219 C129.141479,85.2034687 128.973728,85.6895625 128.638225,86.0919844 L128.638225,86.0919844 Z" id="Shape" sketch:type="MSShapeGroup"></path>
            <path d="M101.090237,68.6053594 L96.2190533,68.6053594 L93.1787574,80.8334063 L89.4363018,68.6053594 L85.3918935,68.6053594 L81.6350592,80.8334063 L78.6107396,68.6053594 L72.6403846,68.6053594 L79.0253254,91.7601563 L83.6576627,91.7601563 L87.414497,80.3409375 L91.1561538,91.7601563 L95.8204438,91.7601563 L101.090237,72.5060625 L101.090237,91.7601563 L116.88284,91.7601563 L116.88284,86.6944219 L106.789793,86.6944219 L106.789793,82.6279688 L115.417811,82.6279688 L115.417811,77.5614375 L106.789793,77.5614375 L106.789793,73.6718906 L116.88284,73.6718906 L116.88284,68.6053594 L102.157456,68.6053594 L101.090237,68.6053594 Z" id="Shape" sketch:type="MSShapeGroup"></path>
            <path d="M70.4532249,75.1405313 C70.3837278,74.9237813 70.2910651,74.5715625 70.1744379,74.083875 C70.0578107,73.5969844 69.9164201,73.2128906 69.7526627,72.9323906 C69.5881065,72.6518906 69.3756213,72.3203906 69.1160059,71.9394844 C68.8571893,71.5585781 68.562426,71.2039688 68.2341124,70.8756563 C66.7179586,69.3615938 64.6338462,68.6045625 61.982574,68.6045625 L53.3769231,68.6045625 L53.3769231,91.7601563 L61.982574,91.7601563 C64.6338462,91.7601563 66.7187574,91.003125 68.2341124,89.4882656 C68.5432544,89.1814688 68.8100592,88.8826406 69.0385207,88.5909844 C69.2661834,88.300125 69.4626923,87.9789844 69.6272485,87.6299531 C69.7902071,87.2809219 69.9355917,86.9709375 70.0626036,86.7007969 C70.1888166,86.4306563 70.287071,86.0848125 70.356568,85.6600781 C70.4252663,85.2377344 70.4851775,84.9118125 70.5386982,84.6839063 C70.5914201,84.456 70.6233728,84.0902344 70.6337574,83.5874063 C70.6449408,83.0845781 70.6505325,82.7323594 70.6505325,82.53075 L70.6505325,81.3569531 L70.6505325,80.1799688 L70.6505325,78.877875 L70.6505325,77.5279688 C70.6505325,77.3901094 70.6337574,77.0123906 70.6018047,76.3932188 C70.5722485,75.7748438 70.5219231,75.3564844 70.4532249,75.1405313 L70.4532249,75.1405313 Z M64.8319527,83.9228906 C64.752071,84.5524219 64.5899112,85.0417031 64.3454734,85.3915313 C63.7599408,86.2593281 62.8452959,86.6944219 61.599142,86.6944219 L59.0772781,86.6944219 L59.0772781,73.6718906 L61.599142,73.6718906 C62.8452959,73.6718906 63.7599408,74.1061875 64.3454734,74.9739844 C64.5787278,75.3238125 64.7384911,75.8130938 64.8247633,76.442625 C64.9094379,77.0729531 64.952574,78.3192656 64.952574,80.1823594 C64.952574,82.0454531 64.9118343,83.2925625 64.8319527,83.9228906 L64.8319527,83.9228906 Z" id="Shape" sketch:type="MSShapeGroup"></path>
            <path d="M51.713787,87.726375 C52.0277219,87.1223437 52.2609763,86.5932188 52.4143491,86.1382031 C52.5677219,85.6839844 52.6827515,85.0209844 52.7570414,84.1531875 C52.8313314,83.2853906 52.8680769,82.671 52.8680769,82.3108125 L52.8680769,80.1815625 L52.8680769,78.0547031 C52.8680769,77.6937188 52.8313314,77.0793281 52.7570414,76.2123281 C52.6827515,75.3437344 52.5685207,74.6815313 52.4143491,74.2265156 C52.2609763,73.7715 52.0277219,73.2391875 51.713787,72.630375 C51.4006509,72.0223594 51.0052367,71.4788906 50.5283432,71.0031563 C48.7869231,69.277125 46.6245266,68.4117188 44.040355,68.4061406 C41.4561834,68.4005625 39.293787,69.2659687 37.5523669,71.0031563 C37.0746746,71.4796875 36.6768639,72.0223594 36.3581361,72.630375 C36.0402071,73.2391875 35.8061538,73.7715 35.6583728,74.2265156 C35.5113905,74.6743594 35.3995562,75.3238125 35.3204734,76.1708906 C35.2461834,75.3238125 35.1335503,74.6743594 34.9817751,74.2265156 C34.8284024,73.7715 34.5943491,73.2391875 34.281213,72.630375 C33.9680769,72.0223594 33.5726627,71.4788906 33.0957692,71.0031563 C31.3543491,69.277125 29.1919527,68.4117188 26.6069822,68.4061406 C24.0228107,68.4005625 21.8604142,69.2659687 20.1197929,71.0031563 C19.6421006,71.4796875 19.2442899,72.0223594 18.9263609,72.630375 C18.6076331,73.2391875 18.3743787,73.7715 18.2257988,74.2265156 C18.0971893,74.6209688 17.9957396,75.1811719 17.9190533,75.8872031 C17.5659763,73.8049688 16.6768935,72.0478594 15.2414201,70.6214531 C13.761213,69.149625 11.6411538,68.4133125 8.8812426,68.4133125 C6.32423077,68.4029531 4.17860947,69.2651719 2.44278107,71.0023594 C1.96588757,71.4788906 1.56967456,72.0215625 1.25174556,72.6295781 C0.934615385,73.2383906 0.701360947,73.7715 0.552781065,74.2257187 C0.404201183,74.6807344 0.290769231,75.3421406 0.211686391,76.2115313 C0.13260355,77.0793281 0.0926627219,77.6937188 0.0926627219,78.0539062 L0.0926627219,80.1815625 L0.0926627219,82.3100156 C0.0926627219,82.6702031 0.131804734,83.2845938 0.211686391,84.1523906 C0.291568047,85.0201875 0.405,85.6823906 0.552781065,86.1366094 C0.701360947,86.5924219 0.933816568,87.1215469 1.25174556,87.7255781 C1.56887574,88.3288125 1.96668639,88.8690938 2.44278107,89.345625 C4.16742604,91.0820156 6.31384615,91.9498125 8.8812426,91.9498125 C11.7042604,91.9498125 13.9545266,91.0820156 15.6320414,89.345625 C16.5019527,88.4563125 17.1130473,87.42675 17.462929,86.2561406 C17.6514497,85.6274063 17.7872485,84.8879063 17.8751183,84.0472031 C17.8775148,84.0822656 17.8815089,84.1149375 17.8839053,84.1523906 C17.963787,85.0201875 18.0772189,85.6823906 18.225,86.1382031 C18.3735799,86.5932188 18.6060355,87.1215469 18.9239645,87.7255781 C19.2410947,88.3288125 19.6389053,88.8690938 20.115,89.345625 C21.8508284,91.0820156 24.0132249,91.9498125 26.6021893,91.9498125 C29.1911538,91.9498125 31.3567456,91.0820156 33.0973669,89.345625 C33.5742604,88.8682969 33.9696746,88.3288125 34.2828107,87.7255781 C34.5967456,87.1215469 34.83,86.5932188 34.9833728,86.1382031 C35.1343491,85.6903594 35.2477811,85.0409063 35.3212722,84.1954219 C35.400355,85.0417031 35.5121893,85.6903594 35.657574,86.1382031 C35.8061538,86.5932188 36.0386095,87.1215469 36.3565385,87.7255781 C36.6736686,88.3288125 37.0714793,88.8690938 37.547574,89.345625 C39.2834024,91.0820156 41.4457988,91.9498125 44.0347633,91.9498125 C46.6237278,91.9498125 48.7885207,91.0820156 50.529142,89.345625 C51.0060355,88.8690938 51.4014497,88.3304063 51.713787,87.726375 L51.713787,87.726375 Z M8.8812426,78.4204687 L8.8812426,83.232 L12.3041716,83.232 L12.3041716,83.5595156 C12.3041716,84.6010313 12.0118047,85.4066719 11.4286686,85.9788281 C10.8559172,86.5836562 10.0059763,86.884875 8.8812426,86.884875 C7.88352071,86.8737187 7.13502959,86.5509844 6.63656805,85.915875 C6.32822485,85.5317812 6.11094675,84.9763594 5.98393491,84.2535938 C5.85692308,83.5300313 5.79301775,82.1825156 5.79301775,80.2150313 C5.79301775,78.2459531 5.85692308,76.8976406 5.98393491,76.1724844 C6.11174556,75.4473281 6.32822485,74.8887187 6.63656805,74.4974531 C7.15659763,73.8201094 7.90428994,73.4806406 8.8812426,73.4806406 C9.83662722,73.4806406 10.569142,73.6870313 11.0779882,74.0998125 C11.5876331,74.5133906 11.9638757,75.174 12.2083136,76.0848281 L17.8974852,76.0848281 C17.8934911,76.1286563 17.8878994,76.1669062 17.8839053,76.2123281 C17.8048225,77.080125 17.7648817,77.6945156 17.7648817,78.0547031 L17.7648817,78.4204687 L8.8812426,78.4204687 L8.8812426,78.4204687 Z M29.5450296,84.1770938 C29.4164201,84.8910938 29.1983432,85.4449219 28.89,85.8369844 C28.3683728,86.5358437 27.605503,86.884875 26.5997929,86.884875 C25.5940828,86.884875 24.831213,86.5358437 24.3095858,85.8369844 C24.0004438,85.4449219 23.7823669,84.8910938 23.6545562,84.1770938 C23.5267456,83.4630937 23.4636391,82.1315156 23.4636391,80.1823594 C23.4636391,78.2347969 23.5275444,76.8968438 23.6545562,76.1724844 C23.7823669,75.4473281 24.0004438,74.8887187 24.3095858,74.4974531 C24.831213,73.8193125 25.5940828,73.4830313 26.5997929,73.4886094 C27.605503,73.4941875 28.3683728,73.8296719 28.89,74.4974531 C29.1879586,74.8783594 29.4036391,75.4337812 29.5370414,76.1645156 C29.6704438,76.89525 29.7367456,78.2347969 29.7367456,80.1823594 C29.7367456,82.1307187 29.6728402,83.4622969 29.5450296,84.1770938 L29.5450296,84.1770938 Z M46.9776036,84.1770938 C46.8489941,84.8910938 46.631716,85.4449219 46.322574,85.8369844 C45.8009467,86.5358437 45.0380769,86.884875 44.0323669,86.884875 C43.0266568,86.884875 42.2629882,86.5358437 41.7421598,85.8369844 C41.4330178,85.4449219 41.2157396,84.8910938 41.0871302,84.1770938 C40.9593195,83.4630937 40.896213,82.1315156 40.896213,80.1823594 C40.896213,78.2347969 40.9601183,76.8968438 41.0871302,76.1724844 C41.2157396,75.4473281 41.4330178,74.8887187 41.7421598,74.4974531 C42.263787,73.8193125 43.0266568,73.4830313 44.0323669,73.4886094 C45.0380769,73.4941875 45.8009467,73.8296719 46.322574,74.4974531 C46.6205325,74.8783594 46.8370118,75.4337812 46.9696154,76.1645156 C47.1022189,76.89525 47.1693195,78.2347969 47.1693195,80.1823594 C47.1685207,82.1307187 47.1054142,83.4622969 46.9776036,84.1770938 L46.9776036,84.1770938 Z" id="Shape" sketch:type="MSShapeGroup"></path>
        </g>
    </g>
</svg>