<?xml version="1.0" encoding="utf-8"?>
<!-- Generator: Adobe Illustrator 15.1.0, SVG Export Plug-In . SVG Version: 6.00 Build 0)  -->
<!DOCTYPE svg PUBLIC "-//W3C//DTD SVG 1.1//EN" "http://www.w3.org/Graphics/SVG/1.1/DTD/svg11.dtd">
<svg version="1.1" id="Layer_1" xmlns="http://www.w3.org/2000/svg" xmlns:xlink="http://www.w3.org/1999/xlink" x="0px" y="0px"
	 width="170px" height="195px" viewBox="0 0 170 195" enable-background="new 0 0 170 195" xml:space="preserve">
<g>
	<path fill="#EE2249" d="M162.124,50.75h-70.95v32.41h70.95c3.707,0,6.741-3.046,6.741-6.767V57.516
		C168.865,53.796,165.831,50.75,162.124,50.75z"/>
	<path fill="#EE2249" d="M6.741,83.159h70.95V50.749H6.741C3.033,50.749,0,53.794,0,57.516v18.876
		C0,80.113,3.033,83.159,6.741,83.159z"/>
	<path fill="#EE2249" d="M162.124,159.661h-70.95v32.411h70.95c3.707,0,6.741-3.046,6.741-6.768v-18.877
		C168.865,162.707,165.831,159.661,162.124,159.661z"/>
	<path fill="#EE2249" d="M0,166.428v18.877c0,3.722,3.033,6.768,6.741,6.768h70.95v-32.411H6.741C3.033,159.661,0,162.707,0,166.428
		z"/>
	<path fill="#EE2249" d="M57.357,39.646c8.352,3.206,17.95,5.043,26.332,5.043v-3.398l0.008-0.004l0.006,0.004v3.398
		c8.384,0,17.98-1.837,26.332-5.043c6.848-2.631,15.769-7.319,19.361-14.708c2.674-5.501,1.84-11.471-2.348-16.803
		c-4.043-5.146-9.71-7.144-15.956-5.65c-10.626,2.55-21.255,14.801-27.397,25.619C77.553,17.288,66.923,5.033,56.297,2.486
		c-6.247-1.504-11.914,0.508-15.952,5.65c-4.189,5.332-5.022,11.301-2.348,16.802C41.588,32.327,50.508,37.015,57.357,39.646z
		 M98.2,25.026c5.333-6.8,11.055-11.471,15.303-12.491c0.551-0.131,1.058-0.198,1.535-0.198c1.516,0,2.706,0.69,3.88,2.184
		c2.202,2.803,1.832,4.557,1.18,5.899c-2.771,5.7-15.14,11.315-27.687,13.237C93.911,30.982,95.849,28.02,98.2,25.026z
		 M48.474,14.521c1.173-1.494,2.362-2.184,3.881-2.184c0.474,0,0.982,0.067,1.532,0.198c4.249,1.02,9.97,5.687,15.304,12.487
		c2.352,2.998,4.287,5.959,5.788,8.634c-12.546-1.924-24.914-7.538-27.684-13.236C46.641,19.078,46.27,17.324,48.474,14.521z"/>
	<path fill="#FFFFFF" d="M26.675,128.791c0-3.182-0.999-5.718-2.996-7.605c-1.997-1.889-4.836-2.833-8.516-2.833H0.187v36.094h15.72
		c3.317,0,6.024-0.933,8.12-2.8c2.096-1.864,3.144-4.466,3.144-7.803c0-1.19-0.153-2.257-0.458-3.199
		c-0.306-0.943-0.727-1.728-1.263-2.357c-0.536-0.628-0.99-1.092-1.362-1.389c-0.371-0.298-0.829-0.611-1.374-0.943
		C25.354,134.163,26.675,131.776,26.675,128.791z M9.049,126.249h5.552c1.128,0,1.946,0.294,2.452,0.882
		c0.506,0.587,0.76,1.292,0.76,2.113c0,0.823-0.254,1.527-0.76,2.114c-0.506,0.588-1.324,0.882-2.452,0.882H9.049V126.249z
		 M17.526,145.609c-0.521,0.626-1.345,0.938-2.47,0.938H9.049v-6.411h6.007c1.109,0,1.928,0.31,2.458,0.927
		c0.529,0.617,0.794,1.373,0.794,2.266C18.308,144.224,18.047,144.983,17.526,145.609z"/>
	<path fill="#FFFFFF" d="M28.635,118.353v23.418c0,3.846,1.308,6.969,3.924,9.371c2.615,2.4,5.85,3.601,9.703,3.601
		s7.104-1.2,9.754-3.601c2.65-2.402,3.975-5.524,3.975-9.371v-23.418h-8.863v23.221c0,1.65-0.438,2.942-1.312,3.874
		c-0.875,0.933-2.054,1.399-3.54,1.399c-1.485,0-2.652-0.467-3.502-1.399c-0.85-0.932-1.275-2.224-1.275-3.874v-23.221H28.635
		L28.635,118.353z"/>
	<polygon fill="#FFFFFF" points="77.953,136.498 66.37,118.353 58.618,118.353 58.618,154.446 67.481,154.446 67.481,136.299 
		79.066,154.446 86.814,154.446 86.814,118.353 77.953,118.353 	"/>
	<path fill="#FFFFFF" d="M113.141,150.905c0.479-0.478,0.895-0.944,1.249-1.398s0.659-0.953,0.914-1.497
		c0.255-0.545,0.482-1.028,0.679-1.448c0.197-0.422,0.35-0.961,0.457-1.622c0.106-0.66,0.201-1.167,0.284-1.522
		c0.082-0.354,0.131-0.924,0.147-1.708c0.017-0.783,0.025-1.333,0.025-1.646v-1.831v-1.833v-2.029v-2.104
		c0-0.215-0.025-0.805-0.075-1.77c-0.049-0.967-0.127-1.618-0.233-1.957c-0.107-0.338-0.252-0.886-0.433-1.646
		c-0.182-0.759-0.399-1.358-0.656-1.795c-0.255-0.438-0.585-0.954-0.989-1.548c-0.403-0.594-0.86-1.146-1.372-1.658
		c-2.357-2.359-5.598-3.54-9.721-3.54H90.035v36.095h13.384C107.541,154.446,110.782,153.266,113.141,150.905z M98.899,146.548
		v-20.299h3.923c1.936,0,3.358,0.677,4.27,2.03c0.362,0.546,0.611,1.309,0.744,2.29c0.132,0.982,0.199,2.925,0.199,5.829
		c0,2.905-0.062,4.849-0.188,5.831c-0.124,0.982-0.376,1.744-0.756,2.289c-0.911,1.354-2.335,2.029-4.271,2.029H98.899
		L98.899,146.548z"/>
	<polygon fill="#FFFFFF" points="118.979,118.353 118.979,154.446 143.018,154.446 143.018,146.548 127.842,146.548 
		127.842,118.353 	"/>
	<polygon fill="#FFFFFF" points="144.11,154.446 168.668,154.446 168.668,146.548 152.974,146.548 152.974,140.212 166.392,140.212 
		166.392,132.313 152.974,132.313 152.974,126.249 168.668,126.249 168.668,118.353 144.11,118.353 	"/>
	<path fill="#FFFFFF" d="M64.738,110.088c0.393-0.758,0.685-1.422,0.877-1.993c0.192-0.57,0.336-1.402,0.429-2.491
		c0.093-1.089,0.139-1.86,0.139-2.312v-2.672v-2.669c0-0.453-0.046-1.224-0.139-2.312c-0.093-1.09-0.236-1.921-0.429-2.492
		c-0.192-0.571-0.484-1.239-0.877-2.003c-0.392-0.763-0.887-1.445-1.484-2.042c-2.18-2.166-4.887-3.252-8.122-3.259
		c-3.235-0.007-5.942,1.079-8.122,3.259c-0.598,0.598-1.096,1.279-1.495,2.042c-0.398,0.764-0.691,1.432-0.876,2.003
		c-0.184,0.562-0.324,1.377-0.423,2.44c-0.093-1.063-0.234-1.878-0.424-2.44c-0.192-0.571-0.485-1.239-0.877-2.003
		c-0.392-0.763-0.887-1.445-1.484-2.042c-2.18-2.166-4.887-3.252-8.123-3.259c-3.235-0.007-5.942,1.079-8.121,3.259
		c-0.598,0.598-1.096,1.279-1.494,2.042c-0.399,0.764-0.691,1.432-0.877,2.003c-0.161,0.495-0.288,1.198-0.384,2.084
		c-0.442-2.613-1.555-4.818-3.352-6.608c-1.853-1.847-4.507-2.771-7.962-2.771c-3.201-0.013-5.887,1.069-8.06,3.249
		c-0.597,0.598-1.093,1.279-1.491,2.042c-0.397,0.764-0.689,1.433-0.875,2.003c-0.186,0.571-0.328,1.401-0.427,2.492
		c-0.099,1.089-0.149,1.86-0.149,2.312v2.67v2.671c0,0.452,0.049,1.223,0.149,2.312c0.1,1.089,0.242,1.92,0.427,2.49
		c0.186,0.572,0.477,1.236,0.875,1.994c0.397,0.757,0.895,1.435,1.491,2.033c2.159,2.179,4.846,3.268,8.06,3.268
		c3.534,0,6.351-1.089,8.451-3.268c1.089-1.116,1.854-2.408,2.292-3.877c0.236-0.789,0.406-1.717,0.516-2.772
		c0.003,0.044,0.008,0.085,0.011,0.132c0.1,1.089,0.242,1.92,0.427,2.492c0.186,0.571,0.477,1.234,0.875,1.992
		c0.397,0.757,0.895,1.435,1.491,2.033c2.173,2.179,4.88,3.268,8.121,3.268s5.952-1.089,8.131-3.268
		c0.597-0.599,1.092-1.276,1.484-2.033c0.393-0.758,0.685-1.421,0.877-1.992c0.189-0.562,0.331-1.377,0.423-2.438
		c0.099,1.062,0.239,1.876,0.421,2.438c0.186,0.571,0.477,1.234,0.875,1.992c0.397,0.757,0.895,1.435,1.491,2.033
		c2.173,2.179,4.88,3.268,8.121,3.268s5.951-1.089,8.13-3.268C63.852,111.522,64.347,110.846,64.738,110.088z M11.118,98.41v6.038
		h4.285v0.411c0,1.307-0.366,2.318-1.096,3.036c-0.717,0.759-1.781,1.137-3.189,1.137c-1.249-0.014-2.186-0.419-2.81-1.216
		c-0.386-0.482-0.658-1.179-0.817-2.086c-0.159-0.908-0.239-2.599-0.239-5.068c0-2.471,0.08-4.163,0.239-5.073
		c0.16-0.91,0.431-1.611,0.817-2.102c0.651-0.85,1.587-1.276,2.81-1.276c1.196,0,2.113,0.259,2.75,0.777
		c0.638,0.519,1.109,1.348,1.415,2.491h7.122c-0.005,0.055-0.012,0.103-0.017,0.16c-0.099,1.089-0.149,1.86-0.149,2.312v0.459
		H11.118z M36.986,105.634c-0.161,0.896-0.434,1.591-0.82,2.083c-0.653,0.877-1.608,1.315-2.867,1.315
		c-1.259,0-2.214-0.438-2.867-1.315c-0.387-0.492-0.66-1.187-0.82-2.083c-0.16-0.896-0.239-2.567-0.239-5.013
		c0-2.444,0.08-4.123,0.239-5.032c0.16-0.91,0.433-1.611,0.82-2.102c0.653-0.851,1.608-1.273,2.867-1.266s2.214,0.428,2.867,1.266
		c0.373,0.478,0.643,1.175,0.81,2.092s0.25,2.598,0.25,5.042C37.226,103.066,37.146,104.737,36.986,105.634z M58.809,105.634
		c-0.161,0.896-0.433,1.591-0.82,2.083c-0.653,0.877-1.608,1.315-2.867,1.315c-1.259,0-2.215-0.438-2.867-1.315
		c-0.387-0.492-0.659-1.187-0.82-2.083c-0.16-0.896-0.239-2.567-0.239-5.013c0-2.444,0.08-4.123,0.239-5.032
		c0.161-0.91,0.433-1.611,0.82-2.102c0.653-0.851,1.608-1.273,2.867-1.266s2.214,0.428,2.867,1.266
		c0.373,0.478,0.644,1.175,0.81,2.092s0.25,2.598,0.25,5.042C59.048,103.066,58.969,104.737,58.809,105.634z"/>
	<path fill="#FFFFFF" d="M88.197,94.294c-0.087-0.272-0.203-0.714-0.349-1.326c-0.146-0.611-0.323-1.093-0.528-1.445
		c-0.206-0.352-0.472-0.768-0.797-1.246c-0.324-0.478-0.693-0.923-1.104-1.335c-1.898-1.9-4.507-2.85-7.826-2.85H66.82v29.058
		h10.773c3.319,0,5.929-0.95,7.826-2.851c0.387-0.385,0.721-0.76,1.007-1.126c0.285-0.365,0.531-0.768,0.737-1.206
		c0.204-0.438,0.386-0.827,0.545-1.166c0.158-0.339,0.281-0.773,0.368-1.306c0.086-0.53,0.161-0.939,0.228-1.225
		c0.066-0.286,0.106-0.745,0.119-1.376c0.014-0.631,0.021-1.073,0.021-1.326v-1.473v-1.477v-1.634v-1.694
		c0-0.173-0.021-0.647-0.061-1.424C88.346,95.09,88.283,94.565,88.197,94.294z M81.16,105.315c-0.1,0.79-0.303,1.404-0.609,1.843
		c-0.733,1.089-1.878,1.635-3.438,1.635h-3.157V92.451h3.157c1.56,0,2.705,0.545,3.438,1.634c0.292,0.439,0.492,1.053,0.6,1.843
		c0.106,0.791,0.16,2.355,0.16,4.693C81.311,102.959,81.26,104.524,81.16,105.315z"/>
	<polygon fill="#FFFFFF" points="126.55,86.093 120.452,86.093 116.646,101.438 111.961,86.093 106.898,86.093 102.195,101.438 
		98.409,86.093 90.935,86.093 98.928,115.15 104.727,115.15 109.43,100.82 114.114,115.15 119.953,115.15 126.55,90.988 
		126.55,115.15 146.32,115.15 146.32,108.793 133.685,108.793 133.685,103.69 144.486,103.69 144.486,97.332 133.685,97.332 
		133.685,92.451 146.32,92.451 146.32,86.093 127.886,86.093 	"/>
	<path fill="#FFFFFF" d="M168.403,94.497c0-2.562-0.805-4.604-2.412-6.125s-3.894-2.281-6.856-2.281h-12.059v29.059h12.656
		c2.672,0,4.85-0.751,6.538-2.253c1.687-1.502,2.531-3.597,2.531-6.282c0-0.958-0.124-1.817-0.368-2.577
		c-0.246-0.758-0.585-1.392-1.017-1.897c-0.432-0.505-0.798-0.878-1.097-1.117c-0.299-0.241-0.667-0.493-1.105-0.761
		C167.339,98.822,168.403,96.899,168.403,94.497z M154.213,92.451h4.469c0.909,0,1.566,0.236,1.975,0.708
		c0.407,0.474,0.611,1.041,0.611,1.703s-0.204,1.229-0.611,1.703c-0.408,0.473-1.064,0.709-1.975,0.709h-4.469V92.451z
		 M161.036,108.037c-0.419,0.504-1.082,0.756-1.987,0.756h-4.836v-5.163h4.836c0.893,0,1.551,0.25,1.978,0.747
		s0.64,1.105,0.64,1.824C161.666,106.922,161.456,107.532,161.036,108.037z"/>
</g>
</svg>
