<?xml version="1.0" encoding="utf-8"?>
<!-- Generator: Adobe Illustrator 15.1.0, SVG Export Plug-In . SVG Version: 6.00 Build 0)  -->
<!DOCTYPE svg PUBLIC "-//W3C//DTD SVG 1.1//EN" "http://www.w3.org/Graphics/SVG/1.1/DTD/svg11.dtd">
<svg version="1.1" xmlns="http://www.w3.org/2000/svg" xmlns:xlink="http://www.w3.org/1999/xlink" x="0px" y="0px" width="135px"
	 height="135px" viewBox="0 0 135 135" enable-background="new 0 0 135 135" xml:space="preserve">
<g id="Layer_1">
</g>
<g id="Layer_4">
	<path fill="#FFFFFF" d="M67.5,0C30.221,0,0,30.221,0,67.5S30.221,135,67.5,135S135,104.779,135,67.5S104.779,0,67.5,0z
		 M23.529,58.836l-5.199-5.2c-1.224-1.222-1.224-3.223,0-4.447l22.976-22.976c1.223-1.222,3.224-1.222,4.447,0l5.199,5.2
		c1.223,1.222,1.223,3.223,0,4.447L27.977,58.836C26.753,60.059,24.752,60.059,23.529,58.836z M30.488,87.923l-0.824-0.81
		c-1.85-1.816-1.876-4.819-0.059-6.67l4.41-4.487h0l7.354-7.483c0.909-0.926,2.114-1.393,3.322-1.403
		c1.209-0.011,2.422,0.437,3.347,1.347l0.825,0.809c0.216,0.213,0.401,0.443,0.568,0.683c0.059,0.086,0.104,0.177,0.155,0.265
		c0.095,0.159,0.187,0.32,0.261,0.487c0.051,0.114,0.09,0.232,0.132,0.348c0.051,0.147,0.098,0.294,0.135,0.444
		c0.033,0.135,0.06,0.27,0.082,0.408c0.02,0.13,0.032,0.263,0.041,0.395c0.011,0.155,0.02,0.31,0.016,0.465
		c-0.003,0.105-0.018,0.209-0.027,0.313c-0.017,0.178-0.032,0.356-0.07,0.534c-0.004,0.021-0.012,0.039-0.017,0.061
		c-0.11,0.489-0.295,0.963-0.561,1.404c-0.186,0.306-0.397,0.598-0.657,0.861L37.158,87.865c-0.909,0.926-2.113,1.395-3.322,1.403
		C32.626,89.281,31.414,88.832,30.488,87.923z M42.67,98.151c-1.209,0-2.418-0.458-3.335-1.375l-0.818-0.817
		c-1.834-1.833-1.834-4.835,0-6.669l11.867-11.867c0.534-0.534,1.171-0.893,1.846-1.116c0.134-0.046,0.269-0.088,0.406-0.121
		c0.104-0.022,0.207-0.048,0.312-0.065c0.256-0.043,0.513-0.073,0.772-0.073c1.209,0,2.418,0.459,3.335,1.376l0.818,0.816
		c0.212,0.212,0.392,0.442,0.555,0.682c0.058,0.084,0.103,0.174,0.154,0.262c0.091,0.155,0.178,0.312,0.249,0.475
		c0.053,0.12,0.097,0.239,0.139,0.36c0.045,0.133,0.084,0.266,0.118,0.401c0.038,0.148,0.071,0.297,0.094,0.45
		c0.014,0.09,0.018,0.179,0.026,0.27c0.086,0.938-0.104,1.888-0.573,2.73c-0.207,0.37-0.447,0.727-0.761,1.04L46.004,96.776
		C45.087,97.693,43.877,98.151,42.67,98.151z M51.599,107.083c-1.208,0-2.417-0.46-3.335-1.376l-0.817-0.818
		c-1.833-1.833-1.833-4.835,0-6.667l11.867-11.868c0.567-0.567,1.25-0.938,1.97-1.153c0.093-0.029,0.184-0.06,0.277-0.083
		c0.114-0.025,0.228-0.052,0.343-0.069c0.246-0.042,0.494-0.07,0.744-0.07c1.209,0,2.419,0.457,3.335,1.376l0.817,0.815
		c0.209,0.21,0.388,0.438,0.549,0.675c0.057,0.082,0.103,0.169,0.153,0.256c0.091,0.154,0.176,0.311,0.248,0.474
		c0.052,0.114,0.097,0.23,0.14,0.35c0.044,0.13,0.083,0.262,0.117,0.396c0.038,0.146,0.074,0.293,0.099,0.442
		c0.01,0.068,0.012,0.137,0.02,0.205c0.157,1.382-0.27,2.819-1.324,3.875l-11.868,11.866
		C54.016,106.623,52.808,107.083,51.599,107.083z M63.864,114.636c-0.917,0.917-2.126,1.377-3.335,1.377s-2.418-0.46-3.334-1.377
		l-0.818-0.817c-1.833-1.833-1.833-4.835,0-6.668l11.868-11.867c0.723-0.724,1.627-1.151,2.569-1.305
		c0.252-0.045,0.508-0.072,0.765-0.072c1.209,0,2.419,0.458,3.336,1.377l0.817,0.816c0.203,0.204,0.376,0.425,0.533,0.654
		c0.049,0.072,0.094,0.144,0.138,0.216c0.104,0.168,0.193,0.342,0.272,0.521c0.037,0.081,0.079,0.161,0.11,0.245
		c0.083,0.22,0.152,0.447,0.2,0.677c0.033,0.147,0.049,0.294,0.065,0.444c0.012,0.091,0.021,0.183,0.026,0.273
		c0.012,0.178,0.017,0.354,0.007,0.53c0,0.006-0.001,0.011-0.001,0.015c-0.057,1.127-0.497,2.238-1.352,3.094L63.864,114.636z
		 M80.974,114.609l-0.817,0.818c-1.835,1.835-4.836,1.835-6.67,0l-3.541-3.539l7.453-7.453c0.012-0.012,0.021-0.024,0.034-0.036
		l3.541,3.542C82.808,109.775,82.808,112.776,80.974,114.609z M107.765,87.82l-0.818,0.817c-1.834,1.835-4.835,1.835-6.67,0
		L85.964,74.326l-1.442,1.442L98.834,90.08c1.834,1.835,1.834,4.837,0,6.669l-0.817,0.818c-1.834,1.834-4.835,1.834-6.67,0
		L77.035,83.256l-1.443,1.441l14.312,14.313c1.835,1.833,1.835,4.834,0,6.669l-0.817,0.817c-1.835,1.833-4.837,1.833-6.671,0
		l-3.763-3.762c1.408-2.671,0.989-6.06-1.255-8.303l-0.817-0.817c-1.332-1.331-3.108-2.066-5.003-2.066
		c-0.388,0-0.767,0.038-1.143,0.099c0.061-0.375,0.1-0.756,0.1-1.143c0-1.895-0.733-3.67-2.066-5.002l-0.818-0.817
		c-1.333-1.333-3.109-2.066-5.002-2.066c-0.387,0-0.768,0.039-1.143,0.099c0.061-0.375,0.099-0.757,0.099-1.143
		c0-1.895-0.734-3.671-2.067-5.003l-0.819-0.818c-1.331-1.33-3.108-2.064-5.001-2.064c-0.407,0-0.807,0.039-1.199,0.106
		c0.07-0.415,0.11-0.838,0.105-1.27c-0.017-1.894-0.766-3.663-2.109-4.983l-0.826-0.811c-1.343-1.321-3.126-2.039-5.019-2.021
		c-1.893,0.016-3.664,0.765-4.984,2.109l-7.338,7.468l-2.458-2.457c-3.057-3.056-3.057-8.059,0-11.114l23.162-23.163
		c2.429-2.428,6.083-2.92,9.016-1.49l0.176,0.072l-5.456,1.939c-2.981,1.06-5.122,3.629-5.638,6.741
		c-0.244,0.733-0.368,1.471-0.368,2.2l0.001,18.035c-0.001,3.901,3.173,7.073,7.073,7.075h1.944c3.9,0,7.074-3.173,7.074-7.075
		l-0.001-12.313l9.208-3.271l3.511,3.51l8.302,8.303l19.871,19.87C109.599,82.984,109.599,85.986,107.765,87.82z M109.293,69.209
		l-2.884,2.884c-0.774,0.773-1.674,1.35-2.634,1.732L89.562,59.612l-8.303-8.302l-4.563-4.566l-12.179,4.329V65.05
		c0,2.594-2.121,4.717-4.715,4.717c0,0-0.001,0-0.001,0h-1.943c-2.594,0-4.716-2.124-4.716-4.717L53.14,47.018
		c0-0.574,0.119-1.119,0.309-1.628c0.306-2.254,1.835-4.277,4.129-5.092l19.96-7.095c0.215-0.076,0.429-0.138,0.646-0.19
		c0.777-0.246,1.587-0.369,2.397-0.369c2.011,0,4.023,0.76,5.55,2.288l23.161,23.161C112.35,61.149,112.35,66.15,109.293,69.209z
		 M115.433,56.215c-1.224,1.224-3.224,1.224-4.446,0L88.009,33.239c-1.223-1.223-1.223-3.224,0-4.446l5.2-5.199
		c1.224-1.224,3.224-1.224,4.446,0l22.977,22.976c1.224,1.223,1.224,3.224,0,4.446L115.433,56.215z"/>
</g>
</svg>
