<?xml version="1.0" encoding="utf-8"?>
<!-- Generator: Adobe Illustrator 15.1.0, SVG Export Plug-In . SVG Version: 6.00 Build 0)  -->
<!DOCTYPE svg PUBLIC "-//W3C//DTD SVG 1.1//EN" "http://www.w3.org/Graphics/SVG/1.1/DTD/svg11.dtd">
<svg version="1.1" id="Layer_4" xmlns="http://www.w3.org/2000/svg" xmlns:xlink="http://www.w3.org/1999/xlink" x="0px" y="0px"
	 width="135px" height="135px" viewBox="0 0 135 135" enable-background="new 0 0 135 135" xml:space="preserve">
<g>
	<path fill="#FFFFFF" d="M48.736,40.869c0,2.728,1.216,5.076,3.288,7.595h31.763c2.179-2.545,3.477-4.896,3.477-7.684v-8.757H48.736
		V40.869z"/>
	<path fill="#FFFFFF" d="M71.293,67.144c0-0.083,0.009-0.164,0.011-0.246c-0.359,0.173-0.729,0.313-1.108,0.426v3.228h-4.391v-3.228
		c-0.355-0.105-0.703-0.238-1.039-0.397c0.001,0.074,0.008,0.144,0.008,0.216c0,5.79-4.157,9.887-8.177,13.85
		c-3.866,3.809-7.861,7.747-7.861,12.421v8.773h2.083l12.116-11.651c0.831-0.798,1.818-1.352,2.869-1.674v-3.384h4.391v3.384
		c1.05,0.322,2.037,0.876,2.867,1.674l12.114,11.651h2.087v-8.775c0-4.122-2.96-7.323-7.474-11.733
		C75.807,77.788,71.293,73.378,71.293,67.144z M70.195,82.846h-4.391v-3.513h4.391V82.846z M70.195,76.699h-4.391v-3.513h4.391
		V76.699z"/>
	<path fill="#FFFFFF" d="M67.5,0C30.221,0,0,30.221,0,67.5S30.221,135,67.5,135S135,104.779,135,67.5S104.779,0,67.5,0z
		 M94.288,40.78c0,13.193-15.971,18.791-15.971,26.364c0,7.574,15.971,13.247,15.971,26.269c0,13.023,0,14.043,0,14.043
		c0,1.932-1.581,3.513-3.513,3.513h-2.879h-0.612H48.713h-0.307h-3.183c-1.933,0-3.512-1.581-3.512-3.513c0,0,0-0.942,0-14.041
		c0-13.101,16.038-19.467,16.038-26.271c0-6.805-16.038-13.148-16.038-26.275c0-13.126,0-14.192,0-14.192
		c0-1.932,1.58-3.512,3.512-3.512h45.551c1.932,0,3.513,1.581,3.513,3.512C94.288,26.676,94.288,27.585,94.288,40.78z"/>
</g>
</svg>
