<?xml version="1.0" encoding="utf-8"?>
<!-- Generator: Adobe Illustrator 15.1.0, SVG Export Plug-In . SVG Version: 6.00 Build 0)  -->
<!DOCTYPE svg PUBLIC "-//W3C//DTD SVG 1.1//EN" "http://www.w3.org/Graphics/SVG/1.1/DTD/svg11.dtd">
<svg version="1.1" xmlns="http://www.w3.org/2000/svg" xmlns:xlink="http://www.w3.org/1999/xlink" x="0px" y="0px" width="135px"
	 height="135px" viewBox="0 0 135 135" enable-background="new 0 0 135 135" xml:space="preserve">
<g id="Layer_1">
</g>
<g id="Layer_2">
	<g>
		<path fill="#FFFFFF" d="M107.82,64.615c-0.196-0.116-0.355-0.153-0.444-0.145c0.001,0.12,0.063,0.404,0.341,0.85
			c0.335,0.537,0.752,0.788,1.151,0.89C108.688,65.483,108.311,64.901,107.82,64.615z"/>
		<circle fill="#FFFFFF" cx="48.771" cy="61.395" r="2.574"/>
		<path fill="#FFFFFF" d="M67.5,0C30.221,0,0,30.221,0,67.5S30.221,135,67.5,135S135,104.779,135,67.5S104.779,0,67.5,0z
			 M69.288,27.662c6.079,0,11.006,4.927,11.006,11.006c0,1.727-0.408,3.355-1.12,4.81c-2.229-0.455-4.528-0.759-6.873-0.904
			c0.472-0.537,0.725-1.203,0.725-1.923c0-1.505-0.802-2.425-2.793-3.126c-1.423-0.536-2.007-0.887-2.007-1.439
			c0-0.469,0.351-0.937,1.438-0.937c1.204,0,1.975,0.383,2.408,0.568l0.485-1.89c-0.552-0.268-1.305-0.501-2.424-0.551v-1.473
			h-1.641v1.59c-1.79,0.35-2.826,1.504-2.826,2.976c0,1.624,1.221,2.459,3.011,3.062c1.238,0.417,1.772,0.819,1.772,1.456
			c0,0.67-0.652,1.036-1.606,1.036c-1.086,0-2.073-0.351-2.775-0.736l-0.358,1.397c-2.159,0.142-4.277,0.421-6.341,0.827
			c-0.689-1.439-1.086-3.042-1.086-4.742C58.283,32.589,63.209,27.662,69.288,27.662z M45.398,37.273
			c0-0.887,0.444-2.13,1.508-0.887c0.917,1.067,6.42,6.293,7.947,8.138c-3.4,1.026-6.583,2.425-9.456,4.166
			C45.398,46.791,45.398,38.078,45.398,37.273z M25.774,78.259c-0.432,0-0.785-0.353-0.785-0.784v-12.9
			c0-0.431,0.354-0.784,0.785-0.784h7.046c-0.56,1.902-0.856,3.865-0.856,5.867c0,2.977,0.646,5.87,1.874,8.602H25.774z
			 M59.42,101.398c0,0.431-0.351,0.784-0.784,0.784H47.067c-0.431,0-0.785-0.354-0.785-0.784V91.142
			c3.92,2.23,8.378,3.843,13.139,4.771V101.398z M93.682,101.398c0,0.431-0.354,0.784-0.785,0.784H81.327
			c-0.432,0-0.784-0.354-0.784-0.784v-5.867c4.817-1.13,9.284-2.97,13.139-5.458V101.398z M69.095,93.702
			c-18.773,0-33.993-10.766-33.993-24.045c0-13.282,15.219-24.048,33.993-24.048c18.776,0,33.995,10.767,33.995,24.048
			C103.09,82.937,87.871,93.702,69.095,93.702z M110.666,67.606c-0.066,0.024-0.132,0.045-0.197,0.066
			c-0.107,0.524-0.339,1.002-0.692,1.426c-1.435,1.729-3.739,1.726-3.865,1.73c-0.009,0-0.019,0-0.028,0
			c-0.421,0-0.767-0.332-0.782-0.755c-0.018-0.434,0.321-0.798,0.753-0.814c0.674-0.025,1.901-0.182,2.719-1.167
			c0.078-0.095,0.145-0.195,0.201-0.299c-0.962-0.162-1.816-0.73-2.387-1.643c-0.885-1.415-0.561-2.256-0.29-2.632
			c0.376-0.521,1.062-0.732,1.793-0.555c0.95,0.231,2.15,1.162,2.543,3.038c0.903-0.452,1.701-1.465,1.521-2.829
			c-0.056-0.428,0.247-0.822,0.678-0.878c0.431-0.058,0.823,0.246,0.879,0.675C113.821,65.342,112.254,67.037,110.666,67.606z"/>
	</g>
</g>
<g id="Layer_3" display="none">
	<g display="inline">
		<image overflow="visible" width="135" height="135" id="ZwXvJx_1_" xlink:href="CE067683.jpg" >
		</image>
	</g>
</g>
</svg>
