<?xml version="1.0" encoding="utf-8"?>
<!-- Generator: Adobe Illustrator 15.1.0, SVG Export Plug-In . SVG Version: 6.00 Build 0)  -->
<!DOCTYPE svg PUBLIC "-//W3C//DTD SVG 1.1//EN" "http://www.w3.org/Graphics/SVG/1.1/DTD/svg11.dtd">
<svg version="1.1" xmlns="http://www.w3.org/2000/svg" xmlns:xlink="http://www.w3.org/1999/xlink" x="0px" y="0px" width="135px"
	 height="135px" viewBox="0 0 135 135" enable-background="new 0 0 135 135" xml:space="preserve">
<g id="Layer_1">
</g>
<g id="Layer_4">
	<g>
		<path fill="#FFFFFF" d="M67.5,0C30.221,0,0,30.221,0,67.5S30.221,135,67.5,135S135,104.779,135,67.5S104.779,0,67.5,0z
			 M89.485,113.283c0,1.067-0.632,1.339-1.406,0.605L70.367,97.088c-0.774-0.735-2.039-0.735-2.814,0l-17.711,16.801
			c-0.774,0.733-1.407,0.462-1.407-0.605V80.729c5.815,4.091,12.892,6.504,20.525,6.504c7.635,0,14.711-2.413,20.524-6.505V113.283z
			 M101.224,55.852l-6.123,3.76c-0.455,0.279-0.662,0.911-0.457,1.403l2.761,6.66c0.204,0.493-0.061,0.953-0.589,1.021l-7.11,0.934
			c-0.528,0.07-0.972,0.563-0.985,1.097l-0.177,7.213c-0.014,0.533-0.444,0.845-0.953,0.692l-6.875-2.056
			c-0.513-0.152-1.116,0.118-1.343,0.6l-3.08,6.517c-0.227,0.481-0.744,0.592-1.149,0.244l-5.447-4.689
			c-0.403-0.348-1.064-0.348-1.469,0l-5.449,4.689c-0.403,0.348-0.92,0.237-1.149-0.244l-3.081-6.517
			c-0.227-0.482-0.833-0.752-1.343-0.6l-6.874,2.056c-0.511,0.152-0.939-0.159-0.952-0.692l-0.172-7.213
			c-0.013-0.533-0.457-1.026-0.985-1.097l-7.115-0.934c-0.528-0.068-0.795-0.528-0.591-1.021l2.759-6.66
			c0.205-0.492-0.001-1.124-0.457-1.403l-6.12-3.76c-0.455-0.279-0.511-0.808-0.125-1.176l5.213-4.96
			c0.386-0.368,0.456-1.028,0.153-1.467l-4.077-5.941c-0.301-0.439-0.136-0.944,0.366-1.123l6.768-2.396
			c0.501-0.178,0.833-0.753,0.736-1.277l-1.324-7.103c-0.099-0.525,0.257-0.919,0.79-0.875l7.15,0.582
			c0.532,0.043,1.068-0.346,1.191-0.865l1.663-7.025c0.123-0.519,0.606-0.734,1.074-0.478l6.298,3.454
			c0.468,0.257,1.115,0.119,1.438-0.305l4.36-5.737c0.324-0.424,0.853-0.424,1.174,0l4.36,5.737
			c0.323,0.424,0.969,0.562,1.437,0.305l6.299-3.454c0.468-0.256,0.95-0.042,1.073,0.477l1.666,7.026
			c0.124,0.519,0.659,0.908,1.191,0.865l7.145-0.582c0.532-0.044,0.887,0.35,0.789,0.875l-1.319,7.103
			c-0.099,0.524,0.232,1.099,0.737,1.277l6.765,2.396c0.503,0.178,0.667,0.684,0.366,1.123l-4.073,5.941
			c-0.302,0.439-0.232,1.1,0.153,1.467l5.212,4.96C101.733,55.043,101.678,55.572,101.224,55.852z"/>
		<path fill="#FFFFFF" d="M68.961,31.426c-11.074,0-20.052,8.979-20.052,20.053c0,11.07,8.978,20.052,20.052,20.052
			c11.071,0,20.051-8.982,20.051-20.052C89.012,40.404,80.032,31.426,68.961,31.426z M68.961,67.652
			c-8.917,0-16.174-7.255-16.174-16.173c0-8.919,7.256-16.174,16.174-16.174c8.918,0,16.173,7.255,16.173,16.174
			C85.134,60.396,77.879,67.652,68.961,67.652z"/>
	</g>
</g>
</svg>
