<?xml version="1.0" encoding="utf-8"?>
<!-- Generator: Adobe Illustrator 15.1.0, SVG Export Plug-In . SVG Version: 6.00 Build 0)  -->
<!DOCTYPE svg PUBLIC "-//W3C//DTD SVG 1.1//EN" "http://www.w3.org/Graphics/SVG/1.1/DTD/svg11.dtd">
<svg version="1.1" xmlns="http://www.w3.org/2000/svg" xmlns:xlink="http://www.w3.org/1999/xlink" x="0px" y="0px" width="135px"
	 height="135px" viewBox="0 0 135 135" enable-background="new 0 0 135 135" xml:space="preserve">
<g id="Layer_1">
</g>
<g id="Layer_4">
	<g>
		<path fill="#FFFFFF" d="M62.167,94.057l-11.27-8.002c-0.73-0.519-1.642-0.28-2.027,0.532c0,0-1.598,3.38,0.805,6.391
			c3.985,4.998,12.261,2.494,12.261,2.494C62.795,95.212,62.899,94.574,62.167,94.057z"/>
		<path fill="#FFFFFF" d="M84.008,86.055l-11.271,8.002c-0.731,0.518-0.626,1.155,0.232,1.415c0,0,8.273,2.504,12.262-2.494
			c2.403-3.011,0.802-6.391,0.802-6.391C85.651,85.774,84.739,85.536,84.008,86.055z"/>
		<path fill="#FFFFFF" d="M67.5,0C30.221,0,0,30.221,0,67.5S30.221,135,67.5,135S135,104.779,135,67.5S104.779,0,67.5,0z
			 M97.246,99.578c0,1.793-1.467,3.261-3.261,3.261H40.921c-1.794,0-3.262-1.468-3.262-3.261v-17.57c0-1.793,1.467-3.26,3.262-3.26
			h53.064c1.794,0,3.261,1.467,3.261,3.26V99.578z M114.033,68.198c0,2.69-2.202,4.892-4.891,4.892H25.764
			c-2.691,0-4.892-2.201-4.892-4.892v-0.457c0-2.691,2.201-4.893,4.892-4.893H43.31c1.038-10.056,3.988-31.413,10.334-31.413
			c8.287,0,9.294,11.416,13.809,11.452c4.517-0.037,5.524-11.452,13.811-11.452c6.346,0,9.295,21.357,10.333,31.413h17.547
			c2.688,0,4.891,2.202,4.891,4.893V68.198z"/>
	</g>
</g>
</svg>
