<?xml version="1.0" standalone="no"?>
<!DOCTYPE svg PUBLIC "-//W3C//DTD SVG 1.1//EN" "http://www.w3.org/Graphics/SVG/1.1/DTD/svg11.dtd" >
<svg xmlns="http://www.w3.org/2000/svg">
<metadata></metadata>
<defs>
<font id="peaches_and_cream_regularRg" horiz-adv-x="587" >
<font-face units-per-em="2048" ascent="1536" descent="-512" />
<missing-glyph horiz-adv-x="245" />
<glyph unicode="&#xfb01;" horiz-adv-x="600" d="M-35.5 -343q-4.5 57 17.5 161q11 50 30 252q-28 17 -25 67.5t40 102.5l6 63q3 41 6.5 108t6 107t7 93.5t10.5 99.5q24 178 94 250t154 32q53 -26 64 -84t-24.5 -183.5t-129.5 -334.5q107 68 215 103q18 4 27 2q48 6 96 -39l-9 -27q-9 -27 -21.5 -82t-16.5 -112 q-14 -149 45 -156q34 -5 61 30t41 78q2 6 12 -1q20 -14 1 -56q-25 -57 -86.5 -102t-126.5 -31q-38 9 -63.5 50.5t-35 99t-8 120t14.5 117.5q5 18 8 25q-89 -44 -180 -107v-10q-25 -380 -37 -488q-9 -97 4 -225q-4 -3 -11 -7t-27.5 -12t-39 -12t-41 0t-39.5 19 q-35 32 -39.5 89zM203 430q187 462 88 512q-40 18 -55 -55q-9 -43 -17 -187zM397 715q4 41 41.5 68.5t83.5 27.5q45 0 74.5 -27t26.5 -69q-4 -40 -58 -80.5t-82 -40.5q-27 0 -58 39.5t-28 81.5z" />
<glyph unicode="&#xfb02;" horiz-adv-x="647" d="M-27.5 -337q-4.5 57 17.5 161q9 50 18 123q-19 7 -26.5 28t2.5 54.5t39 68.5q3 37 8.5 109t7.5 102q4 50 9.5 136.5t10.5 149.5t13 122q24 178 93.5 250t151.5 32q72 -35 52.5 -201.5t-133.5 -488.5l114 97q9 104 23.5 191t32.5 150.5t39 111.5t43.5 77t47.5 43.5 t49.5 14t49.5 -14.5q30 -17 42.5 -58.5t4.5 -101t-49 -140.5t-111 -165q-2 -14 -2 -47q-10 -225 -5.5 -312t32.5 -96q43 -17 80.5 27.5t58.5 108.5q0 4 8.5 -1.5t11.5 -17.5t-8 -41q-39 -87 -108.5 -130t-149.5 -25q-52 10 -80 94.5t-14 265.5v10l-147 -147q-4 -8 -4 -13 q-16 -231 -29 -378q-9 -90 2 -226q-4 -3 -11 -7t-27 -12t-38.5 -12t-41.5 0t-40 19q-33 32 -37.5 89zM201 305q56 177 88 311.5t37 226t-29 105.5q-38 18 -54 -53q-8 -40 -18 -188zM526 578q66 93 94.5 176t24 128.5t-26.5 61.5q-36 24 -57 -57q-23 -85 -35 -309z" />
<glyph unicode="&#xfb03;" horiz-adv-x="983" d="M-33.5 -328q-4.5 58 17.5 160q26 131 49 477q3 43 9 128t11 140t13 115q24 177 93.5 249t151.5 32q50 -25 64 -80.5t-14 -171t-105 -299.5q76 42 141 61q6 121 23 234q24 181 90 262.5t147 42.5q40 -20 54 -84.5t-7 -198.5t-83 -323q121 72 182 82q2 0 5 1t5 1 q54 9 105 -39l-9 -27q-9 -28 -22.5 -83t-18.5 -111q-14 -149 45 -156q35 -5 63 31t40 78q2 6 12 -2q19 -14 0 -58q-26 -56 -86.5 -100.5t-126.5 -30.5q-38 9 -63.5 50.5t-34.5 98.5t-7 120.5t15 117.5l6 25q-67 -35 -143 -90l-45 -121q-15 -290 -25 -404q-12 -98 2 -227 q-4 -3 -11 -7t-27.5 -12t-39 -11.5t-41 1t-39.5 19.5q-35 30 -39.5 88t17.5 162q16 81 29 241q-34 4 -49 32.5t0 72.5t61 86l6 65l6 115q-99 -47 -180 -96q-17 -40 -20 -45q-18 -323 -31 -463q-12 -96 2 -226q-4 -3 -11 -7t-27.5 -12t-39 -11.5t-41 1t-39.5 19.5 q-35 30 -39.5 88zM201 397q91 227 115 364t-25 163q-37 16 -53 -52q-9 -41 -19 -192zM553 373l22 16q47 156 72 287t24.5 207.5t-24.5 89.5q-36 15 -53 -52q-12 -51 -21 -216zM756 717q4 43 41.5 70.5t83.5 27.5q44 0 73 -27.5t25 -70.5q-4 -39 -57.5 -79t-81.5 -40 q-25 0 -56 39.5t-28 79.5z" />
<glyph horiz-adv-x="0" />
<glyph horiz-adv-x="682" />
<glyph unicode=" "  horiz-adv-x="245" />
<glyph unicode="&#x09;" horiz-adv-x="245" />
<glyph unicode="&#xa0;" horiz-adv-x="245" />
<glyph unicode="!" horiz-adv-x="360" d="M76 104q0 43 38 72t85 29t77.5 -31.5t18.5 -73.5q-13 -45 -60.5 -71.5t-80.5 -26.5q-27 0 -53 28.5t-25 73.5zM162.5 365q1.5 29 6.5 113t7 145q6 145 -10 225q4 3 11 7t27 12t38 11.5t40 -1t37 -19.5q36 -35 40.5 -88.5t-29.5 -157.5q-53 -138 -90 -254q-5 -19 -9 -40.5 t-5 -33.5l-1 -12q-14 -8 -34 -1t-27 28q-3 37 -1.5 66z" />
<glyph unicode="&#x22;" horiz-adv-x="382" d="M0 903q3 1 9 3.5t23.5 6.5t33.5 5t36 -3t35 -14q71 -51 10 -213q-45 -123 -92 -160q-12 -10 -27 -6.5t-20 17.5q27 59 27 176q0 90 -35 188zM158 549q7 8 17 23.5t30.5 64.5t27.5 98q10 74 -4 178q10 2 26.5 4t52 -4.5t52.5 -27.5q52 -63 -20 -180q-33 -56 -78 -108.5 t-61 -61.5q-13 -8 -28 -3t-15 17z" />
<glyph unicode="#" horiz-adv-x="1107" d="M61.5 130q0.5 4 2 6t2.5 3q5 5 153 11h14q135 322 177 432q-137 3 -150 10q-8 3 -14 7t-8.5 7.5t-4 6.5t-0.5 6t1.5 5t1.5 4l2 3q10 2 151 10q27 0 45 2q40 112 47 135q37 110 37 207q9 2 22.5 4.5t45 -3t49.5 -25.5q24 -20 21.5 -76.5t-35.5 -124.5l-16 -32t-21.5 -42.5 t-20.5 -38.5l242 4q20 53 45 127q37 110 37 207q9 2 22.5 4.5t45 -3t49.5 -25.5q23 -20 21 -76t-36 -125l-53 -107q103 4 104 4q10 -16 0 -47q-9 -24 -31.5 -32.5t-78.5 -8.5h-39q-149 -296 -201 -407q163 4 180 6q10 -18 -2 -49q-8 -24 -30 -32.5t-80 -8.5h-107 q-82 -175 -100 -258q-3 -18 -5 -33t-2 -20t-1 -5q-26 -7 -46 7.5t-16 44.5q8 67 92 266l-286 8q-88 -188 -105 -268q-3 -18 -5 -33t-2 -20t-1 -5q-25 -7 -45 7.5t-16 44.5q6 55 96 278q-105 3 -119 10q-12 4 -18.5 9.5t-8.5 10t-1.5 8.5zM317 154l289 6q107 252 168 411 l-246 7q-134 -263 -211 -424z" />
<glyph unicode="$" horiz-adv-x="481" d="M18 88q-15 45 4.5 82t55 46.5t74.5 -5.5q31 -16 34.5 -39t-8.5 -38l-12 -15q-31 26 -59.5 19t-30.5 -32q-5 -34 26.5 -56.5t94.5 -22.5h12q0 114 2 188q-83 26 -123 75t-27 107q11 41 52.5 69t103.5 32v108q14 6 37 -4q30 -12 22 -82q-2 -6 -2 -24q39 -4 68 -15.5 t44.5 -26t23 -30.5t7 -29t-6.5 -22q-24 -35 -78 -20q-18 6 -17 9q24 34 11 61t-56 38q-1 -8 -2.5 -48.5t-3.5 -66.5q2 0 5 -1t5 -1q91 -30 129 -79.5t23 -127.5q-11 -55 -60.5 -93.5t-123.5 -47.5q-4 -36 -4 -47q-1 -9 -8 -13.5t-13.5 -4t-7.5 2.5v60h-16q-56 0 -107.5 23 t-67.5 71zM152 424q0 -32 61 -59q0 7 1 17t1 13q0 13 1 36t1 34q-28 -3 -45.5 -15t-19.5 -26zM244 31q77 12 90 67q8 61 -78 99z" />
<glyph unicode="%" horiz-adv-x="878" d="M63 754q6 109 72.5 178t167.5 69q81 0 131 -61t43 -168q-6 -105 -67 -167t-162 -62q-87 0 -139 59t-46 152zM186 -188q7 55 70.5 211t155.5 377.5t143 375.5q37 110 37 207q9 2 22.5 4.5t45 -3t49.5 -26.5q23 -20 21 -74.5t-34 -123.5q-17 -34 -81.5 -160t-111.5 -220 t-104.5 -213.5t-94 -209t-46.5 -137.5q-4 -18 -6.5 -33.5t-2.5 -21t-1 -5.5q-25 -6 -45.5 8.5t-16.5 43.5zM199 770q-7 -94 12.5 -144.5t56.5 -50.5q31 0 53 49t31 130q10 99 -6.5 157t-52.5 58q-37 0 -62.5 -56.5t-31.5 -142.5zM401 -49q6 108 73 178t167 70 q81 0 131 -62.5t43 -167.5q-6 -105 -67 -167t-162 -62q-87 0 -139 58.5t-46 152.5zM537 -35q-7 -93 12.5 -142.5t56.5 -49.5q31 0 53 47.5t31 128.5q10 99 -6.5 157t-52.5 58t-62 -57t-32 -142z" />
<glyph unicode="&#x26;" horiz-adv-x="739" d="M-51 209q10 78 84.5 124.5t199.5 74.5q-96 11 -161.5 49t-69.5 98q-6 89 105 159t268 74q108 2 179 -30.5t71 -93.5q0 -56 -46 -99.5t-103 -59t-93 0.5q-19 9 -26 24.5t-3 30.5t10.5 29t13.5 22l7 9q30 -30 76.5 -35.5t81.5 14t35 55.5q0 46 -58.5 70.5t-152.5 19.5 q-95 -5 -154.5 -47t-56.5 -108q0 -71 63 -121t152 -37q8 2 9.5 -3.5t-0.5 -12.5l-3 -6h-2q-3 -7 -13 -7q-52 -6 -88.5 -15t-74.5 -27.5t-61 -51.5t-29 -80q-10 -88 51 -137t153 -41q90 6 143 63t54 160h-31q-99 0 -102 -43q-4 -20 16 -35t47 -20q4 0 0 -7q-9 -14 -39 -5 q-39 11 -64.5 47.5t-21.5 81.5q5 47 83 71.5t214 18.5q44 -2 69 -22.5t24.5 -47t-19.5 -53.5q-1 -1 -20 1t-57 5.5t-72 5.5q-12 -216 -228 -258q-71 -17 -138.5 -9t-119.5 31.5t-80.5 69t-21.5 103.5z" />
<glyph unicode="'" horiz-adv-x="212" d="M37 903q3 1 9 3.5t23.5 6.5t33.5 5t36 -3t35 -14q71 -51 10 -213q-45 -123 -92 -160q-12 -10 -27 -6.5t-20 17.5q27 59 27 176q0 90 -35 188z" />
<glyph unicode="(" horiz-adv-x="833" d="M2 244q4 143 39.5 281.5t100 259t151.5 215t201 154t241 71.5q40 4 37 -12q-4 -16 -36 -32q-11 -6 -19 -7q-144 -16 -261 -147.5t-182.5 -327.5t-72.5 -416q-5 -200 24 -364t91 -283t163 -178t232 -44q29 4 42 -15q13 -18 -12 -28q-8 -3 -18 -4q-97 -14 -189 1.5 t-174 59.5t-150 119.5t-116 175t-72.5 233t-19.5 288.5z" />
<glyph unicode=")" horiz-adv-x="833" d="M0 -628q3 15 32 32q14 7 23 8q145 16 262 147.5t181.5 327.5t70.5 416q9 268 -43 468t-171.5 309.5t-293.5 88.5q-31 -3 -43 18q-11 19 16 29q6 2 15 3q97 14 189 -1.5t174 -59.5t150 -119.5t116 -175t72.5 -233t19.5 -288.5q-5 -181 -60 -351t-148.5 -305t-230.5 -223 t-296 -102q-36 -4 -35 11z" />
<glyph unicode="*" horiz-adv-x="651" d="M38 661q1 10 5 19q26 63 127 31q41 -13 80 -38.5t61 -51.5l-14 118q-10 82 -33 115q0 2 7.5 8.5t22.5 12.5t32 4q65 -6 65 -111q3 -83 -39 -164q19 7 62 27.5t55 25.5q34 14 63.5 35t36.5 33l9 -5q9 -6 19.5 -18.5t14.5 -27.5q10 -67 -86 -99q-82 -29 -164 -12 q14 -16 46.5 -50.5t35.5 -37.5q26 -27 54.5 -49t40.5 -25q-2 -37 -35 -55q-56 -37 -119 49q-30 38 -46.5 85t-16.5 79q-16 -27 -62 -110q-19 -31 -31 -65t-12 -48q-36 -9 -63 16q-50 47 10 129q49 69 123 105l-119 24q-77 15 -121 4l-2 4q-2 4 -3.5 10.5t-3 14.5t-0.5 18z " />
<glyph unicode="+" horiz-adv-x="432" d="M41 279h3q2 0 10 1t22 1.5t41.5 2t64.5 3.5q-8 108 -14 151q18 10 49 0q23 -9 31 -31t8 -79q0 -25 -2 -37q60 4 137 14q10 -18 -2 -49q-8 -23 -30 -31t-80 -8h-29q-7 -80 -17 -104q-3 -7 -6 -12.5t-6 -8.5t-6 -4.5t-5.5 -2t-5 0t-4 1.5t-3.5 2l-2 1q-3 10 -9 131 q-87 7 -120 19q-37 15 -25 39z" />
<glyph unicode="," horiz-adv-x="356" d="M76 113q3 42 38.5 67t82.5 25q59 0 84.5 -45.5t3.5 -112.5q-21 -72 -86 -120t-99 -36q-23 7 -16 18q2 3 4 3q47 18 68 42t15 45t-34 34q-66 30 -61 80z" />
<glyph unicode="-" horiz-adv-x="444" d="M29 279h1q28 3 152 8q86 6 197 18q10 -18 -2 -49q-7 -23 -29.5 -31t-81.5 -8q-51 0 -121 7.5t-92 15.5q-36 14 -24 39z" />
<glyph unicode="." horiz-adv-x="348" d="M74 104q0 42 39 71.5t86 29.5q46 0 77 -31.5t19 -73.5q-13 -45 -61 -71.5t-80 -26.5q-28 0 -54 28t-26 74z" />
<glyph unicode="/" horiz-adv-x="436" d="M2 -186q7 54 70.5 210.5t155.5 378t143 375.5q37 110 37 207q8 2 22 4.5t45 -3t49 -25.5q24 -20 21.5 -76.5t-35.5 -124.5q-20 -41 -105 -207.5t-143 -284.5t-117.5 -253t-72.5 -195q-2 -12 -3.5 -22.5t-2.5 -16.5t-1.5 -10.5t-0.5 -6.5t-1 -2q-25 -7 -45 7.5t-16 44.5z " />
<glyph unicode="0" horiz-adv-x="616" d="M2 246q7 144 102.5 230.5t219.5 86.5q95 0 167 -74.5t64 -214.5q-9 -143 -100 -229t-213 -86q-102 0 -175.5 80.5t-64.5 206.5zM152 266q-10 -128 24 -196t86 -68q47 0 87.5 68.5t53.5 175.5q13 131 -14 202.5t-82 71.5t-100.5 -70.5t-54.5 -183.5z" />
<glyph unicode="1" horiz-adv-x="296" d="M14 430l4 16q30 5 66 30.5t56.5 47t35.5 39.5q12 15 40 9t30 -17q0 -1 -7 -25.5t-16.5 -84t-13.5 -130.5q-4 -88 -5 -194t-3 -125q-86 -10 -123 6q-55 25 -35 135q5 27 14 58.5t26 77.5t25 68t33 83.5t29 71.5q-3 -6 -9 -16t-23 -34t-32.5 -42t-33.5 -30t-31 -7 q-19 7 -25 27t-2 36z" />
<glyph unicode="2" d="M-10.5 369.5q-2.5 32.5 11.5 67t43.5 63t86 47t131.5 18.5q77 0 129 -17t74.5 -45t26 -64.5t-10.5 -73.5t-41 -74q-77 -100 -176 -193q69 -39 117.5 -36t76.5 32.5t46 87.5q2 5 11 -1q20 -14 1 -58q-35 -78 -100 -117.5t-137 -28.5q-73 14 -123 37q-62 -43 -95 -43 q-31 0 -42.5 36.5t10.5 82.5q23 43 71.5 56t106.5 -15q42 42 84 102q41 57 54.5 112.5t2 94.5t-43 63t-75.5 23q-52 -1 -84 -29t-34.5 -66.5t12.5 -78.5q9 -19 20 -32t18 -16l7 -3q-5 -3 -13 -8t-30 -13.5t-42 -10.5t-42 7.5t-35 34.5q-14 26 -16.5 58.5z" />
<glyph unicode="3" horiz-adv-x="561" d="M-60.5 -27.5q1.5 30.5 19.5 52.5q19 24 44 36.5t44.5 14t41 -3t29.5 -7.5t13 -6l-3 -2q-4 -2 -8.5 -5.5t-10 -8.5t-12 -14.5t-11.5 -20.5q-32 -69 -5.5 -121t97.5 -53q56 -2 92 41.5t43 124.5q6 81 -29 119t-124 39q-16 -2 -47 -2q-4 0 -8 13.5t2 26t26 9.5 q103 -19 172 45q64 57 70 147q3 61 -30 95.5t-101 33.5q-52 -1 -82.5 -29.5t-32 -67t13.5 -77.5q9 -19 20 -32t18 -16l7 -3q-4 -3 -10.5 -7.5t-26 -13t-37 -10.5t-39 7.5t-36.5 33.5q-17 26 -17.5 60t17 67.5t47.5 62t79.5 46.5t108.5 18q108 0 164.5 -39t61.5 -102 q4 -80 -48 -137.5t-139 -91.5q87 -15 135.5 -58.5t43.5 -101.5q-10 -95 -103 -167.5t-229 -72.5q-50 0 -93.5 16.5t-70.5 43t-42.5 57t-14 61z" />
<glyph unicode="4" horiz-adv-x="505" d="M-35 63q2 33 35 54.5t78 15.5q1 0 4.5 -1t5.5 -1q0 4 2 6q31 75 44.5 158t10 143.5t-17.5 93.5q0 1 4 4t11.5 6.5t17 7t21.5 5.5t24 2t25 -3.5t24 -10.5q29 -17 31 -59t-15 -95q-47 -157 -120 -266q11 -1 55 -7t67 -7q23 60 43 102q17 36 36 50t30 11t14 -10l-2 -4 q-2 -5 -6 -15.5t-8.5 -27t-9.5 -45t-9 -64.5q71 6 80 39q1 0 7 2t13.5 -7.5t8.5 -28.5q1 -43 -31.5 -74t-85.5 -37q-5 -35 -2 -80t3.5 -55t6.5 -38l5 -28q-66 -14 -103 2q-30 13 -40 42.5t-1 97.5q1 11 15 63q-85 16 -146 45q-38 -38 -67 -41q-24 -3 -42.5 12.5t-15.5 42.5z " />
<glyph unicode="5" horiz-adv-x="567" d="M-49.5 -27.5q2.5 30.5 20.5 52.5q19 24 44 36.5t44.5 14t41 -3t29.5 -7.5t13 -6l-3 -2q-4 -2 -8.5 -5.5t-10 -8.5t-12 -14.5t-11.5 -20.5q-33 -69 -12.5 -121t90.5 -53q56 -2 95 52.5t42 138.5q3 90 -51.5 141t-155.5 45q-21 -48 -53 -37q-22 6 -21 33.5t27 34.5 q5 0 17 4q11 48 14 125v123q-74 44 -57 86q13 25 42 32.5t54.5 -9t28.5 -52.5v-14q74 -12 100 -13q63 -7 120.5 8.5t72.5 36.5q2 -1 5 -3.5t9.5 -12t10.5 -20.5t3.5 -28.5t-8.5 -37.5q-41 -109 -295 -14q-13 3 -20 8l-6 -60q-10 -79 -29 -147q106 13 190 0.5t134.5 -63.5 t46.5 -132q-8 -112 -99.5 -188t-232.5 -76q-50 0 -92 16.5t-67.5 43t-39 57t-11 61z" />
<glyph unicode="6" horiz-adv-x="593" d="M2 369q11 165 101.5 288.5t230.5 135.5q106 7 167 -65.5t23 -141.5q-18 -33 -65 -41.5t-85 -0.5l-38 7q4 1 10 4.5t19 18.5t18 36q19 60 -2 104t-64 38q-48 -6 -83.5 -76t-55.5 -182q84 14 147.5 4t108 -32.5t72 -57t39.5 -71.5t10 -75q-3 -87 -48.5 -156.5t-118 -105 t-152.5 -27.5q-125 12 -184 119.5t-50 276.5zM168 401q-12 -163 14 -273t74 -116q51 -6 96 60t49 155q5 107 -54.5 167.5t-174.5 56.5q-4 -32 -4 -50z" />
<glyph unicode="7" horiz-adv-x="518" d="M2 508q3 41 38.5 66t96.5 24q111 -7 236 -80q46 33 65 39q34 9 58.5 -8t17.5 -51q-5 -29 -32.5 -46t-73.5 -16q-7 0 -43 4q-78 -95 -123 -267t-43 -353q0 -2 -21.5 -8t-54.5 -5t-57 17q-27 20 -28.5 61.5t15.5 94.5q36 122 105.5 250.5t144.5 218.5q-51 6 -139 22 q-57 11 -85 -2t-32 -37q-2 -3 -14.5 2t-23.5 24.5t-7 49.5z" />
<glyph unicode="8" horiz-adv-x="526" d="M-16 147q7 102 225 256q-42 47 -61.5 71.5t-37 58.5t-20.5 67q-6 76 60 125.5t169 46.5q71 -1 113.5 -36.5t42.5 -88.5q-1 -53 -35 -101t-98 -104q92 -81 128 -145t30 -133q-6 -56 -34.5 -98t-72.5 -65.5t-96 -33.5t-109 -8q-97 5 -152.5 54t-51.5 134zM82 162 q-5 -64 30 -109.5t95 -48.5q51 -2 94 32t47 91q6 108 -104 238q-78 -61 -118.5 -108t-43.5 -95zM203 647q0 -37 28 -83t70 -85q77 77 80 154q2 48 -18.5 75.5t-61.5 28.5q-46 1 -72 -23t-26 -67z" />
<glyph unicode="9" horiz-adv-x="600" d="M0 17.5q1 28.5 14 54.5q15 27 41.5 40.5t51.5 14t51.5 -4.5t39 -9.5t17.5 -6.5l-5 -2q-4 -3 -9 -6.5t-11 -9.5t-11.5 -16t-8.5 -21q-16 -54 -5 -98t46 -47q42 -2 85 79t64 218q-148 -20 -246 35t-104 159q-4 71 26.5 138t101 112.5t165.5 38.5q123 -8 183.5 -96.5 t50.5 -249.5q-7 -124 -49.5 -228.5t-119.5 -172t-173 -72.5q-43 -2 -80 10.5t-61 34t-39.5 49.5t-14.5 56.5zM152 432q3 -95 59.5 -143t155.5 -45l6 61q12 139 -14 237.5t-76 104.5q-55 6 -94.5 -52t-36.5 -163z" />
<glyph unicode=":" horiz-adv-x="307" d="M74 104q1 43 40 72t85 29t77 -31.5t19 -73.5q-13 -45 -60.5 -71.5t-80.5 -26.5q-27 0 -53.5 28.5t-26.5 73.5zM82 408q1 44 40 73t85 29t77.5 -33t18.5 -74q-13 -44 -60.5 -71t-80.5 -27q-27 0 -53.5 29t-26.5 74z" />
<glyph unicode=";" horiz-adv-x="305" d="M76 113q3 42 38.5 67t82.5 25q59 0 84.5 -45.5t3.5 -112.5q-21 -72 -86 -120t-99 -36q-23 7 -16 18q2 3 4 3q47 18 68 42t15 45t-34 34q-66 30 -61 80zM80 408q1 44 39.5 73t85.5 29t77.5 -32.5t18.5 -74.5q-13 -44 -60.5 -71t-80.5 -27q-27 0 -53.5 29t-26.5 74z" />
<glyph unicode="&#x3c;" horiz-adv-x="428" d="M63 293v2l7 6l2 2l112 86q79 59 154 123q17 -10 27 -41q6 -25 -8.5 -44t-61.5 -50q-39 -28 -97 -58t-87 -40l84 -74q47 -43 77 -68.5t48 -39.5t24 -19q-4 -21 -35 -35q-22 -11 -43.5 -0.5t-62.5 51.5q-37 37 -80.5 92t-52.5 76q-11 19 -7 31z" />
<glyph unicode="=" horiz-adv-x="364" d="M0 270.5q2 4.5 6 8.5h1q26 2 151 4q74 1 196 8q10 -18 -2 -49q-9 -22 -31.5 -29t-78.5 -6q-55 3 -124.5 13.5t-90.5 19.5q-18 7 -23.5 16.5t-3.5 14zM6 384q2 5 4 7q2 3 154 12q63 3 100 6t65 7t29 4q10 -18 0 -49q-8 -24 -30 -32.5t-80 -8.5q-54 0 -123 7.5t-92 16.5 q-17 7 -23 16t-4 14z" />
<glyph unicode="&#x3e;" horiz-adv-x="428" d="M63 70q-6 25 8.5 44t61.5 50q42 28 98.5 58.5t83.5 39.5l-82 74q-47 43 -77 68.5t-48 39.5t-24 19q4 21 35 35q22 10 43.5 -0.5t62.5 -51.5q38 -38 81 -92t52 -75q10 -23 7 -31v-2q-3 -2 -3 -4q-1 0 -2 -1t-2 -1q-12 -12 -114 -88q-79 -59 -154 -123q-19 10 -27 41z" />
<glyph unicode="?" horiz-adv-x="534" d="M24.5 674q-2.5 32 11.5 67t43.5 63.5t86 47t131.5 18.5q119 0 179.5 -43t55.5 -108q-6 -72 -60.5 -139t-162.5 -144q-57 -41 -83 -79.5t-23 -90.5q1 -8 -22 -9q-40 -3 -47 25q-2 7 -1 15q5 34 49 89t146 165q76 91 73 166q-1 52 -38 83t-99 31q-39 -1 -66 -17.5t-37 -42 t-8.5 -56t15.5 -60.5q8 -19 19.5 -31.5t18.5 -15.5l7 -2q-5 -3 -14 -8t-33 -14t-44.5 -11t-44 8t-36.5 35q-14 26 -16.5 58zM78 104q1 42 40.5 71.5t86.5 29.5q45 0 76 -32t18 -73q-13 -45 -60.5 -71.5t-80.5 -26.5q-27 0 -53.5 28.5t-26.5 73.5z" />
<glyph unicode="@" horiz-adv-x="1544" d="M39 252q11 145 61 267.5t126.5 208.5t176.5 148.5t209 95t226 40.5q162 9 294.5 -31t215 -114.5t123.5 -174.5t32 -211q-7 -116 -52.5 -213.5t-112 -157.5t-147.5 -85.5t-159 -6.5q-59 16 -115 61.5t-79 127.5q-35 -98 -96.5 -154t-125.5 -49q-58 7 -96.5 73.5 t-17.5 170.5q13 64 43.5 114.5t69.5 79.5t84 43.5t88.5 12.5t80.5 -19q32 36 75 34.5t79 -36.5l-7 -23q-7 -24 -19.5 -79.5t-20.5 -120.5q-8 -79 29 -124.5t92 -45.5q81 0 143 89t78 261q23 246 -115.5 382.5t-382.5 127.5q-155 -6 -282.5 -92.5t-204.5 -230.5t-94 -322 q-11 -134 17 -246t83.5 -185.5t131.5 -122.5t159 -68t166 -11q66 5 112.5 19.5t78 32.5t32.5 18q3 1 7 -4.5t6 -14t-1 -18.5q-4 -17 -22 -33t-77 -36t-153 -31q-110 -11 -221 12t-207.5 78.5t-169.5 135.5t-111.5 191t-29.5 236zM646.5 181.5q5.5 -42.5 21 -65t34.5 -22.5 q39 0 76.5 69.5t46.5 164.5q0 28 6 63q3 28 13 51q-56 15 -111 -25.5t-78 -131.5q-14 -61 -8.5 -103.5z" />
<glyph unicode="A" horiz-adv-x="1239" d="M9 -198q-10 31 -10 63q0 61 36 129q36 69 90 123.5t108 84.5q53 30 103 44q41 12 73 13q7 0 13 -1q26 -3 42 -17t19.5 -32t2.5 -36t-5 -30t-6 -12q-39 5 -76 5q-82 0 -151 -24q-101 -36 -156 -126q-30 -49 -32 -105v-8q0 -51 24 -90q26 -42 74 -51q10 -2 19 -1 q83 -1 181 113q110 128 191 349q210 587 420 679q-7 53 -31 80q5 3 13 7t31.5 12.5t45.5 12.5q11 2 22 2q12 0 24 -2q26 -4 44 -19q50 -43 50 -143q0 -97 -42 -308q-37 -180 -47 -328q32 12 68 35q2 -1 4.5 -4t8.5 -12.5t9 -19.5t2.5 -26.5t-6.5 -33.5q-16 -51 -88 -74 q5 -117 34.5 -175.5t64.5 -63.5q4 -1 9 0q28 0 52 27q28 32 41 73q2 3 10 -1q7 -5 10 -17q1 -3 1 -6q0 -13 -9 -35q-26 -55 -92 -101q-50 -36 -100 -36q-15 0 -31 3q-122 30 -135 316q-191 4 -277 41q-90 -214 -231 -315q-108 -77 -219 -77q-34 0 -68 7q-99 22 -128 111z M690 162h240q0 79 14 233q27 315 27 406v12q-128 -99 -258 -575z" />
<glyph unicode="B" horiz-adv-x="1521" d="M4 16q-5 25 -5 49q-1 33 9 63q16 51 51 84.5t82 57t97 33.5q48 10 94 10q2 -1 4 -1q48 0 84 -11q15 -4 23 -13.5t8.5 -20t-1.5 -20t-5 -15.5l-3 -7q-42 6 -81 6q-49 0 -95 -9q-82 -16 -134 -62q-50 -43 -51 -106q0 -4 1 -7q3 -95 134.5 -171t328.5 -101q79 -10 153 -10 q66 0 128 8q130 17 228.5 58.5t159.5 107t70 143.5q2 16 2 31q0 43 -14 79q-20 48 -58 78.5t-92 49.5q-53 20 -111 26q-36 4 -73 4q-23 0 -47 -2q-61 -8 -94 -10q-1 2 -2.5 6t-3.5 14t-0.5 18t9 15t21.5 8q84 6 160 43.5t127 106.5t53 153v7q0 115 -92 177q-80 53 -230 54 q-28 0 -59 -2q-248 -17 -391 -120q-80 -58 -87 -111q-3 -23 11 -37q8 -8 -10 -19q-13 -9 -28 -9q-21 0 -44 17q-7 6 -14 13q-13 24 -19 62q-1 5 -1 10q1 35 37 77q42 48 104 90.5t185.5 74.5t281.5 40q42 2 81 2q128 0 224 -20q124 -26 191 -98q61 -65 61 -165v-18 q-6 -103 -73 -183.5t-181 -131.5q184 0 282 -63q95 -61 95 -198v-8q-3 -142 -127.5 -249.5t-346.5 -157.5q-146 -32 -313 -32q-88 0 -182 9q-90 8 -173 29.5t-155.5 57.5t-121.5 92t-62 124zM558 -90v5q0 25 4 73q4 54 11 120.5t17.5 206t19.5 303.5q4 55 4 106q0 63 -6 120 q4 3 12 7t30 12t42 12q10 2 21 2t23 -2q24 -4 42 -19q34 -31 38 -89q1 -11 1 -23q0 -54 -16 -138q-24 -125 -52.5 -260.5t-40 -193t-20.5 -124t-10 -128.5q0 -26 2 -47t3.5 -28.5t0.5 -8.5q-22 -12 -45 -12q-13 0 -27 4q-36 12 -47 53q-7 24 -7 49z" />
<glyph unicode="C" horiz-adv-x="657" d="M2 291q3 158 42 288.5t103.5 219t150 147.5t181.5 82q69 17 141 17q28 0 56 -3q108 -10 167 -82q45 -55 45 -124q0 -22 -5 -45q-15 -86 -65 -147q-50 -62 -116 -87q-60 -23 -125 -23h-13q-72 2 -130 35q-14 8 -19 30.5t-1.5 49t8.5 51.5t10 42l6 16q64 -50 128 -74 q54 -20 97 -19q9 1 17 1q50 4 85.5 30t47.5 70q8 29 8 54q1 51 -31 93q-48 62 -145 66q-12 1 -23 1q-56 0 -108 -16q-62 -20 -116 -68t-95.5 -121t-68 -181t-33.5 -242q-1 -27 -1 -54q0 -103 18 -191q24 -110 70.5 -183.5t107 -119t134.5 -64.5q51 -13 102 -12q66 0 135 20 q122 37 214 129q18 16 28 11t13 -19l4 -14q-135 -131 -285 -185q-104 -37 -202 -37q-44 0 -88 7q-199 35 -327 210q-122 167 -122 417v24z" />
<glyph unicode="D" horiz-adv-x="1507" d="M8 -113q-8 13 -8 26q0 17 14 34q25 29 57.5 33.5t45.5 -9.5q28 -58 119.5 -106.5t244.5 -65.5q65 -7 125 -6q92 0 173 15q134 26 225 85t153.5 147.5t92 192.5t32.5 224v11q0 232 -162 358q-147 114 -387 114q-32 0 -65 -2q-248 -17 -391 -120q-80 -58 -87 -111 q-3 -23 11 -37q8 -8 -10 -19q-15 -9 -30 -9q-20 0 -42 16q-8 6 -15 14q-14 24 -20 62q-1 5 0 11q0 34 36 76q42 48 104 90.5t185.5 74.5t282.5 40q45 2 88 2q324 0 508 -122q195 -129 196 -392q0 -16 -1 -33q-7 -139 -54.5 -262t-135.5 -222.5t-208.5 -168t-282.5 -98.5 q-111 -21 -234 -21q-56 0 -115 4q-360 26 -445 174zM446 -63q0 23 4 67q4 50 11 113t17.5 199.5t19.5 301.5q3 53 3 102q0 65 -5 124q4 3 12 7t30 12t42 12q10 2 21 2t23 -2q24 -4 42 -19q33 -32 37 -89q1 -9 1 -19q0 -54 -18 -142q-25 -132 -51.5 -258t-39 -182t-21 -118.5 t-9.5 -123.5q0 -26 2 -48.5t3 -26.5t-1 -9q-22 -12 -44 -12q-13 0 -27 4q-36 12 -45 53q-7 26 -7 52z" />
<glyph unicode="E" horiz-adv-x="966" d="M-4 649q-1 14 -1 28q-1 125 87 237q98 124 273.5 203.5t394.5 103.5q66 7 125 7q153 0 251 -46q127 -59 127 -177v-14q-4 -65 -43.5 -126t-99.5 -103q-58 -42 -130 -70q-70 -28 -138 -29l-2 1q-68 0 -125 24q-45 22 -61 52.5t-7.5 58t24 52t31.5 39.5l15 15 q81 -60 169 -78q43 -9 80 -8q40 0 74 9q66 19 110.5 60t47.5 91v10q0 99 -120 143q-79 29 -195 30q-69 0 -152 -11q-139 -17 -261.5 -77t-199.5 -156q-75 -94 -75 -199v-6q3 -124 89 -220t218 -138q88 -28 181 -28q46 0 93 7q14 2 20 -3t4.5 -14.5t-5 -19t-7.5 -16.5l-4 -7 q-2 0 -4.5 -1t-3.5 -1q-10 -10 -24 -10q-85 -11 -159.5 -34.5t-138.5 -62t-105.5 -97t-51.5 -131.5q-3 -20 -3 -38q0 -104 82 -175q92 -80 239 -80q12 0 24 1q214 10 421 173q50 39 97 86q18 16 27.5 10.5t12.5 -19.5l3 -14q-226 -223 -503 -296q-110 -29 -207 -29 q-102 0 -190 32q-146 53 -190 176q-17 45 -17 95q0 20 3 41q17 129 121 221.5t279 146.5q-211 25 -350.5 128t-149.5 253z" />
<glyph unicode="F" horiz-adv-x="849" d="M-90 990q21 33 61 57q23 15 44 16h6q17 0 25 -5q10 -6 5 -9q-71 -53 -71 -87q0 -17 18 -29q35 -23 135 -23q47 0 109 5q136 11 483.5 52.5t564.5 54.5q28 2 53 2q69 0 113 -13q58 -17 82 -63q7 -20 7 -38q-1 -18 -7 -35q-12 -34 -34 -57l-21 -23q-106 29 -236 41 q-115 12 -229 16q-51 2 -103 2q-65 0 -133 -3q-122 -5 -190.5 -8.5t-198 -15t-149.5 -12.5q-44 -3 -82 -3q-185 0 -247 68q-23 26 -23 55q0 26 18 55zM235 194q-2 10 -2 18t2 14q4 12 9 10q32 -14 80 -17q83 384 88 490q1 25 -0.5 45t-3 27t-0.5 7q21 11 43 11q13 1 25 -3 q34 -10 44 -48q3 -15 3.5 -40.5t-2 -55.5t-7.5 -79t-10.5 -95t-14.5 -121t-16 -140q27 0 41 2q131 7 203 57q2 -2 5 -6.5t10 -18t11 -27t4 -32.5t-8 -36q-18 -41 -64 -59q-44 -17 -89 -17h-5q-48 1 -122 12q-3 -34 -17 -192q-4 -40 -4 -90q0 -61 6 -138q-4 -2 -11.5 -5.5 t-28.5 -10.5q-22 -7 -42 -10q-10 -2 -21 -2t-24 2q-25 3 -45 16q-36 25 -36 103q0 59 20 147q8 42 26 120.5t21 94.5q-30 12 -47 29q-17 18 -21 38z" />
<glyph unicode="G" horiz-adv-x="882" d="M8 164q-8 47 -8 102q0 81 18 178q32 174 122 312.5t228 216.5q125 70 265 70q17 0 33 -1q121 -6 174 -73q43 -55 43 -131q0 -16 -2 -33q-11 -79 -55 -135.5t-102 -79.5q-53 -22 -113 -22h-10q-65 2 -120 32q-14 8 -18.5 28.5t-1.5 45t8.5 48t10.5 38.5l5 16 q54 -60 111 -88q48 -22 87 -22q8 0 17 1q45 6 79.5 37.5t47.5 83.5q5 20 5 39q0 53 -38 94q-51 56 -155 62h-13q-68 0 -131 -39q-69 -42 -120.5 -116.5t-90 -165.5t-59.5 -191q-32 -150 -32 -254q0 -125 46 -184q33 -43 82 -43q29 0 63 15q5 2 11 5q150 75 260 379 q13 63 45 94q29 27 63 27h9q39 -4 74 -37l-10 -23q-9 -23 -23.5 -78.5t-21.5 -121.5q-22 -198 -37 -289q193 -3 311 -94q2 -2 2 -4q0 -4 -5 -10q-17 -19 -56 4q-97 55 -239 55h-19l-9 -49q-56 -374 -205 -485q-52 -39 -106 -39q-36 0 -72 18q-67 32 -95 102q-3 7 -5 15 q-9 32 -9 65q0 81 53 169q76 126 243 210q24 12 51 21l6 45q10 122 23 223q-106 -204 -244 -273q-61 -29 -119 -29q-21 0 -40 3q-78 14 -134 77t-78 179zM311 -451q5 -37 30 -59.5t57 -24.5h4q29 0 62 25q34 26 56 78q37 95 70 323q-29 -6 -45 -16q-107 -52 -176 -152 q-60 -86 -60 -153q0 -11 2 -21z" />
<glyph unicode="H" horiz-adv-x="1286" d="M-98 -260q0 48 12 98q43 156 167 253q99 78 206 78q26 0 53 -5q34 -6 54 -25.5t25 -44t3.5 -47.5t-6 -39t-6.5 -16q-69 13 -129 13q-82 -1 -147 -25q-113 -42 -150 -146q-15 -49 -15 -92q0 -34 10 -66q22 -70 85 -110q51 -33 113 -32q14 0 28 1q317 41 317 1016 q0 69 -2 143q-4 163 -14 240q4 3 12 7t29.5 13t41.5 13t44 0t41 -19q18 -15 27.5 -38t13 -54t3.5 -73t-1 -95q-6 -296 -47 -524q65 -4 157 -4q61 0 134 2l8 227q9 150 9 257q0 36 -1 66q-4 124 -9.5 162t-17.5 72q5 3 13 7.5t31 14.5q22 9 44 14q13 3 29 3q9 0 19 -1 q26 -3 44 -17q48 -38 50 -138v-11q0 -100 -35 -304q-30 -202 -39 -334q46 13 88 43l4.5 -4.5t8 -12.5t9 -20.5t4 -27t-5.5 -33.5q-22 -60 -114 -80q0 -266 96 -270h5q50 1 102 55q55 58 71 107q0 5 9 -1q12 -7 12 -24q0 -14 -9 -35q-30 -68 -98 -127t-149 -59 q-89 0 -129.5 80.5t-46.5 265.5q-246 9 -304 57q-1 0 -2 1t-2 1q-62 -287 -183.5 -441.5t-291.5 -160.5h-12q-56 0 -104 17q-52 19 -86 53q-33 34 -54 78q-22 46 -22 98z" />
<glyph unicode="I" horiz-adv-x="997" d="M0 -128v8q0 41 19 81q21 44 65 76q22 16 45.5 27t52 14.5t50.5 6t58 -4.5t57 -10.5t64.5 -17.5t62.5 -20.5t70 -24.5t70 -25q49 168 64 432q5 91 5 165q0 154 -20 236q-25 106 -88 106q-10 0 -20 -3q-81 -18 -113 -108q-22 -60 -22 -141q0 -39 6 -83q16 -134 76 -289 q9 -22 9 -40q0 -15 -6 -27q-11 -23 -31 3q-11 14 -21 41q-49 130 -69 248q-14 80 -15 151q-1 33 3 63q10 98 61.5 164t141.5 85q47 10 87 10q41 0 73 -11q63 -21 98 -88t45 -170q6 -58 7 -135q0 -58 -4 -126q-18 -335 -115 -533q156 -42 291 -45v-13q0 -6 -2 -15 q-3 -12 -7 -23.5t-15.5 -19t-28.5 -6.5q-135 11 -275 55q-142 -223 -412 -232h-13q-62 -1 -116 17q-60 20 -99.5 54t-63 78.5t-25.5 89.5zM72 -79v-9q0 -26 8 -54q8 -32 31 -62.5t54.5 -53.5t78.5 -35q40 -10 86 -10h16q164 9 244 219q-35 14 -96.5 39.5t-92.5 38t-78 27.5 t-75 19q-15 2 -32 2q-14 0 -28 -2q-32 -4 -55 -17q-27 -17 -43 -44t-18 -58z" />
<glyph unicode="J" horiz-adv-x="1032" d="M10 -355q20 86 94 148q123 102 349 102q100 0 221 -20q3 0 8 -1t8 -1q67 238 82 541q4 78 4 143q0 110 -12 183q-18 118 -60 156q-30 27 -74 27q-19 0 -40 -5q-58 -14 -113 -62.5t-92.5 -124.5t-52.5 -165q-7 -36 -7 -74q0 -58 15 -122q23 -107 88 -204q20 -28 20 -53 q0 -5 -1 -11q-5 -25 -29 -7q-15 11 -33 38q-60 90 -88 187q-26 90 -26 172q0 7 1 14q2 88 28 170t71.5 144.5t107.5 106t131 58.5q69 13 124 13q31 0 58 -4q75 -12 118.5 -72.5t58.5 -170.5q9 -69 9 -163q0 -57 -3 -123q-18 -341 -123 -615q161 -20 291 -20q37 0 71 2 q1 -3 2 -9v-8v-13q-1 -15 -4.5 -26.5t-13.5 -21t-27 -10.5h-17q-92 0 -327 43q-93 -217 -228.5 -343t-295.5 -130h-15q-96 0 -166 46q-77 51 -105 125q-16 43 -16 89q0 35 9 71zM74 -388q-1 -6 -1 -12q0 -38 13 -76q16 -44 46.5 -77.5t81.5 -52.5q45 -17 99 -17h17 q100 5 190.5 120t153.5 317l-37 6q-118 24 -225 24q-29 0 -56 -2q-132 -8 -202 -67q-37 -31 -57.5 -74.5t-22.5 -88.5z" />
<glyph unicode="K" horiz-adv-x="901" d="M8 268q-8 19 -8 37q0 29 21 57q34 46 106 58q20 165 31 334q4 56 4 108q0 63 -6 121q5 3 12.5 6.5t30 11.5t42.5 11q8 1 17 1q13 -1 27 -3q24 -4 41 -19q36 -32 40 -89q1 -9 0 -19q0 -54 -20 -142q-34 -150 -72 -335q91 -26 187 -103q92 51 165.5 139t115.5 184 q42 98 62 190q18 81 17 146v19q15 10 35 16q26 8 50 9t50 -6.5t42 -29.5q16 -21 24 -59q4 -16 3 -35q0 -28 -7 -63q-28 -184 -167 -332t-335 -225q73 -67 156.5 -165t218.5 -267q67 -83 135 -126q64 -41 113 -42q2 0 5 1q51 2 83.5 51t32.5 140q0 1 6 4.5t15 6t17.5 2.5 t14.5 -8t6 -25q0 -73 -30.5 -129.5t-85 -84.5t-123.5 -28l-2 -1q-68 -1 -152 39q-85 40 -168 116q-76 69 -143 146t-156.5 193t-100.5 130q-54 -11 -127 -14q-34 -180 -79 -455q-4 -25 -6.5 -50t-3.5 -34.5t-3 -9.5q-15 -4 -28 -4q-24 0 -44 12q-31 18 -34 59q-1 12 -1 26 q0 27 4 64q8 56 29 179.5t35 218.5q-70 19 -92 67zM58 316q-1 -4 -1 -7q0 -33 49 -53q8 50 15 113q-57 -15 -63 -53zM242 242q27 2 82 10q-38 43 -66 72q-14 -66 -16 -82z" />
<glyph unicode="L" horiz-adv-x="886" d="M2 -42q-1 7 -1 14q0 20 8 40q11 28 44 50.5t78 31.5q42 8 89 8q52 0 110 -10q57 141 84 451q8 97 30.5 175.5t55 129.5t72.5 86q40 34 86 47q39 11 80 12q6 0 12 -1q46 -2 94 -19q41 -16 70.5 -50.5t41.5 -75.5q10 -34 11 -71q-1 -6 -1 -14q-2 -44 -22 -80 q-16 -32 -50 -46q-24 -10 -49 -9q-9 0 -17 1q-32 5 -52 23l-12 15q30 26 55 82q24 52 24 106q-1 2 -1 6q-2 58 -45 78q-28 11 -54.5 9.5t-51 -28.5t-44 -71t-33.5 -119t-20 -174q-17 -308 -141 -492q172 -52 352 -176q55 -38 100 -66t92 -51.5t83 -34.5q35 -11 68 -11h3 q34 0 57.5 16t39.5 49.5t22 85.5q0 3 12 5q10 3 22 -4q11 -6 11 -23q1 -79 -51 -131q-50 -50 -134 -64q-26 -4 -56 -5q-64 0 -143 20q-116 29 -239 102q-227 137 -336 186q-100 -78 -216 -78q-19 0 -38 2q-43 5 -69.5 25.5t-30.5 47.5zM76 0q-6 -10 -6 -20t7 -20 q14 -20 52 -23h14q77 0 131 61q-80 29 -131 29q-13 0 -24 -2q-30 -5 -43 -25z" />
<glyph unicode="M" horiz-adv-x="1787" d="M2 -150v7q0 31 16 49q18 20 33.5 19t18.5 -3q-1 -14 -1 -27q0 -134 93 -163q29 -9 59 -9q86 0 185 73q134 99 239 292q129 239 207 469q69 202 69 329q0 18 -1 34v12q-3 13 6 16q28 10 58 16q20 4 41 3q10 -1 19 -1q31 -2 48 -16q39 -30 47 -132q2 -25 2 -57 q0 -98 -19 -261q-20 -164 -27 -272q-4 -56 -4 -99q-1 -40 3 -69q6 -60 21.5 -85.5t41.5 -29.5h6q37 0 89 85q56 92 112 249q52 144 98.5 344.5t46.5 304.5q0 10 2 14q0 9 9 12q33 13 80 13h7q52 -1 76 -23q36 -27 36 -135t-42 -315q-31 -152 -40 -274q-4 -61 -4 -109.5 t4 -85.5q9 -73 29 -123t41 -69.5t42 -22.5q5 -1 10 -1l60 29q35 34 45 72q2 6 12 -2t10 -22.5t-10 -35.5q-17 -36 -47.5 -68t-84.5 -54q-35 -14 -72 -13q-21 0 -42 4q-36 6 -64 27.5t-52 69.5q-22 49 -34 121q-10 61 -10 153v33q2 114 21 260q4 37 22 209q-35 -132 -94 -318 q-69 -210 -171 -336q-89 -111 -168 -110q-11 0 -21 2q-80 14 -104 144q-16 84 -16 227q0 78 5 172q7 130 7 222q0 31 -1 58q-51 -294 -186 -565q-78 -153 -186 -253q-109 -99 -221 -135q-66 -21 -129 -21q-44 0 -87 10q-64 16 -101.5 63t-37.5 98z" />
<glyph unicode="N" horiz-adv-x="1439" d="M0 -158q1 58 44 71q22 5 26 -3q-1 -15 -1 -28q0 -134 89 -167q32 -11 63 -11q82 0 153 78q97 106 128 337q30 213 38 429q2 60 2 114q0 139 -16 235q-3 8 0 14q-6 11 2 15q41 22 85 30q15 3 28 3q27 0 51 -11q95 -53 195 -434q55 -213 96.5 -346.5t73.5 -198t55.5 -84 t50.5 -14.5q37 6 62 108.5t31 292.5q1 39 1 83q0 164 -18 380q-7 104 -41 228q4 3 10.5 7.5t26.5 15t39 15.5q16 4 35 4h8q24 -1 43 -14q37 -27 48 -82q6 -32 6 -82q0 -36 -3 -82q-12 -186 -32 -338.5t-45 -256.5t-53 -180.5t-58.5 -119t-59 -62t-57.5 -19.5 q-187 0 -348 571q-67 238 -137 393q11 -88 11 -204q0 -157 -20 -365q-8 -80 -27.5 -150t-47.5 -123.5t-64 -96.5t-76 -69.5t-84 -42.5q-43 -16 -86 -17q-1 1 -3 1q-45 0 -89 10q-64 18 -99.5 65.5t-35.5 100.5z" />
<glyph unicode="O" horiz-adv-x="1269" d="M2 315q19 325 236 549q-39 68 -54 141q-10 51 -10 93q0 18 2 36q6 56 27 91q43 73 97 80q5 1 10 1q22 0 27 -16q3 -9 -3 -18q-16 -29 -22 -77q-3 -22 -3 -46q0 -31 4 -67q8 -64 33 -124q169 123 350 146q46 6 88 7q126 0 209 -58q89 -61 89 -162q0 -24 -5 -49 q77 -70 117 -182q38 -105 38 -217q0 -8 -1 -17q-3 -114 -35.5 -228.5t-93 -216t-140.5 -179.5t-187 -122q-98 -40 -205 -40h-19q-133 4 -242 63t-177 153q-70 94 -104 213q-28 97 -28 198q0 24 2 48zM217 414q-6 -66 -7 -129q0 -117 23 -219q34 -156 123.5 -255t223.5 -108 q16 -1 31 -1q131 0 232 77q113 86 165 229q56 148 70 330q5 64 5 119q0 104 -18 180q-7 41 -33 90q-45 -64 -129.5 -105.5t-198.5 -41.5l-3 -1q-113 0 -218 56q-99 50 -174 131q-74 -139 -92 -352zM387 881q29 -42 74 -84q61 -56 147 -87.5t162 -34.5h21q64 0 117 16 q61 19 79 57q7 15 10 28q-39 48 -93 79.5t-103 39.5q-37 7 -15 19q27 14 77 14h18h2q63 -6 116 -33q-29 81 -119 123q-61 28 -131 29q-34 0 -71 -7q-179 -36 -291 -159z" />
<glyph unicode="P" horiz-adv-x="1310" d="M2 639q11 92 92.5 173.5t192 132.5t229.5 71q160 25 291 25q110 1 200 -17q197 -38 291 -140q74 -80 73 -184q0 -28 -5 -57q-17 -97 -93 -183t-182.5 -143t-231.5 -89q-111 -28 -215 -27h-26q-49 -242 -63 -369q-3 -28 -1 -46t3 -26t0 -8q-21 -11 -42 -11q-12 0 -25 4 q-34 10 -44 48q-3 14 -3 40q0 35 6 91q11 96 36 305.5t39 423.5q1 49 1 91q0 83 -5 137q4 3 12 6.5t30 11.5t42 11t44.5 -1.5t41.5 -19.5q34 -31 38 -88q1 -10 1 -21q0 -54 -18 -139q-12 -58 -42.5 -197.5t-41.5 -197.5q15 -1 30 0q112 0 215 38q117 44 197 135.5t92 209.5 q2 24 2 46q0 69 -23 123q-31 71 -90 110q-60 39 -144 56q-70 14 -144 14h-32q-92 -4 -193 -24q-188 -36 -323 -139q-132 -101 -132 -197q0 -72 58 -116q56 -42 138 -50q25 -2 51 -3q60 0 126 12q1 -2 3.5 -6t5.5 -15t2.5 -20t-8 -19t-22.5 -16q-34 -13 -82 -17 q-19 -2 -39 -2q-29 0 -60 4q-51 6 -99 26.5t-85 51t-57 80.5q-14 37 -14 80q0 15 2 31z" />
<glyph unicode="Q" horiz-adv-x="1155" d="M4 416q17 191 112.5 344.5t239.5 237t306 83.5q255 0 366 -162q89 -130 89 -342q0 -52 -5 -108q-13 -136 -50.5 -253.5t-94.5 -205t-121 -151.5t-139 -113q98 -62 204 -174q94 -102 172 -165t139 -86q56 -21 99 -21h7q46 2 89 26q51 28 61 110q3 19 3 37q0 62 -29 119 q-1 3 14.5 15.5t39 24.5t48 18.5t43.5 -2.5t23 -37q2 -18 2 -35q0 -76 -42 -152q-51 -95 -138 -141q-65 -35 -136 -43q-21 -3 -44 -3q-53 0 -113 14q-86 20 -189.5 79.5t-220.5 157.5q-24 20 -202 172q-109 -42 -203 -45h-4q-57 0 -98 27q-43 28 -46 61q-2 11 -2 21 q0 45 36 80q44 42 147 46q12 1 23 1q117 0 243 -64q243 192 278 584q8 89 8 166q0 194 -50 313q-70 168 -236 168q-117 0 -235.5 -88t-168.5 -221q-35 -96 -52 -187q-15 -80 -15 -147v-20q3 -75 21 -137.5t52.5 -104t80.5 -63.5q41 -20 92 -20h14q61 3 129 33q2 -2 4.5 -6 t7.5 -16t5.5 -24t-6.5 -27.5t-23 -28.5q-27 -22 -66.5 -34t-84.5 -13h-7q-42 0 -87 12q-48 14 -93.5 38t-85 66t-67 95.5t-40.5 128.5q-7 46 -7 96q0 32 3 66zM292 -310q30 -13 68 -13q11 0 23 1q40 6 100 25q-97 79 -149 92q-11 3 -21 3q-20 0 -37 -11q-24 -15 -24 -43 q0 -38 40 -54z" />
<glyph unicode="R" horiz-adv-x="1380" d="M2 641q11 92 92 174t192.5 133t229.5 70q160 25 291 25q110 1 200 -17q197 -38 291 -140q74 -80 73 -184q0 -28 -5 -57q-26 -144 -117.5 -245t-218.5 -152q138 -94 305 -301q116 -147 223 -183q28 -9 51 -10q58 0 86 59q19 42 19 109q0 1 6 4.5t15 6t18 2.5t15 -8t6 -25 q0 -73 -34 -127t-93 -77q-48 -19 -105 -19q-12 0 -26 1q-72 5 -156 52.5t-160 130.5q-59 65 -127 141.5t-112 125.5t-74 79q-42 -7 -82 -7q-45 0 -88 9q-36 8 -50 36t2 55.5t54 33.5q25 3 49 3q93 0 186 -48q179 99 203 340q2 24 2 46q0 69 -23 123q-31 72 -90 111t-143 56 q-70 14 -144 14q-15 -1 -31 -1q-92 -4 -193 -24q-189 -36 -325 -139q-133 -101 -132 -197q0 -54 34 -92t86 -55q54 -17 120 -21q15 -1 29 -2q52 0 104 13q4 -6 8.5 -16t1.5 -30.5t-27 -29.5q-34 -13 -82 -17q-19 -2 -39 -2q-29 0 -61 4q-52 6 -100 26.5t-85 51t-57 80.5 q-14 37 -14 80q0 15 2 31zM446 -205q-3 14 -3 39q1 35 7 92q12 97 36 306t38 423q1 50 1 92q0 84 -5 136q4 3 12 7t30 12t42 12q9 2 18 1q12 -1 26 -3q24 -4 42 -19q34 -32 38 -89q1 -10 1 -21q0 -54 -18 -140q-11 -55 -29 -141t-26.5 -125t-22 -103.5t-19 -93.5t-15 -75.5 t-13.5 -69.5t-10 -56t-9 -54t-6.5 -45t-5.5 -46q-3 -29 -1 -46t3 -25t0 -9q-21 -11 -42 -11q-12 0 -25 4q-34 10 -44 48zM715 260q6 -10 26 -12q20 -3 41 -3q28 0 58 5q-47 41 -87 41h-5q-21 -1 -30 -11q-5 -6 -5 -12q0 -4 2 -8z" />
<glyph unicode="S" horiz-adv-x="1531" d="M4 -37q-4 21 -4 42q0 45 17 89q25 66 77 117.5t125 89.5t157 45q20 2 39 1q65 0 134 -17q25 -8 31 -42q3 -17 3 -33t-3 -31l-7 -31q-64 8 -120 8q-111 -1 -189 -33q-118 -50 -127 -162q-1 -7 -1 -15q0 -103 144 -205q154 -109 400 -130q64 -6 123 -5q167 0 297 43 q178 59 219 167q13 33 13 65q0 76 -73 150q-103 104 -397 215q-266 97 -403 209q-128 104 -128 206q0 7 1 15q5 54 50 107t122 96q78 42 198 64q80 14 168 15q45 0 93 -4q111 -9 200.5 -33.5t145.5 -58t95 -73.5t55 -80t20 -76q1 -11 1 -22q0 -24 -6 -44q-9 -28 -26 -43 q-29 -25 -93 -25q-31 0 -70 6q-68 12 -71 23q58 50 64 106q1 8 1 15q1 47 -33 88q-38 47 -118.5 82.5t-185.5 46.5q-50 5 -96 5q-108 0 -194 -25q-122 -35 -134 -103q-5 -28 3.5 -53.5t38.5 -58t83.5 -66t143 -74.5t212.5 -87q158 -59 260.5 -115.5t156 -118t69.5 -123.5 q9 -35 9 -76q0 -31 -5 -65q-13 -89 -78 -162t-171.5 -123t-259.5 -70q-85 -11 -178 -11q-74 0 -153 7q-179 17 -313 61t-222.5 122.5t-109.5 187.5z" />
<glyph unicode="T" horiz-adv-x="968" d="M14 982q19 35 56 54q29 15 60 15q21 0 43 -7q13 -5 13 -8q-55 -30 -55 -66q0 -43 97 -53q28 -3 62 -3q39 0 87 4q175 14 501 41t474 38q35 2 65 2q59 0 96 -9q56 -14 82 -54q10 -22 10 -44q0 -14 -4 -29q-11 -37 -34 -65l-23 -28q-101 27 -223 39q-96 11 -200 17 q-104 4 -175 6q-19 0 -42 1q-59 0 -139 -3q-110 -4 -149 -6t-152 -10t-122 -9q-43 -3 -80 -3q-179 0 -238 71q-24 28 -24 59q0 24 14 50zM563 -88q15 71 50 229t53 242t35 181.5t18 144.5q1 25 -0.5 45t-3 27t-0.5 7q21 11 43 11q12 1 24 -3q34 -10 45 -48q4 -17 4 -47 q-1 -33 -5 -79q-8 -90 -33 -304.5t-43 -417.5q-4 -40 -4 -90q0 -61 6 -138q-4 -2 -11.5 -5.5t-28.5 -10.5q-22 -7 -42 -10q-10 -2 -21 -2t-24 2q-25 3 -45 16q-37 25 -37 105q0 58 20 145z" />
<glyph unicode="U" horiz-adv-x="1536" d="M2 152q-1 8 -1 16q1 24 11 49q14 33 41 57q13 10 23.5 5t17 -16.5t2.5 -14.5q-32 -26 -40.5 -54.5t14 -53.5t75.5 -36q49 -10 102 -11q109 0 230 46q-9 69 -9 157q0 24 1 50q9 354 109 522q90 152 226 151q15 0 30 -1q64 -7 102 -70q38 -62 40 -158q0 -5 1 -11 q1 -91 -25 -191q-26 -106 -98 -209.5t-174 -171.5l-25 -17q11 -203 70 -310t162 -107q68 0 129 59t116 181t100 328.5t73 483.5l6 60q0 1 1 3.5t1 4.5v2l6 14q4 12 31 12.5t58 -7t58 -20.5t31 -26q5 -16 5 -42q0 -3 1 -7q0 -25 -4 -57q-4 -38 -9.5 -74.5t-13 -92.5 t-12.5 -101q-30 -260 -32 -412v-37q0 -122 15 -167q17 -52 50 -56q5 -1 10 -1l60 29q35 34 45 72q2 5 11 -1q10 -8 10 -23q0 -14 -9 -35q-28 -59 -86 -101q-46 -33 -103 -33q-17 0 -34 3q-83 11 -120 149q-23 87 -23 223q0 81 8 179q-69 -323 -186 -475q-115 -151 -261 -150 h-4q-123 1 -212 121t-120 323q-142 -59 -265 -59q-45 0 -87 8q-58 12 -91.5 40.5t-37.5 60.5zM653 233l31 25q65 56 115.5 144t74 178t28.5 172q1 14 1 27q0 64 -20 109q-24 54 -70 60h-7q-31 0 -55 -34q-27 -38 -45 -110.5t-29.5 -160t-17.5 -197.5q-7 -87 -7 -163 q0 -26 1 -50z" />
<glyph unicode="V" horiz-adv-x="878" d="M6 797q20 61 94 105q54 33 110 32q20 0 40 -4q56 -12 101.5 -50t87.5 -111.5t74.5 -198.5t53.5 -298l31 -280q47 255 174 518q43 89 98.5 177.5t126 177.5t155 156t167.5 93q13 3 22 3q9 -1 13 -3q10 -4 14 -13q2 -5 1 -7q0 -2 -1 -2q-50 -16 -99 -48.5t-89 -71.5 t-80 -92.5t-69 -99t-60 -103.5t-49 -95t-39 -84q-114 -243 -173.5 -418.5t-82.5 -386.5q-1 -4 -17 -12t-28 -11q-34 -14 -62 -14q-30 0 -55 16q-16 11 -24.5 35t-12.5 67.5t-6 90t-7 127t-12 155.5q-17 172 -44.5 302t-55 200t-61 114.5t-56 57.5t-45.5 17q-5 1 -11 1 q-31 0 -61 -30q-35 -35 -42 -72q-2 -6 -13 2q-13 9 -13 28q0 13 5 30z" />
<glyph unicode="W" horiz-adv-x="1298" d="M4 797q20 61 94 105q54 33 110 32q20 0 40 -4q57 -12 102.5 -50t87.5 -111.5t74 -198.5t53 -298q31 -262 37 -338q54 357 207 771q14 40 37 32h9q34 -1 81 -19q53 -22 57 -48q3 -18 4.5 -45t2 -68t0.5 -77t-0.5 -99.5t-1.5 -108.5v-186q39 162 103 308t142 247 q311 402 746 467q6 1 11 1q14 0 22 -6q12 -8 13 -16l-1 -10q-371 -52 -686 -463q-136 -177 -232 -421.5t-123 -499.5q-2 -6 -21.5 -14t-25.5 -5q-24 -5 -44 -5q-35 0 -58 16q-11 8 -18 21.5t-11.5 38t-6.5 46.5t-2 66t0.5 77.5t2 99t2.5 113.5q0 62 3.5 201t4.5 180 q-140 -433 -194 -827q0 -5 -27 -23l-6 -4q-41 -18 -74 -18q-31 0 -55 16q-15 11 -23.5 35t-12.5 67.5t-5.5 90.5t-6 127t-12.5 155q-17 172 -45 302t-55.5 200t-61 114.5t-56 57.5t-46.5 17q-5 1 -11 1q-30 0 -60 -30q-36 -35 -42 -72q-2 -6 -14 2q-12 9 -12 30q0 12 4 28z " />
<glyph unicode="X" horiz-adv-x="1009" d="M0 932q2 2 6.5 5t18.5 12t28.5 16.5t35.5 15.5t40.5 12t43 3.5t44.5 -7.5q90 -31 140 -108t158 -320q3 -4 3 -6q33 -79 117 -246l82 92q214 244 290 381q69 124 69 214q0 9 -1 18q6 2 17 6t40.5 10.5t54.5 8.5q6 0 13 1q19 0 39 -5q27 -6 41 -23q10 -13 10 -34 q0 -26 -14 -60q-26 -64 -121 -168q-229 -247 -471 -531q116 -201 219.5 -304.5t173.5 -113.5l18 -2q44 1 79 35q43 40 55 80q2 3 9.5 -1.5t10.5 -17t-8 -40.5q-25 -57 -109 -115q-57 -39 -112 -40q-26 0 -51 9q-77 27 -164.5 123t-208.5 281q-187 -220 -256 -330 q-15 -25 -24 -44t-11 -25l-2 -5q-20 -4 -36 -4q-60 0 -60 59q0 55 332 435q-11 19 -62.5 103.5t-81.5 135.5q-89 151 -158 253t-114 150t-71.5 67t-51.5 24z" />
<glyph unicode="Y" horiz-adv-x="1531" d="M2 152q-1 8 -1 16q0 24 11 49q13 33 41 57q13 10 23.5 5t17 -16.5t2.5 -14.5q-32 -26 -40.5 -54.5t14 -53.5t75.5 -36q49 -10 102 -10q109 0 230 45q-9 69 -9 157q0 24 1 50q10 353 109 522q90 152 226 152q15 0 30 -2q64 -7 102.5 -70t39.5 -158q1 -6 1 -11 q0 -91 -25 -191q-27 -105 -98.5 -209t-173.5 -172l-25 -17q11 -203 70 -310t162 -107q69 0 130.5 59.5t116.5 183.5t100 334.5t73 493.5l6 53q2 10 20.5 13.5t44 0t51 -10.5t44.5 -19t22 -25q0 -1 -0.5 -3.5t-0.5 -5.5t-0.5 -7.5t-1 -9.5t-1 -12l-1 -14t-1 -16t-0.5 -18 q-54 -773 -88 -1026q172 -12 289 -100q1 -1 1 -3q0 -3 -3 -9q-5 -8 -18 -11t-40 12q-101 57 -235 64q-38 -244 -105 -410q-43 -105 -104.5 -166.5t-121.5 -73.5q-26 -5 -51 -5q-34 0 -67 10q-56 16 -96.5 61t-54.5 103q-8 42 -8 87v11q1 50 23 105t58 104.5t97 95.5t139 78 q63 26 117 37l4 28q6 65 19 235.5t24 291.5q-69 -326 -186 -479q-115 -152 -263 -152h-4q-123 1 -212 121t-120 323q-142 -59 -265 -59q-45 0 -87 8q-58 12 -91 40t-38 61zM653 233l31 25q65 56 115.5 144t74 178t28.5 172q1 14 1 27q0 64 -20 109q-24 54 -70 60h-7 q-31 0 -55 -34q-27 -37 -45 -110t-29.5 -160.5t-17.5 -197.5q-7 -87 -7 -163q0 -26 1 -50zM850 -709q8 -62 46 -96q37 -33 82 -33h2q47 1 94 39.5t71 108.5q51 148 72 373q-54 -11 -109 -31q-87 -31 -151 -97.5t-89 -136.5q-20 -52 -20 -99q0 -14 2 -28z" />
<glyph unicode="Z" horiz-adv-x="972" d="M66 1053q4 26 14 41.5t21 19.5q10 4 19 4h2q10 0 16.5 -4t6.5 -6q-1 -11 -1 -20q0 -58 53 -70q58 -14 292 -14h33h133q401 0 502 -5q43 -3 72.5 -13t43.5 -24.5t18.5 -33t1 -36t-12.5 -36.5q-2 -5 -17 -15t-53.5 -39t-83.5 -67q-229 -189 -504 -463t-327 -372l-21 -39 q58 -7 146 -7q13 0 26 1q76 0 146 2q82 3 202.5 10t195 12.5t194.5 14.5q43 3 81 3q181 0 239 -71q22 -27 22 -56q0 -24 -15 -51q-19 -33 -53 -51q-28 -15 -59 -15q-23 0 -47 8l-11 5q55 31 55 69q0 35 -57 49q-35 9 -88 9q-44 0 -100 -6q-166 -18 -395.5 -48.5 t-333.5 -41.5q-52 -4 -92 -4q-44 0 -73 5q-55 10 -79 48q-11 19 -11 45q0 13 3 29q9 46 39 94q0 2 2 4q82 140 310.5 393t537.5 514q4 3 -9.5 4t-53.5 0.5t-90 -2t-139.5 -3t-182.5 -1.5q-262 0 -401 56q-120 48 -120 143q0 15 3 31z" />
<glyph unicode="[" horiz-adv-x="696" d="M1 -14.5q3 89.5 9 258.5q4 143 8.5 239.5t13.5 194.5t18.5 158.5t29.5 121.5t39.5 94t55.5 66t72 48t93.5 29t115.5 19.5t142 10.5q37 3 35 -11q-3 -15 -35 -31q-14 -7 -23 -7q-58 -4 -93 -7.5t-73.5 -14t-59 -17t-43.5 -32t-33 -42t-22 -63t-15.5 -80.5t-8 -109t-6 -133 t-4.5 -166q-3 -145 -6 -229q-3 -79 -8 -218q-13 -356 -5 -458q11 -137 66 -182q50 -42 182 -39q46 0 127 6q30 3 42 -17q11 -19 -15 -28q-8 -3 -18 -4q-107 -11 -162 -16.5t-127 -1.5t-102.5 6.5t-73.5 32.5t-56 51t-32.5 87.5t-21.5 117t-5.5 163.5t-0.5 202.5z" />
<glyph unicode="\" horiz-adv-x="550" d="M-45 909q5 8 13.5 19t35 28.5t53.5 14.5q34 -2 68.5 -41.5t56.5 -112.5q13 -41 90.5 -300t139 -438t102.5 -245q10 -17 19 -29t12.5 -15.5t3.5 -4.5q-15 -22 -38.5 -25.5t-43.5 19.5q-32 44 -93.5 202t-147.5 382t-154 370q-54 113 -117 176z" />
<glyph unicode="]" horiz-adv-x="696" d="M2 -665q3 16 37 33q11 6 18 7q84 6 128 12.5t89.5 22.5t64 43.5t37.5 74.5t23.5 116t9.5 167.5t9 229.5q3 142 6 225q2 75 7 207q14 361 6 465q-11 140 -67 186q-50 42 -181 40q-46 -1 -128 -7q-29 -3 -41 17q-12 19 13 28q8 3 18 4q107 11 162 16.5t127.5 1.5t103 -6 t73.5 -32.5t56 -51t32.5 -88t21.5 -116.5t5.5 -164t0.5 -203t-8 -258q-6 -180 -11.5 -293t-19.5 -224t-29.5 -171t-50 -118.5t-70.5 -83.5t-101.5 -48t-133 -31t-174.5 -14q-37 -2 -33 13z" />
<glyph unicode="^" horiz-adv-x="477" d="M2 572.5v7.5q12 7 100 75q97 74 131.5 94.5t51.5 10.5q19 -10 92.5 -79t87.5 -89q7 -7 9.5 -12.5t1 -9t-3.5 -6t-6 -4.5l-3 -1q-1 0 -12 6t-43 24t-68 38q-80 43 -82 45q-47 -29 -84 -47q-88 -46 -141 -62q-15 -4 -23 0t-8 9.5z" />
<glyph unicode="_" horiz-adv-x="606" d="M4 33q208 0 399 8q86 6 197 18q10 -18 -2 -49q-7 -23 -29.5 -31t-81.5 -8q-68 0 -253.5 8t-204.5 15q-37 15 -25 39z" />
<glyph unicode="`" horiz-adv-x="382" d="M0 733q0 20 16 35.5t32 21.5l15 5q55 -76 216 -156q45 -24 85 -43q17 -9 17 -10q0 -2 1 -6.5t-6.5 -8.5t-21.5 -2q-67 11 -192 45q-85 25 -123.5 52.5t-38.5 66.5z" />
<glyph unicode="a" d="M8 244q28 133 128 219q93 80 201 80h15q84 -5 128 -57q30 -35 29 -68q0 -17 -7 -33q-23 -53 -84 -53q-20 0 -44 6q-50 12 -68 30q-4 4 -1 5q29 8 51 33q21 24 21 50q0 8 -2 16q-8 35 -47 36h-7q-51 0 -93 -58q-44 -62 -66 -169q-7 -46 -7 -81.5t7 -59.5q14 -50 43 -50 q36 0 69 59.5t54 155.5q0 11 2 17q1 10 36 -1t69 -32t32 -35q-3 -25 -3 -46q0 -46 12 -74q18 -40 48 -44q4 -1 9 -1q31 1 57 31q30 34 41 73q2 6 12 -2t10 -22.5t-10 -35.5q-25 -55 -87 -95q-45 -29 -91 -29q-18 0 -37 5q-93 20 -104 158q-37 -88 -90 -134q-46 -39 -97 -39 q-8 0 -16 1q-57 8 -95 74q-25 43 -25 101q0 32 7 69z" />
<glyph unicode="b" horiz-adv-x="524" d="M8 233q4 56 27.5 212t30.5 272q3 40 3 85q0 65 -6 140q4 3 11.5 7t28 13t39.5 13q9 2 19 2q11 -1 23 -3q23 -4 39 -20q33 -30 37 -88q1 -13 1 -28q0 -53 -13 -136q-8 -48 -39.5 -225.5t-42.5 -259.5q-10 -65 -10 -108q0 -68 26 -76q7 -2 14 -2q28 1 65 33q46 42 71 129 q-67 37 -88 126q-7 27 -7 52q0 47 25 87q34 54 104 55q8 0 17 -1q57 -5 93 -67q24 -43 25 -104q0 -28 -5 -60q-8 -38 -15 -60q47 10 81 46.5t50 84.5q0 5 10 0q12 -7 12 -24q0 -14 -9 -35q-47 -97 -160 -113q-47 -101 -139 -147q-72 -36 -146 -36q-21 0 -41 3 q-67 11 -103 71q-29 48 -30 123q0 19 2 39zM291 340q10 -74 51 -100v2q13 72 14 123v11q0 42 -7 62q-7 21 -21 21h-2q-20 -3 -32 -37q-7 -20 -7 -43q0 -18 4 -39z" />
<glyph unicode="c" horiz-adv-x="446" d="M2 256q4 54 25 101.5t50.5 80t66.5 56.5q36 22 72 32q32 9 61 9h7q32 -1 54 -15q40 -24 55 -68q7 -19 7 -40q0 -26 -11 -52q-23 -52 -80 -52q-20 0 -43 6q-45 13 -61 30q-3 3 0 4q55 17 81 59q22 35 22 64q0 5 -1 10q-2 18 -30 18t-52 -24q-21 -23 -43 -78t-26 -104 q-2 -16 -2 -31q0 -68 39 -114q47 -56 106 -58h7q51 0 101 28q53 30 68 75q0 5 9 -1q12 -7 12 -24q0 -14 -9 -35q-25 -55 -107 -99q-67 -36 -144 -36q-17 0 -35 2q-35 3 -71 21.5t-67 49.5t-49 80q-14 38 -13 80q0 13 1 25z" />
<glyph unicode="d" horiz-adv-x="581" d="M4 219q10 85 66 149q54 64 128 94q67 27 134 27h14q24 157 30 255q2 32 2 65q0 66 -7 133l11 5.5t27.5 10t39.5 8.5h10q15 0 31 -4q22 -6 40 -22q48 -46 48 -142q0 -95 -54 -309q-53 -197 -53 -296q0 -94 47 -101q4 -1 9 -1q29 0 54 29q29 33 42 73q2 6 12 -2 q10 -7 10 -21.5t-10 -36.5q-25 -53 -86 -93q-45 -29 -93 -30q-17 0 -34 4q-84 20 -100 131q-36 -73 -92 -112q-49 -34 -99 -34q-8 0 -16 1q-56 7 -90 63q-25 41 -25 104q0 24 4 52zM156 260q-6 -37 -6 -66q0 -36 8 -60q16 -44 45 -44q32 0 65.5 47.5t48.5 114.5q3 57 15 137 q4 34 8 53q-65 0 -116.5 -47t-67.5 -135z" />
<glyph unicode="e" horiz-adv-x="471" d="M2 244q7 76 37.5 137.5t72.5 96t89 53.5q46 19 87 18q1 1 2 1q42 0 70 -18q52 -28 61 -90q2 -13 2 -26q0 -48 -26 -92q-26 -50 -92 -84q-61 -32 -132 -31h-13q17 -55 63.5 -86t93.5 -33h8q61 0 115 28q58 30 72 75q0 5 9 -1q12 -7 12 -24q0 -14 -9 -35q-27 -57 -115 -100 q-71 -35 -152 -35q-19 0 -38 2q-35 4 -72.5 21t-73 45.5t-55.5 75.5q-16 38 -17 81q0 10 1 21zM154 244q65 17 107 77t42 123q0 54 -26 66q-6 3 -12 3q-20 0 -42 -30q-59 -75 -69 -202q-2 -11 -2 -20t2 -17z" />
<glyph unicode="f" horiz-adv-x="382" d="M-4 -152q10 150 65 627l-38 29q-22 12 -25 26q-4 10 -4 17t4 10l6 1q6 0 24 1.5t44 3.5l14 154q2 49 2 93q0 73 -6 132q4 3 11.5 7t29 12.5t40.5 12.5q9 2 19 2q11 0 24 -2q23 -5 40 -20q35 -32 40 -88v-21q0 -54 -18 -140q-5 -24 -24 -134q50 3 100.5 7.5t79.5 7t47 2.5 q6 -10 6 -25t-6 -33q-10 -28 -37 -39q-22 -9 -67 -9q-13 0 -27 1q-19 0 -60 3t-49 3l-12 -83q128 -157 152 -408q9 -64 9 -126q0 -24 -2 -47q-4 -85 -21.5 -152.5t-59 -112.5t-102.5 -54q-14 -2 -27 -2q-85 0 -130 84q-44 80 -44 206q0 26 2 54zM152 -72q-13 -103 -13 -177 q0 -106 26 -155q16 -30 40 -30q7 0 14 2q36 11 55 83q17 68 17 152v9q-1 90 -8 180q-16 182 -80 309q-38 -268 -51 -373z" />
<glyph unicode="g" horiz-adv-x="542" d="M4 244q26 132 126 218q94 81 201 81h15q85 -4 129 -57q29 -34 29 -67q0 -17 -8 -34q-23 -53 -83 -53q-20 0 -44 6q-49 12 -67 30q-4 4 -1 5q31 9 51 33q21 24 21 50q0 8 -2 16q-8 35 -47 36h-7q-52 0 -95 -59q-45 -63 -64 -168q-9 -45 -9 -80q0 -13 1 -25q5 -42 18.5 -64 t30.5 -22q62 0 108 156q1 3 4 15t4 20q5 25 22.5 33t38.5 1.5t41.5 -17.5t34 -22t13.5 -14q0 -9 -27 -225q53 24 103 86q31 38 39 70q2 6 13 -2q10 -8 10 -22q0 -15 -11 -36q-47 -94 -162 -149q-20 -134 -62 -227t-89 -132.5t-95 -52.5q-25 -7 -47 -7q-20 0 -37 6 q-36 12 -53 36q-29 42 -31 90q-1 5 -1 9q0 44 21 86q24 48 78 94t134 81q3 2 31 13v4l10 129q-68 -114 -157 -114q-8 0 -17 1q-55 7 -93 74q-25 43 -25 102q0 32 7 68zM76 -328q16 -34 53 -34h7q43 4 73 53q38 64 63 241q-22 -9 -24 -10q-112 -47 -156 -118q-27 -44 -27 -84 q0 -25 11 -48z" />
<glyph unicode="h" horiz-adv-x="581" d="M2 70q-2 13 -2 32q0 80 27 267q33 232 39 348q3 49 3 96q0 65 -6 129q4 3 11 7t27 12q21 8 39 12q9 2 19.5 2t21.5 -2q23 -4 40 -19q35 -32 39 -88q1 -10 0 -21q0 -54 -18 -140q-56 -279 -70 -375q55 105 143 156q61 35 114 35q24 0 46 -7q14 -4 23.5 -11t13.5 -19t5 -24 t-1.5 -33t-5.5 -39.5t-8 -49.5t-8 -57q-8 -69 -9 -112q1 -19 3 -33q6 -44 30 -52q7 -2 13 -2q23 0 47 28q30 36 45 83q2 6 11 -2q10 -7 10 -21q0 -15 -11 -37q-30 -67 -96 -111q-46 -30 -90 -30q-19 0 -39 6q-54 18 -70 78q-9 32 -9 77q0 40 7 89q3 16 6 36t5 32.5t4.5 27 t3.5 23.5t2 19.5t1 16.5t-1 11.5t-3.5 8.5t-5.5 5q-13 7 -34 -2.5t-45.5 -35.5t-47.5 -63t-42 -92t-27 -116q0 -30 1 -57t1.5 -31t-0.5 -9q-31 -16 -62 -16q-16 0 -34 4q-50 14 -56 66z" />
<glyph unicode="i" horiz-adv-x="268" d="M1 272q2 64 15 117q16 63 50 91q27 22 56 22q8 0 16 -2q37 -8 69 -39q1 -1 -8 -28t-22 -82t-17 -111q-3 -29 -2 -52q0 -98 47 -104q4 -1 8 0q29 0 53 30q27 36 41 79q2 6 12 -2q10 -7 10 -21.5t-10 -36.5q-25 -57 -87 -101q-47 -34 -96 -33q-15 0 -30 3q-38 9 -63.5 50.5 t-34.5 98.5q-7 47 -7 98v23zM47 717q4 43 41 70.5t82 27.5q45 1 74 -27q26 -25 27 -63q0 -4 -1 -8q-4 -39 -57.5 -79t-81.5 -40q-26 0 -57 40q-27 35 -27 70v9z" />
<glyph unicode="j" horiz-adv-x="256" d="M-268 -303.5q0 48.5 24.5 97t77.5 95t127 78.5q9 5 26 11.5t19 7.5q9 73 13.5 132.5t8 130.5t7.5 128q4 64 35 101q30 34 68 34h4q41 -2 81 -29q1 -1 -0.5 -8.5t-5 -27t-6.5 -41.5q-13 -79 -49 -363q48 25 92 80q29 32 39 70q4 6 14 -3q10 -8 10 -21q0 -15 -12 -36 q-47 -91 -149 -143v-6q-14 -128 -55 -220t-90.5 -133t-100.5 -57q-30 -8 -56 -8q-19 0 -36 4q-40 12 -58 39q-28 39 -28 87.5zM-211 -328q16 -34 53 -34h8q42 4 72 53q53 91 78 246q-5 -1 -39 -15q-100 -42 -149 -119q-32 -50 -32 -91q0 -21 9 -40zM63 717q4 43 41 70.5 t84 27.5q45 0 74 -27q25 -25 25 -61v-10q-4 -39 -56.5 -79t-80.5 -40q-27 0 -58 40q-29 36 -29 72v7z" />
<glyph unicode="k" horiz-adv-x="581" d="M2 70q-2 13 -2 32q0 80 27 267q33 232 39 348q3 49 3 96q0 65 -6 129q4 3 11 7t27 12q21 8 39 12q9 2 19.5 2t21.5 -2q23 -4 40 -19q35 -32 39 -88q1 -10 0 -21q0 -54 -18 -140q-57 -279 -70 -365q37 74 91 128t106 76q45 19 86 19q7 -1 13 -1q46 -4 69 -36 q21 -30 21 -69q0 -43 -26 -95q-50 -100 -155 -159q-10 -8 -7 -13.5t19 -19.5q17 -17 62 -48t67 -38q7 -2 13 -2q23 0 47 28q30 36 43 83q2 6 12 -2q10 -7 10 -21.5t-10 -36.5q-30 -67 -96 -111q-46 -30 -90 -30q-19 0 -39 6q-77 24 -195 170q-17 25 -15.5 36.5t19.5 20.5 q42 26 76.5 55.5t54 54t32.5 48t12 38.5t-7 25q-10 11 -24 11q-19 -1 -47 -19q-49 -32 -98 -121.5t-64 -201.5q0 -31 1 -58.5t1.5 -31.5t-0.5 -9q-31 -16 -62 -16q-16 0 -34 4q-50 14 -56 66z" />
<glyph unicode="l" horiz-adv-x="266" d="M16 389q34 219 42 323q3 44 3 92q0 65 -6 138q5 2 12.5 5.5t30 10.5t42.5 9q5 0 10 1q16 0 34 -5q24 -6 39 -23q38 -38 37 -120v-14q-4 -93 -53 -317q-31 -147 -41 -236q-6 -49 -7 -84q1 -28 5 -46q8 -41 35 -45q4 -1 8 0q30 0 56 34q30 39 42 81q2 6 12 -2 q10 -7 10 -21.5t-10 -36.5q-24 -55 -87 -101q-48 -35 -98 -35q-15 0 -30 3q-103 24 -103 211q0 76 17 178z" />
<glyph unicode="m" horiz-adv-x="905" d="M12 528l8 4q7 3 15 6.5t20.5 7.5t24.5 7t26 5q9 1 18 1h8q12 -1 25 -6t23 -14q28 -25 33 -67q1 -10 1 -23q0 -37 -11 -91q61 92 139 136q51 28 92 29q23 0 43 -9q35 -14 39 -52q1 -8 1 -17q0 -37 -13 -97q-4 -27 -6 -41q57 117 145 175q61 40 112 40q23 0 44 -8 q13 -5 21 -12t12 -19.5t5.5 -24t-0.5 -33t-4.5 -38.5t-7.5 -49t-8 -57q-8 -67 -7 -109q0 -21 1 -36q6 -44 31 -52q6 -2 13 -2q23 0 45 28q28 36 44 83q2 6 12 -2q10 -7 10 -21.5t-10 -36.5q-30 -67 -96 -111q-46 -30 -89 -30q-19 0 -38 6q-56 17 -72 80q-8 31 -8 70 q0 42 9 94q3 20 6.5 45t6 39.5t4.5 31t2.5 26t0 18.5t-3 13.5t-6.5 6.5q-14 8 -36.5 -6.5t-48 -49t-49.5 -81.5t-41 -112.5t-20 -133.5v-23q-32 -17 -65.5 -19t-58.5 16.5t-27 56.5q-1 12 -1 27q0 57 13 145q3 20 6.5 45t6 39.5t4.5 31t2.5 26t0 18.5t-3 13.5t-6.5 6.5 q-10 5 -24.5 -1t-31.5 -22.5t-35.5 -41.5t-35.5 -60t-31 -74t-24 -87.5t-12 -98.5l2 -33q-31 -16 -60 -16q-15 0 -30 4q-43 13 -50 65q-7 55 -7 122q0 57 5 122q4 55 4 107q0 63 -6 120z" />
<glyph unicode="n" horiz-adv-x="581" d="M12 528l10 4q9 5 18.5 8.5t24.5 8.5t29.5 7.5t30 2.5t30 -5t25.5 -15q33 -31 33 -97q0 -36 -10 -82q57 89 133 131q52 29 99 29q21 0 40 -6q14 -4 23.5 -11t13.5 -19t5 -24t-1.5 -33t-5.5 -39.5t-8 -49.5t-8 -57q-8 -71 -9 -114q0 -17 2 -31q5 -44 31 -52q7 -2 13 -2 q23 0 47 28q30 36 43 83q2 6 12 -2q10 -7 10 -21.5t-10 -36.5q-30 -67 -96 -111q-46 -30 -90 -30q-19 0 -39 6q-54 18 -70 78q-9 32 -9 77q0 40 7 89q4 27 9.5 61t7.5 50t3.5 33.5t-0.5 25t-8 10.5q-10 5 -24.5 -1t-31.5 -22.5t-35.5 -41.5t-35.5 -60t-31 -74t-24 -87.5 t-12 -98.5v-21q-31 -16 -60 -16q-16 0 -30 4q-44 14 -50 66q-4 44 -4 102t4 129q4 55 4 107q0 63 -6 120z" />
<glyph unicode="o" horiz-adv-x="473" d="M2 244q6 78 38.5 136.5t76.5 87.5t89 40q25 6 47 6q18 0 34 -4q22 22 51 25q5 1 10 1q34 0 54 -32q24 -36 27 -93q2 -26 1 -54q0 -36 -2 -76q-3 -48 -16 -93h2q12 1 23.5 6.5t20 12t17 16t13 16t9.5 13.5l5 8q6 7 15 -2q6 -6 6 -15q0 -11 -9 -28q-45 -72 -108 -72h-9 q-59 -134 -196 -143q-9 -1 -18 -1q-75 0 -129 62q-53 59 -53 152q0 15 1 31zM156 268v-17q0 -71 22 -115q26 -49 76 -50h4q51 0 92 70q-61 31 -84 108q-19 52 -20 112v6q0 56 20 99q-4 1 -7 1q-16 0 -32 -11q-30 -22 -50 -76.5t-21 -126.5zM315 283q9 -66 54 -88 q11 31 14 73q2 26 2 48q-1 14 -1 25q-2 31 -11 49q-9 17 -22 16h-1q-22 0 -33 -37q-6 -20 -6 -44q0 -20 4 -42z" />
<glyph unicode="p" horiz-adv-x="569" d="M-28 -343v19q0 55 14 142q40 276 55 479q2 48 2 92q0 74 -6 135q8 5 24 11.5t43 14.5q20 6 40 6q7 0 15 -1q28 -3 46 -20q34 -29 34 -93q0 -18 -3 -39q71 116 163 116q8 0 17 -1q102 -12 102 -168q0 -24 -2 -51q-7 -61 -22 -98q37 -3 143 -21q5 -4 5 -16q0 -10 -9 -18 q-10 -9 -33 -5l-125 21q-43 -75 -115 -110q-51 -24 -93 -24q-18 0 -34 5q-12 3 -21.5 12t-12.5 22.5t0 29t17.5 33.5t39.5 34q40 24 96 33q10 37 15 73q6 53 6 88q0 27 -3 44q-8 40 -36 42h-2q-31 0 -72 -74q-43 -78 -67 -173q-24 -128 -33 -306q-2 -37 -2 -87q0 -90 6 -224 q-4 -3 -10.5 -7t-26.5 -12t-38 -12q-9 -2 -19 -2t-22 2q-23 4 -40 19q-33 30 -36 89zM234 76q5 -13 20 -15h4q20 0 42 24q24 27 42 79q-42 -6 -74 -25q-20 -14 -29 -32q-6 -12 -6 -22q0 -5 1 -9z" />
<glyph unicode="q" horiz-adv-x="561" d="M6 240q28 134 128 220q92 80 197 80q9 0 19 -1q83 -4 121 -55q24 -32 24 -64q0 -19 -8 -37q-23 -54 -80 -54q-19 0 -41 6q-45 12 -62 31q-4 4 -1 5q28 7 51 30q21 25 21 52q0 7 -1 15q-8 35 -46 38h-7q-53 0 -95 -58q-45 -63 -66 -169q-8 -45 -8 -79q0 -14 2 -26 q4 -43 17.5 -64.5t31.5 -21.5q39 0 73.5 61.5t49.5 157.5v10q13 9 58 -2.5t65 -42.5q7 -9 8 -32.5t-2.5 -61.5t-8 -80.5t-9.5 -104.5t-7 -118q-2 -37 -2 -87q0 -91 6 -226q-4 -2 -11 -5t-26.5 -8.5t-37.5 -6.5h-5q-16 0 -36 5q-22 6 -39 21q-33 30 -37 89v21q0 55 14 140 q6 41 26 155.5t27 161.5q-73 -140 -174 -140q-8 0 -16 1q-57 7 -95 74q-25 43 -25 101q0 32 7 69z" />
<glyph unicode="r" horiz-adv-x="456" d="M2 113q38 58 66 153t36 183q-40 27 -54 68q-6 17 -6 32q0 21 11 37q17 32 47 42q8 3 16 2q20 0 37 -20q20 -23 20 -69q0 -8 -1 -17q0 -2 -1 -5t-1 -5q17 -1 34 -1q30 1 58 3q44 4 66.5 7.5t40 2t26.5 -11.5q4 -6 4.5 -17.5t-2.5 -33t-7 -43.5t-11.5 -62.5t-13.5 -76.5 q-9 -69 -9 -112q0 -20 2 -33q6 -44 31 -52q7 -2 13 -2q22 0 46 28q30 36 46 83q0 5 9 -1q12 -7 12 -24q0 -14 -9 -35q-32 -67 -98 -111q-46 -30 -89 -30q-19 0 -38 6q-55 17 -71 77q-8 32 -8 76q0 40 7 91t16 96t14 64l5 20q-13 -1 -26 -1q-30 0 -60 5q-43 -198 -109 -301 q-28 -43 -45 -23q-5 6 -5 9q0 1 1 2z" />
<glyph unicode="s" horiz-adv-x="428" d="M-4 113q72 108 115 301q-50 84 -50 138q0 28 13 48q20 28 52 36q8 2 16 2q24 0 42 -17q22 -21 22 -64q0 -7 -1 -14q-1 -12 -15 -80q11 -14 52.5 -59t64 -73.5t44.5 -74t22 -86.5q0 -51 -21 -98q65 45 92 121q2 6 11 -2q11 -7 11 -23q0 -14 -9 -35q-27 -71 -105 -114 q-61 -34 -127 -34q-18 0 -37 3q-76 6 -120 63q-23 27 2 41q15 8 18 2q16 -34 44.5 -44t53.5 10.5t31 66.5q2 14 2 29q0 92 -65 194q-55 -147 -109 -227q-26 -40 -44 -23q-6 6 -6 10q0 2 1 3z" />
<glyph unicode="t" horiz-adv-x="296" d="M-76 641q21 0 117 6q5 73 5 125q0 41 -3 70q5 3 14 6.5t33.5 11t46.5 10.5q7 1 15 1q16 0 32 -4q24 -6 39 -23q17 -24 19 -69q0 -5 1 -11q0 -42 -10 -105q32 2 68.5 5.5t58.5 5.5t37 2q6 -10 6 -25t-6 -33q-9 -28 -37 -39q-22 -9 -67 -9q-12 0 -27 1q-31 0 -47 2l-18 -94 q-28 -143 -36 -232q-4 -42 -4 -72q0 -34 5 -55q9 -38 33 -42q5 -1 10 -1q27 -1 53 27q30 32 43 78q3 3 10.5 -1t10.5 -16.5t-9 -41.5q-23 -53 -85 -93q-46 -30 -93 -30q-17 0 -33 4q-66 16 -88 98q-11 42 -12 114q0 67 10 161l21 213q-32 4 -84 8q-16 1 -24 12q-7 10 -7 19 q0 8 2 16z" />
<glyph unicode="u" horiz-adv-x="575" d="M4 231q2 16 7.5 55.5t7 51.5t4.5 40t3 42v34.5t-1 39.5l9 4q8 4 16.5 7.5t22 8t26.5 6t27 1.5t27.5 -5.5t24.5 -15.5q28 -26 28 -73.5t-26 -139.5q-18 -65 -19 -111v-7q0 -41 11 -60q12 -21 33 -21q32 0 65.5 48t48.5 114q0 45 7 110q10 74 42 112q30 35 66 35h6 q40 -3 76 -38q-17 -55 -29 -190q-4 -57 -4 -96q0 -31 3 -51q6 -44 30 -52q7 -2 14 -2q24 0 44 26q26 34 40 84q2 6 13 -1q10 -7 10.5 -21t-10.5 -35q-29 -69 -92 -111q-43 -28 -86 -28q-20 0 -39 6q-64 21 -84 154q-34 -78 -90 -120q-49 -37 -102 -37q-7 0 -15 1 q-59 6 -94 66q-25 42 -25 111q0 27 4 58z" />
<glyph unicode="v" horiz-adv-x="483" d="M4 231q12 83 13 149v25q0 50 -3 89q9 5 23 10t42 12.5t55.5 4t45.5 -20.5q28 -28 28 -73t-28 -140q-18 -65 -19 -111v-7q0 -41 11 -60q12 -21 33 -21q20 0 54.5 28.5t66.5 69.5q-37 42 -47 84q-10 45 -10 90q1 12 1 25q4 58 34 102q30 43 75 43h2q61 -3 71 -88 q2 -17 3 -34q0 -70 -35 -148q-11 -26 -35 -65q26 -11 47 -9q9 0 18 3t16.5 7.5t15 10.5t13 11.5t11 12.5t8.5 11t6 9l4 5q6 8 15 -1q6 -6 6 -15q0 -12 -10 -29q-40 -72 -111 -72q-31 0 -66 21q-58 -70 -128 -118q-66 -46 -106 -46h-5q-59 6 -94 66q-25 42 -25 111q0 27 4 58 zM328 287q3 -40 24 -64q6 9 21 39q23 55 23 92q0 41 -23 47h-3q-22 1 -34 -31q-9 -23 -10 -54q0 -14 2 -29z" />
<glyph unicode="w" horiz-adv-x="794" d="M4 231q12 87 12 171q0 47 -4 92l6 3q7 3 13 5t16.5 6t20.5 6.5t22.5 4.5t24 2t23 -1.5t22.5 -6.5t20 -13q28 -28 28 -73t-28 -140q-18 -65 -19 -111v-7q0 -41 11 -60q12 -21 33 -21q24 0 53 42.5t53 109.5q0 43 2 59q10 107 47 157q34 45 86 44h11q34 -3 45 -32 q4 -11 4 -27q0 -24 -10 -56q-2 -7 -19.5 -51.5t-25.5 -85.5q-6 -29 -6 -54q1 -37 15 -63q24 -43 58 -43q22 0 57 27.5t66 68.5q-38 42 -49 86q-11 46 -11 93q0 11 1 22q3 58 33 102q29 43 75 43h2q62 -3 72 -88q2 -17 3 -34q0 -70 -34 -148q-12 -30 -33 -65q23 -12 45 -9 q9 0 18 3t16.5 7.5t15 10.5t13 11.5t11.5 12.5t9 11t6 9l4 5q6 8 14 -1q6 -6 6 -15q0 -12 -10 -29q-15 -28 -44 -50t-67 -22q-33 0 -61 19q-56 -77 -125 -122q-62 -40 -109 -40h-10q-47 4 -75 47t-38 107q-42 -80 -97 -120q-49 -35 -92 -35q-5 0 -11 1q-59 6 -94 66 q-25 42 -25 111q0 27 4 58zM641 287q2 -32 25 -66l20 41q23 54 23 91q0 43 -25 48h-2q-20 0 -34 -32q-9 -24 -9 -54q0 -13 2 -28z" />
<glyph unicode="x" horiz-adv-x="573" d="M-10 102q53 97 78 215l-25 43q-20 39 -20 70q-1 17 5 32q16 43 62 46h8q36 0 58 -24q17 -19 17 -50q0 -12 -3 -26q2 -13 90 -140l25 -35q82 99 82 206v12q0 11 -5 73q12 7 30 14t52.5 7t57.5 -21q34 -32 34 -85q0 -23 -6 -50q-19 -71 -194 -219q86 -96 164 -96 q37 0 67 34t45 80q0 5 10 0q12 -7 12 -23q0 -14 -9 -34q-31 -68 -89 -109q-41 -29 -88 -29q-19 0 -40 5q-66 16 -156 100l-33 -28q-70 -61 -80 -105q-2 1 -16 0h-3q-13 -1 -28 7q-17 8 -20 26q-4 20 11.5 41.5t57.5 58.5l58 52q-39 42 -88 104q-30 -70 -70 -137 q-25 -43 -46 -26q-6 4 -6 8q0 2 1 3z" />
<glyph unicode="y" horiz-adv-x="548" d="M4 231q24 161 24 241q0 12 -1 22q55 28 95 28q35 0 58 -22q26 -26 26 -75t-26 -138q-18 -65 -19 -111v-7q0 -41 11 -60q12 -21 33 -21q29 0 61 41.5t47 101.5l29 154q13 63 45 95q28 27 62 27h9q39 -4 74 -38q0 -1 -6.5 -21t-19 -75.5t-21.5 -128.5q-14 -125 -26 -205 q50 32 90 80q30 33 39 69q2 6 13 -1q10 -7 10 -20q0 -15 -11 -36q-50 -95 -151 -141q-32 -184 -105 -305q-35 -57 -80 -88t-84 -34q-7 -1 -15 -1q-29 0 -53 10q-31 11 -46 33q-20 32 -22 77v7q0 42 18 89q18 50 74.5 100.5t142.5 84.5l6 4q0 2 1 6.5t1 6.5q1 16 4.5 58 t5.5 62q-69 -105 -163 -105q-7 0 -15 1q-59 7 -94 66q-25 43 -25 111q0 27 4 58zM96 -330q8 -30 40 -30q6 0 12 2q43 6 69 47q40 73 64 235q-105 -44 -153 -120q-36 -57 -36 -103q0 -16 4 -31z" />
<glyph unicode="z" horiz-adv-x="542" d="M2 109q62 115 88 270q-37 37 -48 87q-4 18 -4 36q0 33 13 67q10 27 32 41q18 11 36 12l8 -1q22 -3 38.5 -25t16.5 -59q0 -25 -2 -39q35 -17 116 -20q22 -1 42 -1q54 0 96 6q28 42 53 60.5t41 14.5t25 -23q3 -7 3 -16q0 -29 -26 -73q-34 -58 -110 -94q-25 -50 -31 -65 q-47 -105 -67 -140q108 -53 157 -53q5 0 10 1q48 6 76 93q2 6 12 -1t10 -22q0 -14 -9 -34q-68 -150 -192 -150q-17 0 -34 3q-66 11 -123 39q-45 -45 -83 -45q-8 0 -15 2q-40 11 -40 65q0 55 42 95q37 35 89 35q24 0 50 -7q36 55 64 123l14 37q-43 -10 -57 -11q-16 -2 -32 -2 q-61 0 -118 25q-47 -146 -96 -219q-26 -41 -42 -23q-4 5 -4 8q0 2 1 3z" />
<glyph unicode="{" horiz-adv-x="894" d="M1 268q-3 12 5 24l8 11q124 -11 182.5 56.5t59.5 186.5t-4 273q-12 259 118 370t416 62q31 -6 40 -21.5t-3.5 -28t-34.5 -11.5q-103 9 -173.5 -16.5t-107.5 -83.5t-50 -136t-6 -184q24 -399 -224 -494q58 -21 102.5 -58.5t79 -99t44.5 -145.5t-2 -198q-29 -229 46.5 -323 t293.5 -58q22 3 35 -9t5.5 -28t-36.5 -23q-304 -76 -439.5 28t-105.5 374q9 82 12.5 138t1.5 117t-16 101t-39 75.5t-67 56t-101 28.5q-3 0 -7.5 1t-6.5 1q-23 2 -26 14z" />
<glyph unicode="|" horiz-adv-x="337" d="M37.5 -416q-2.5 80 4.5 256.5t18.5 378.5t35.5 584q9 124 -2 227q5 3 12.5 7t30 12t42.5 11.5t44 -1t41 -19.5q33 -29 36 -87t-13 -162q-138 -997 -121 -1291q1 -25 2.5 -48t2 -26t-0.5 -8q-36 -19 -72.5 -8.5t-46.5 51.5q-11 43 -13.5 123z" />
<glyph unicode="}" horiz-adv-x="894" d="M2 1191q-10 21 17 35q9 4 22 7q304 76 439 -28t104 -374q-8 -69 -12 -119t-4 -104t7 -92.5t22.5 -75t40.5 -60.5t62.5 -42t87.5 -25h19q23 -2 26 -14t-5 -23l-9 -12q-124 11 -181 -55t-59 -184t3 -272v-7q14 -256 -117 -367t-418 -63q-31 6 -39.5 21.5t4.5 28.5t35 11 q102 -9 172.5 17t107.5 84t50.5 136t7.5 183q-14 211 46.5 331t174.5 163q-122 42 -186 166.5t-37 337.5q29 228 -45.5 321.5t-292.5 59.5q-31 -5 -43 15z" />
<glyph unicode="~" horiz-adv-x="450" d="M2 645q3 39 33 62.5t80 19.5q52 -2 130 -34.5t95 -35.5q30 -6 43 12.5t10 45.5l21 -8q40 -22 37 -56q-5 -40 -32.5 -57t-84.5 -16q-25 1 -91 13t-104 21q-49 11 -72.5 -1.5t-27.5 -35.5q0 -3 -10.5 3t-20 23.5t-6.5 43.5z" />
<glyph unicode="&#xa1;" horiz-adv-x="360" d="M93 -102q-4 53 30 157q53 138 90 254q5 19 8.5 40.5t4.5 33.5l1 12q14 8 34.5 1.5t27.5 -27.5q3 -36 1 -66t-7 -113t-7 -145q-6 -141 11 -225q-4 -3 -11 -7t-27 -12t-38.5 -11.5t-40.5 1t-37 19.5q-36 35 -40 88zM158 567q13 45 60.5 72t80.5 27q27 0 53 -29t25 -74 q0 -42 -38 -71t-85 -29t-77.5 31t-18.5 73z" />
<glyph unicode="&#xa2;" horiz-adv-x="436" d="M27 250q8 110 74.5 187.5t156.5 105.5q-2 33 -2 75q14 6 37 -2q15 -8 21 -21t5 -42q53 3 95 -14t57 -52t-8 -63q-21 -23 -46 -20t-45 13t-20 13q23 13 28.5 35t-9.5 35q-20 12 -56 12q-3 -32 -6 -112.5t-6.5 -185t-5.5 -155.5q45 1 77.5 36.5t51.5 92.5q2 3 9.5 -1.5 t10.5 -17t-8 -40.5q-17 -39 -54 -75t-89 -52q-4 -32 -4 -41q-2 -9 -9 -13t-13.5 -3.5t-6.5 2.5q-2 26 -2 49q-28 -3 -59 0q-68 7 -126 77t-48 177zM168 276q-9 -85 17 -141t75 -72v345q0 59 -2 86q-1 0 -2 -2t-2 -3q-73 -69 -86 -213z" />
<glyph unicode="&#xa3;" horiz-adv-x="491" d="M12.5 35q2.5 23 22.5 45q37 40 94 49l-10 78q-2 2 -2 4q-38 8 -51 14q-8 5 -14 14t-8 16.5t-1 8.5q33 -2 68 -4q-27 303 192 313q80 2 119 -45t-2 -102q-15 -21 -34.5 -29.5t-35.5 -5.5t-30.5 9t-22.5 13l-8 7q33 8 49 47q11 28 -3.5 49.5t-49.5 20.5q-106 -6 -78 -215 q4 -40 4 -58q55 4 96 10q4 -13 -2 -38q-12 -43 -90 -37h-10q-10 -39 -21 -66q44 -3 88 -24q53 -27 82.5 -33t43 7t14.5 48q2 7 14 5q20 -3 14 -46q-7 -49 -53.5 -81.5t-118.5 -22.5q-47 8 -79 30t-46 47q-49 -58 -92 -71q-18 -4 -29.5 8t-9 35z" />
<glyph unicode="&#xa4;" horiz-adv-x="538" d="M-20 279l88 116q-24 47 -21 115q6 84 45 143q-70 73 -82 92q-16 20 -12.5 31.5t10.5 16t12 4.5q1 0 121 -90q60 51 148 51q72 0 125 -56q54 50 73 64q21 16 32.5 13t15.5 -9.5t4 -11.5q0 -3 -90 -121q17 -52 14 -109q-6 -81 -45 -139q77 -81 90 -98q16 -21 13 -33 t-9.5 -16t-11.5 -4q-2 0 -133 100q-53 -39 -136 -39q-70 0 -120 41l-78 -72q-20 -16 -32 -12.5t-16.5 11t-4.5 12.5zM182 524q-6 -93 14.5 -142.5t57.5 -49.5q31 0 52.5 48t29.5 128q12 98 -5 156.5t-52 58.5q-37 0 -63 -56.5t-34 -142.5z" />
<glyph unicode="&#xa5;" horiz-adv-x="555" d="M12 508q2 3 5.5 9t15.5 20t25.5 24t33.5 16.5t41 2.5q28 -6 49.5 -34.5t34.5 -70t20.5 -81t10.5 -79.5q0 -10 2.5 -32t3.5 -29l31 82q47 140 55 231q5 1 12.5 3t29 4t39.5 0t38 -12.5t30 -29.5q53 -90 -67 -213q-36 -36 -62 -71q48 3 70 10q4 -15 -2 -33q-8 -31 -84 -28 q-15 0 -25 2l-26 -37q81 6 104 12q4 -15 -2 -35q-10 -32 -84 -26q-31 0 -47 2q-11 -22 -26 -58t-24.5 -60t-10.5 -24q-20 0 -34.5 11.5t-14.5 35.5q0 20 39 103q-30 3 -43 10q-7 4 -12.5 11t-7.5 13t-1 7l82 -4l20 41l-2 2q-86 8 -98 16q-8 3 -13.5 10t-5.5 12t1 7 q47 0 98 -2q-32 75 -39 88q-36 71 -71.5 111.5t-88.5 62.5z" />
<glyph unicode="&#xa6;" horiz-adv-x="346" d="M39 322q-4 15 1 72.5t15.5 172t14.5 224.5q2 129 -13 239q2 4 5.5 9.5t17 17t30 16t45 -2.5t60.5 -30q36 -25 42.5 -85t-7.5 -164q-30 -266 -42 -328q-26 -129 -83 -162q-8 -5 -16 -8q-58 -25 -70 29zM39 -551q-4 15 1 72.5t15.5 172t14.5 224.5q2 130 -13 240 q2 4 5.5 9.5t17 17t30 16t45 -2.5t60.5 -30q36 -25 42.5 -85.5t-7.5 -164.5q-30 -266 -42 -328q-26 -129 -83 -162q-8 -5 -16 -8q-60 -22 -70 29z" />
<glyph unicode="&#xa7;" horiz-adv-x="493" d="M40.5 29q8.5 30 30 46.5t49.5 22t56 -9.5q31 -16 34.5 -39t-8.5 -38l-12 -15q-31 26 -59.5 19.5t-30.5 -31.5q-5 -34 26.5 -57t94.5 -23q120 0 137 71q5 34 -18.5 62t-103.5 55q-83 26 -123 75t-27 107q8 33 37.5 59t73.5 38q-65 28 -94 72t-17 96q12 47 63 75t125 25 q45 -2 79.5 -12.5t52 -25.5t26.5 -32t8.5 -31.5t-6.5 -23.5q-24 -35 -77 -19q-18 6 -17 9q28 38 8 67.5t-76 34.5q-39 3 -66.5 -10t-29.5 -31q0 -40 123 -80q91 -30 129 -79t23 -127q-13 -61 -66 -99q86 -56 66 -166q-12 -63 -76.5 -103.5t-157.5 -39.5q-56 0 -107 23 t-67 71q-11 34 -2.5 64zM176 301q0 -40 123 -80q6 -2 20 -7.5t21 -8.5q11 11 18 35q4 30 -14.5 55.5t-79.5 50.5q-36 -1 -61 -15t-27 -30z" />
<glyph unicode="&#xa8;" horiz-adv-x="489" d="M2 717q3 43 40 70.5t83 27.5q45 0 73.5 -27.5t24.5 -70.5q-3 -39 -56 -78t-81 -39q-27 0 -57.5 38.5t-26.5 78.5zM266 717q3 43 40 70.5t83 27.5q45 0 73.5 -27.5t24.5 -70.5q-3 -39 -56 -78t-83 -39q-26 0 -56 38.5t-26 78.5z" />
<glyph unicode="&#xa9;" horiz-adv-x="538" d="M61 248q0 88 60.5 149.5t148.5 61.5h2q86 0 145.5 -61.5t59.5 -149.5q0 -89 -59.5 -151t-147.5 -62t-148.5 62t-60.5 151zM96 246q0 -77 50.5 -130t123.5 -53q72 0 123 53.5t51 131.5q0 76 -51 130t-123 54q-73 0 -123.5 -54t-50.5 -132zM156 244q0 57 38.5 93t92.5 36 q32 0 67 -15q3 -1 -1 -14.5t-7 -13.5q-20 12 -59 12q-46 0 -70 -26.5t-24 -69.5q0 -42 24.5 -69t69.5 -27q31 0 63 12q2 2 10 -25q-38 -18 -79 -18q-58 0 -91.5 35.5t-33.5 89.5z" />
<glyph unicode="&#xab;" horiz-adv-x="606" d="M63 293v2l7 6l2 2l112 86q79 59 154 123q17 -10 27 -41q6 -25 -8.5 -44t-61.5 -50q-39 -28 -97 -58t-87 -40l84 -74q47 -43 77 -68.5t48 -39.5t24 -19q-4 -21 -35 -35q-22 -11 -43.5 -0.5t-62.5 51.5q-37 37 -80.5 92t-52.5 76q-11 19 -7 31zM248 252q-19 35 4 43l108 84 q41 30 70 52.5t40.5 32t25 22t18.5 16.5q19 -8 29 -41q5 -24 -9.5 -43.5t-62.5 -50.5q-40 -27 -95 -58t-83 -41l86 -61q93 -65 164 -111q-4 -19 -31 -37q-21 -13 -45.5 -5t-67.5 44q-44 37 -92.5 86t-58.5 68z" />
<glyph unicode="&#xad;" horiz-adv-x="444" d="M29 279h1q28 3 152 8q86 6 197 18q10 -18 -2 -49q-7 -23 -29.5 -31t-81.5 -8q-51 0 -121 7.5t-92 15.5q-36 14 -24 39z" />
<glyph unicode="&#xae;" horiz-adv-x="354" d="M61 371q0 47 34 79.5t83 32.5t82 -32.5t33 -79.5q0 -48 -33 -80.5t-82 -32.5t-83 33t-34 80zM90 371q0 -37 25 -63.5t63 -26.5q36 0 61 26.5t25 63.5t-25 63.5t-61 26.5h-2q-36 0 -61 -26.5t-25 -63.5zM133 311v115q4 0 18.5 1t24.5 1q51 0 51 -33q0 -19 -22 -26v-2 q13 -3 20 -27q3 -23 6 -29h-26q-1 1 -10 29q-3 18 -23 18h-12v-47h-27zM162 377h12q25 0 25 14q0 19 -25 19q-10 0 -12 -2v-31z" />
<glyph unicode="&#xaf;" horiz-adv-x="487" d="M2 664q3 8 6 10q3 3 193 12q114 7 280 21q12 -21 0 -58q-9 -29 -37.5 -39.5t-95.5 -9.5q-75 3 -177.5 12.5t-135.5 16.5q-22 5 -29 16t-4 19z" />
<glyph unicode="&#xb0;" horiz-adv-x="489" d="M39 754q6 109 72.5 178t167.5 69q81 0 131 -61t43 -168q-6 -105 -67.5 -167t-162.5 -62q-87 0 -138.5 59t-45.5 152zM174 770q-7 -94 13 -144.5t57 -50.5q31 0 53 49t31 130q10 99 -7 157t-53 58q-37 0 -62.5 -56.5t-31.5 -142.5z" />
<glyph unicode="&#xb1;" horiz-adv-x="432" d="M41 94h2q29 3 152 8q57 4 196 19q10 -18 -2 -49q-8 -23 -30 -31t-80 -8q-52 0 -121.5 7t-91.5 15q-37 15 -25 39zM41 315l3 1q2 0 10 0.5t22 1.5t41.5 2.5t64.5 3.5q-8 108 -14 151q18 10 49 0q23 -9 31 -31t8 -79q0 -25 -2 -37q60 4 137 14q10 -18 -2 -49 q-8 -23 -30 -31t-80 -8h-29q-7 -80 -17 -104q-7 -18 -16 -24.5t-14 -2.5t-8 4q-3 10 -9 131q-90 7 -120 18q-37 15 -25 39z" />
<glyph unicode="&#xb4;" horiz-adv-x="380" d="M1 579.5q1 4.5 1 6.5q0 3 100 57q167 83 217 152q7 -1 17.5 -4t27.5 -17.5t17 -34.5q0 -39 -40 -68.5t-124 -52.5q-135 -40 -190 -49q-13 -2 -20 2t-6 8.5z" />
<glyph unicode="&#xb5;" horiz-adv-x="575" d="M-45 -379q-5 52 2 134.5t22.5 207t22.5 211.5q-3 30 2 57q2 16 7.5 55.5t7 51.5t4.5 40t3 42v34.5t-1 39.5l9 4q8 4 16.5 7.5t22 8t26.5 6t27 1.5t27.5 -5.5t24.5 -15.5q28 -26 28 -73.5t-26 -139.5q-19 -67 -13 -111.5t23 -66t39 -21.5q57 0 90 162q0 45 7 110 q9 75 41.5 112.5t72.5 34.5t76 -38q-17 -55 -29 -190q-8 -103 -1.5 -147.5t30.5 -51.5q31 -10 57.5 24.5t40.5 83.5q2 6 13 -1q21 -14 0 -56q-29 -69 -92 -110.5t-125 -22.5q-62 18 -82 147q-26 -79 -61 -114t-99 -35q-32 0 -68 20q-20 -208 -20 -344q0 -34 1 -62.5t1.5 -32 t-0.5 -9.5q-45 -26 -82.5 -13.5t-44.5 66.5z" />
<glyph unicode="&#xb6;" horiz-adv-x="1415" d="M39 489q-1 85 34 166.5t106 152t169.5 123t233.5 81t288 24.5q104 -3 193.5 -25.5t161 -64.5t112 -109t39.5 -153t-55 -164t-123 -117q-25 -15 -32 22q-8 36 6 54q2 3 4 4q45 30 82 80.5t40 95.5q3 127 -113 215.5t-327 98.5q-50 3 -104 0q20 -34 19.5 -86t-19.5 -142 q-141 -674 -166 -907q-4 -29 -2.5 -46t2.5 -26l2 -8q-33 -17 -67 -6.5t-44 49.5q-9 41 27 328q4 35 6 53q-53 -1 -103 3.5t-105.5 16t-101.5 34.5t-83.5 56t-58.5 83.5t-21 113.5zM766 -199q-8 33 3 129.5t35 305.5t38 423q7 122 -4 228q5 3 12.5 7t30 12t42.5 11.5t44 -1 t41 -19.5q35 -30 39.5 -88t-19.5 -162q-123 -587 -140 -696q-9 -60 -14 -113q-4 -29 -2.5 -45.5t3.5 -25.5l2 -9q-33 -17 -68 -6.5t-43 49.5z" />
<glyph unicode="&#xb8;" horiz-adv-x="274" d="M2 -164q10 71 61 122.5t132 94.5q9 5 10.5 -6.5t-10.5 -17.5q-31 -15 -56.5 -68.5t-29.5 -118.5q-4 -48 18.5 -72t55.5 -20.5t63 27.5q7 4 21 -6.5t1 -22.5q-37 -33 -87 -46t-92.5 -4t-68.5 45.5t-18 92.5z" />
<glyph unicode="&#xba;" horiz-adv-x="489" d="M39 754q6 109 72.5 178t167.5 69q81 0 131 -61t43 -168q-6 -105 -67.5 -167t-162.5 -62q-87 0 -138.5 59t-45.5 152zM174 770q-7 -94 13 -144.5t57 -50.5q31 0 53 49t31 130q10 99 -7 157t-53 58q-37 0 -62.5 -56.5t-31.5 -142.5z" />
<glyph unicode="&#xbb;" horiz-adv-x="606" d="M57 80q-5 24 9.5 43t60.5 51q41 27 95.5 56.5t84.5 39.5l-86 64q-75 53 -164 110q4 19 31 37q21 13 44.5 5t68.5 -44q42 -36 90.5 -85t60.5 -68q8 -16 8 -26.5t-4 -13.5t-8 -3l-110 -84q-51 -38 -82 -62.5t-47.5 -39.5t-24.5 -21q-19 8 -27 41zM236 70q-6 25 8 44t61 50 q42 28 98.5 58.5t83.5 39.5l-81 74q-47 43 -77.5 68.5t-48 39t-24.5 19.5q4 21 35 35q22 10 43.5 -0.5t62.5 -51.5q38 -38 81 -92t52 -75q10 -23 7 -31v-2q0 -2 -7 -6v-2l-114 -86q-79 -59 -154 -123q-18 10 -26 41z" />
<glyph unicode="&#xbc;" horiz-adv-x="948" d="M39 860l4 17q43 8 87.5 45.5t70.5 70.5q12 15 39.5 9t29.5 -17q0 -1 -7 -25.5t-16.5 -84t-13.5 -130.5q-4 -88 -5 -194t-3 -125q-86 -10 -123 6q-54 24 -34 135q5 27 14 58.5t26 77.5t25 68t33 83.5t29 71.5q-3 -6 -9 -16t-23 -34t-32.5 -42t-33.5 -30t-31 -7 q-19 7 -25 27t-2 36zM156 23q8 55 59 184.5t123.5 301t107.5 269.5q37 104 37 207q8 2 21.5 4.5t45 -3t50.5 -25.5q24 -20 21.5 -76.5t-35.5 -124.5t-129 -240t-158.5 -300t-71.5 -191l-8 -58q-27 -6 -46.5 7.5t-16.5 44.5zM408 63q2 33 34.5 54.5t77.5 15.5q1 0 4.5 -1 t5.5 -1q0 4 2 6q31 75 44.5 158t10 143.5t-17.5 93.5q0 1 4 4t11.5 6.5t17 7t21.5 5.5t24 2t25 -3.5t24 -10.5q51 -31 17 -154q-46 -154 -121 -266q11 -1 55.5 -7t67.5 -7q23 60 43 102q17 36 36 50t30 11t14 -10l-2 -4q-2 -5 -6 -15.5t-8.5 -27t-9.5 -45t-9 -64.5 q71 6 80 39q1 0 7 2t13 -7.5t8 -28.5q2 -43 -31 -74t-85 -37q-2 -36 -2.5 -65t1.5 -51.5t3.5 -34.5t5 -29t4.5 -21q-65 -14 -102 2q-30 13 -40 42.5t-1 97.5q2 18 14 63q-85 16 -146 45q-38 -38 -67 -41q-24 -3 -42 12.5t-15 42.5z" />
<glyph unicode="&#xbd;" horiz-adv-x="1060" d="M39 860l4 17q43 8 87.5 45.5t70.5 70.5q12 15 39.5 9t29.5 -17q0 -1 -7 -25.5t-16.5 -84t-13.5 -130.5q-4 -88 -5 -194t-3 -125q-86 -10 -123 6q-54 24 -34 135q5 27 14 58.5t26 77.5t25 68t33 83.5t29 71.5q-3 -6 -9 -16t-23 -34t-32.5 -42t-33.5 -30t-31 -7 q-19 7 -25 27t-2 36zM156 23q8 55 59 184.5t123.5 301t107.5 269.5q37 104 37 207q8 2 21.5 4.5t45 -3t50.5 -25.5q24 -20 21.5 -76.5t-35.5 -124.5t-129 -240t-158.5 -300t-71.5 -191l-8 -58q-27 -6 -46.5 7.5t-16.5 44.5zM489.5 369.5q-2.5 32.5 11.5 67t43.5 63t86 47 t131.5 18.5q77 0 129 -17t74.5 -45t26 -64.5t-10.5 -73.5t-41 -74q-77 -100 -176 -193q69 -39 117.5 -36t76.5 32.5t46 87.5q2 5 11 -1q20 -14 1 -58q-35 -77 -100 -117t-138 -29q-73 14 -123 37q-62 -43 -94 -43q-31 0 -43 36.5t10 82.5q23 43 72 56t107 -15q42 42 84 102 q41 57 54.5 112.5t2 94.5t-43 63t-75.5 23q-52 -1 -84 -29t-34.5 -66.5t12.5 -78.5q9 -19 20 -32t18 -16l7 -3q-5 -3 -13 -8t-30 -13.5t-42 -10.5t-42 7.5t-35 34.5q-14 26 -16.5 58.5z" />
<glyph unicode="&#xbe;" horiz-adv-x="1292" d="M37.5 402.5q1.5 30.5 19.5 52.5q19 24 44 36.5t44.5 14t41 -3t29.5 -7.5t13 -6l-3 -2q-4 -2 -8.5 -5.5t-10 -8.5t-12 -14.5t-11.5 -20.5q-32 -69 -5.5 -121t97.5 -53q56 -2 92.5 41.5t43.5 124.5q6 81 -29.5 119t-124.5 39q-16 -2 -47 -2q-4 0 -8 13.5t2 26t26 9.5 q103 -19 172 45q64 57 70 147q3 61 -30 95.5t-101 33.5q-52 -1 -82.5 -29.5t-31.5 -67t14 -77.5q9 -19 20 -32t18 -16l7 -3q-4 -3 -10.5 -7.5t-26 -13t-37 -10.5t-39.5 7.5t-37 33.5q-17 26 -17.5 60t17 67.5t48 62t80 46.5t108.5 18q108 0 164 -39t61 -102q4 -81 -48 -138 t-138 -91q87 -15 135 -58.5t43 -101.5q-10 -95 -103 -167.5t-229 -72.5q-50 0 -93.5 16.5t-70.5 43t-42.5 57t-14 61zM500 23q8 55 59.5 184.5t124 301t107.5 269.5q36 101 36 207q8 2 21.5 4.5t45 -3t50.5 -25.5q24 -20 21.5 -76.5t-35.5 -124.5t-129 -240t-158.5 -300 t-71.5 -191l-8 -58q-27 -6 -46.5 7.5t-16.5 44.5zM752 63q2 33 34.5 54.5t77.5 15.5q1 0 4.5 -1t5.5 -1q0 3 3 6q31 75 44 158t9.5 143.5t-17.5 93.5q0 1 4 4t11.5 6.5t17 7t21.5 5.5t24 2t25 -3.5t24 -10.5q51 -31 17 -154q-46 -154 -121 -266q11 -1 55.5 -7t67.5 -7 q23 60 43 102q17 36 36 50t30 11t14 -10l-2 -4q-2 -5 -6 -15.5t-8.5 -27t-9.5 -45t-9 -64.5q71 6 80 39q1 0 7 2t13 -7.5t8 -28.5q2 -43 -31 -74t-85 -37q-2 -36 -2.5 -65t1.5 -51.5t3.5 -34.5t5 -29t4.5 -21q-65 -14 -102 2q-30 13 -40 42.5t-1 97.5q2 18 14 63 q-84 15 -145 45q-38 -38 -68 -41q-24 -3 -42 12.5t-15 42.5z" />
<glyph unicode="&#xbf;" horiz-adv-x="534" d="M4 -94q6 72 60.5 138.5t162.5 143.5q58 41 84 80t23 90q-1 8 23 10q38 2 45 -25q2 -7 1 -15q-6 -34 -50 -89.5t-144 -164.5q-77 -92 -74 -166q2 -53 39 -84t98 -31q52 1 82 29t30.5 67t-15.5 80q-8 19 -19.5 31.5t-18.5 15.5l-7 2q5 3 14 8t33 14t44.5 11t44 -8t36.5 -35 q14 -26 16.5 -58t-11.5 -67t-43.5 -63.5t-86 -47t-131.5 -18.5q-119 0 -180 43.5t-56 108.5zM238 524q13 45 60.5 72t80.5 27q27 0 53.5 -29t26.5 -74q-1 -42 -40.5 -71t-86.5 -29q-45 0 -76 31.5t-18 72.5z" />
<glyph unicode="&#xc0;" horiz-adv-x="1239" d="M9 -198q-29 89 26 192q36 69 90 123.5t108 84.5t103.5 44.5t85.5 11.5q26 -3 42 -17t19.5 -32t2.5 -36t-5 -30t-6 -12q-126 16 -227 -19.5t-156 -125.5q-30 -49 -32 -105t24.5 -98t73.5 -51q91 -15 200.5 112.5t190.5 348.5q210 587 420 679q-7 53 -31 80q5 3 13 7 t31.5 12.5t45 12t47 0t43.5 -18.5q49 -42 50 -138.5t-42 -312.5q-37 -180 -47 -328q32 12 68 35q2 -1 4.5 -4t8.5 -12.5t9 -19.5t2.5 -26.5t-6.5 -33.5q-16 -51 -88 -74q5 -117 34.5 -175.5t64.5 -63.5q33 -5 61 27t41 73q2 3 9.5 -1t10.5 -16.5t-8 -41.5 q-26 -55 -91.5 -101.5t-131.5 -32.5q-122 30 -135 316q-191 4 -277 41q-90 -214 -231 -315t-287 -70q-99 22 -128 111zM690 162h240q0 79 14 233q29 337 27 418q-128 -99 -258 -575zM844 1182q0 20 16 35t32 21l15 5q55 -77 215 -156q49 -26 89 -45q14 -7 14 -8t1 -5.5 t-6.5 -8.5t-21.5 -2q-67 11 -192 45q-85 25 -123.5 52.5t-38.5 66.5z" />
<glyph unicode="&#xc1;" horiz-adv-x="1239" d="M9 -198q-29 89 26 192q36 69 90 123.5t108 84.5t103.5 44.5t85.5 11.5q26 -3 42 -17t19.5 -32t2.5 -36t-5 -30t-6 -12q-126 16 -227 -19.5t-156 -125.5q-30 -49 -32 -105t24.5 -98t73.5 -51q91 -15 200.5 112.5t190.5 348.5q210 587 420 679q-7 53 -31 80q5 3 13 7 t31.5 12.5t45 12t47 0t43.5 -18.5q49 -42 50 -138.5t-42 -312.5q-37 -180 -47 -328q32 12 68 35q2 -1 4.5 -4t8.5 -12.5t9 -19.5t2.5 -26.5t-6.5 -33.5q-16 -51 -88 -74q5 -117 34.5 -175.5t64.5 -63.5q33 -5 61 27t41 73q2 3 9.5 -1t10.5 -16.5t-8 -41.5 q-26 -55 -91.5 -101.5t-131.5 -32.5q-122 30 -135 316q-191 4 -277 41q-90 -214 -231 -315t-287 -70q-99 22 -128 111zM690 162h240q0 79 14 233q29 337 27 418q-128 -99 -258 -575zM853 1018.5q1 4.5 1 5.5q0 3 100 57q167 83 217 152q7 -1 17.5 -4t27.5 -17t17 -34 q0 -39 -40 -68.5t-124 -52.5q-135 -40 -190 -49q-13 -2 -20 2t-6 8.5z" />
<glyph unicode="&#xc2;" horiz-adv-x="1239" d="M9 -198q-29 89 26 192q36 69 90 123.5t108 84.5t103.5 44.5t85.5 11.5q26 -3 42 -17t19.5 -32t2.5 -36t-5 -30t-6 -12q-126 16 -227 -19.5t-156 -125.5q-30 -49 -32 -105t24.5 -98t73.5 -51q91 -15 200.5 112.5t190.5 348.5q210 587 420 679q-7 53 -31 80q5 3 13 7 t31.5 12.5t45 12t47 0t43.5 -18.5q49 -42 50 -138.5t-42 -312.5q-37 -180 -47 -328q32 12 68 35q2 -1 4.5 -4t8.5 -12.5t9 -19.5t2.5 -26.5t-6.5 -33.5q-16 -51 -88 -74q5 -117 34.5 -175.5t64.5 -63.5q33 -5 61 27t41 73q2 3 9.5 -1t10.5 -16.5t-8 -41.5 q-26 -55 -91.5 -101.5t-131.5 -32.5q-122 30 -135 316q-191 4 -277 41q-90 -214 -231 -315t-287 -70q-99 22 -128 111zM690 162h240q0 79 14 233q29 337 27 418q-128 -99 -258 -575zM815 981.5v7.5q12 8 100 76q96 73 131 93.5t52 10.5q19 -10 92.5 -79t87.5 -89 q7 -7 9.5 -12.5t1 -9t-4 -5.5t-5.5 -4l-3 -1l-123 67q-80 43 -82 45q-47 -29 -84 -47q-83 -44 -141 -61q-15 -4 -23 -0.5t-8 9z" />
<glyph unicode="&#xc3;" horiz-adv-x="1239" d="M9 -198q-29 89 26 192q36 69 90 123.5t108 84.5t103.5 44.5t85.5 11.5q26 -3 42 -17t19.5 -32t2.5 -36t-5 -30t-6 -12q-126 16 -227 -19.5t-156 -125.5q-30 -49 -32 -105t24.5 -98t73.5 -51q91 -15 200.5 112.5t190.5 348.5q210 587 420 679q-7 53 -31 80q5 3 13 7 t31.5 12.5t45 12t47 0t43.5 -18.5q49 -42 50 -138.5t-42 -312.5q-37 -180 -47 -328q32 12 68 35q2 -1 4.5 -4t8.5 -12.5t9 -19.5t2.5 -26.5t-6.5 -33.5q-16 -51 -88 -74q5 -117 34.5 -175.5t64.5 -63.5q33 -5 61 27t41 73q2 3 9.5 -1t10.5 -16.5t-8 -41.5 q-26 -55 -91.5 -101.5t-131.5 -32.5q-122 30 -135 316q-191 4 -277 41q-90 -214 -231 -315t-287 -70q-99 22 -128 111zM690 162h240q0 79 14 233q29 337 27 418q-128 -99 -258 -575zM809 1098q3 39 33 62.5t80 19.5q52 -2 130 -34.5t95 -35.5q30 -6 43 12.5t10 44.5l21 -8 q39 -21 36 -55q-5 -40 -32 -57.5t-84 -16.5q-68 4 -195 35q-49 11 -72.5 -1.5t-27.5 -35.5q0 -3 -10.5 3t-20 23.5t-6.5 43.5z" />
<glyph unicode="&#xc4;" horiz-adv-x="1239" d="M9 -198q-29 89 26 192q36 69 90 123.5t108 84.5t103.5 44.5t85.5 11.5q26 -3 42 -17t19.5 -32t2.5 -36t-5 -30t-6 -12q-126 16 -227 -19.5t-156 -125.5q-30 -49 -32 -105t24.5 -98t73.5 -51q91 -15 200.5 112.5t190.5 348.5q210 587 420 679q-7 53 -31 80q5 3 13 7 t31.5 12.5t45 12t47 0t43.5 -18.5q49 -42 50 -138.5t-42 -312.5q-37 -180 -47 -328q32 12 68 35q2 -1 4.5 -4t8.5 -12.5t9 -19.5t2.5 -26.5t-6.5 -33.5q-16 -51 -88 -74q5 -117 34.5 -175.5t64.5 -63.5q33 -5 61 27t41 73q2 3 9.5 -1t10.5 -16.5t-8 -41.5 q-26 -55 -91.5 -101.5t-131.5 -32.5q-122 30 -135 316q-191 4 -277 41q-90 -214 -231 -315t-287 -70q-99 22 -128 111zM690 162h240q0 79 14 233q29 337 27 418q-128 -99 -258 -575zM827 1151q3 43 40 70.5t83 27.5q45 0 74 -27.5t25 -70.5q-3 -39 -56 -78t-82 -39 q-27 0 -57.5 38.5t-26.5 78.5zM1092 1151q3 43 39.5 70.5t82.5 27.5q45 0 74 -27.5t25 -70.5q-3 -39 -56 -78t-83 -39q-26 0 -56 38.5t-26 78.5z" />
<glyph unicode="&#xc5;" horiz-adv-x="1239" d="M9 -198q-29 89 26 192q36 69 90 123.5t108 84.5t103.5 44.5t85.5 11.5q26 -3 42 -17t19.5 -32t2.5 -36t-5 -30t-6 -12q-126 16 -227 -19.5t-156 -125.5q-30 -49 -32 -105t24.5 -98t73.5 -51q91 -15 200.5 112.5t190.5 348.5q210 587 420 679q-7 53 -31 80q5 3 13 7 t31.5 12.5t45 12t47 0t43.5 -18.5q49 -42 50 -138.5t-42 -312.5q-37 -180 -47 -328q32 12 68 35q2 -1 4.5 -4t8.5 -12.5t9 -19.5t2.5 -26.5t-6.5 -33.5q-16 -51 -88 -74q5 -117 34.5 -175.5t64.5 -63.5q33 -5 61 27t41 73q2 3 9.5 -1t10.5 -16.5t-8 -41.5 q-26 -55 -91.5 -101.5t-131.5 -32.5q-122 30 -135 316q-191 4 -277 41q-90 -214 -231 -315t-287 -70q-99 22 -128 111zM690 162h240q0 79 14 233q29 337 27 418q-128 -99 -258 -575zM893 1118q9 37 63.5 65.5t122.5 28.5q69 0 105.5 -28.5t27.5 -65.5q-9 -38 -63 -66 t-123 -28q-68 0 -105 28t-28 66zM995 1118q-7 -29 3 -50t32 -21q21 0 47 21.5t33 49.5q7 29 -3 49.5t-30 20.5q-23 0 -49 -21t-33 -49z" />
<glyph unicode="&#xc6;" horiz-adv-x="1656" d="M9 -196q-29 89 26 192q48 89 124.5 153t144.5 89.5t118 21.5q42 -4 56 -36t8 -62.5t-11 -28.5q-127 14 -227.5 -20.5t-155.5 -124.5q-47 -76 -26.5 -159t92.5 -95q86 -14 200 123t217 362q255 559 474 641q0 84 -23 96q31 26 84 29t96 -31q1 -1 9 -9.5t10 -14.5 q145 89 325 86q120 -3 184 -63.5t64 -170.5q0 -58 -23.5 -108.5t-63.5 -83t-88 -50t-101.5 -13.5t-100.5 30q-15 8 -20 30.5t-1.5 48.5t9 51t11.5 41l5 17q64 -51 120 -73t94 -16t60.5 32t26.5 68q8 85 -47.5 140t-156.5 58q-121 3 -197 -77t-92 -203q-10 -79 9.5 -143.5 t59 -103.5t93.5 -55.5t112 -4.5q23 4 32.5 -9.5t8.5 -29.5l-2 -15q-49 -9 -86 -12q-78 -14 -145 -42t-124 -70.5t-94 -105.5t-48 -140q-7 -56 4.5 -106.5t39 -88.5t68.5 -67.5t93.5 -44.5t111.5 -19t125.5 10t133 41t136 74.5t133.5 110.5q18 16 28 10.5t14 -19.5l3 -14 q-95 -93 -206 -158t-218 -94.5t-211.5 -35t-190.5 20t-149.5 70t-94.5 116.5t-21 159q9 68 41 131q-157 8 -223 35q-110 -205 -252.5 -307.5t-276.5 -73.5q-99 22 -128 111zM709 162q65 -2 237 4q7 42 22 122.5t19 102.5q51 290 60 412q-136 -93 -302 -551zM1110 240 q75 41 178 69q-79 17 -143 64z" />
<glyph unicode="&#xc7;" horiz-adv-x="657" d="M2 291q3 158 42 288.5t103.5 219t150 147.5t181.5 82t197 14q108 -10 167 -82.5t40 -168.5q-15 -86 -65.5 -147.5t-116 -86.5t-137 -22.5t-130.5 34.5q-14 8 -19 30.5t-1.5 49t8.5 51.5t10 42l6 16q64 -50 128 -73.5t113.5 -19t85.5 30.5t48 70q24 85 -23.5 147 t-144.5 66q-69 4 -130.5 -15.5t-116 -67.5t-96 -121t-68 -181t-33.5 -242q-6 -135 17.5 -245t70 -183.5t107 -119t134.5 -64.5q115 -29 237 8t214 129q18 16 28 11t13 -19l4 -14q-135 -132 -285 -185.5t-290 -29.5q-200 35 -327.5 210t-121.5 441zM385 -549q10 71 61 122.5 t132 94.5q10 5 11 -6.5t-11 -17.5q-31 -15 -56.5 -68.5t-29.5 -118.5q-4 -48 18.5 -72t55.5 -20.5t63 27.5q7 4 21 -6.5t1 -22.5q-37 -33 -87 -46t-92.5 -4t-68.5 45.5t-18 92.5z" />
<glyph unicode="&#xc8;" horiz-adv-x="966" d="M-4 649q-11 141 86.5 264.5t273 203.5t394.5 104q241 24 376 -39t127 -191q-4 -65 -43.5 -126t-99 -103t-131 -70.5t-139.5 -28t-125 24.5q-45 22 -61 52.5t-7.5 58t24 52t31.5 39.5l15 15q80 -60 168.5 -78t154.5 1t110.5 60t47.5 91q6 107 -120.5 153.5t-346.5 18.5 q-139 -17 -261.5 -77t-199.5 -156t-75 -205q3 -124 89 -220t218.5 -138t273.5 -21q14 2 20 -3t4.5 -14.5t-5 -19t-7.5 -16.5l-4 -7q-2 0 -4.5 -1t-3.5 -1q-10 -10 -24 -10q-85 -11 -159.5 -34.5t-138.5 -62t-105.5 -97t-51.5 -131.5q-17 -130 79 -213q99 -86 263 -79 q214 10 421 173q50 39 97 86q18 16 27.5 10.5t12.5 -19.5l3 -14q-226 -223 -503 -296q-225 -59 -397 3q-146 53 -190 176q-23 62 -14 136q17 129 121 221.5t279 146.5q-211 25 -350.5 128t-149.5 253zM551 1434q0 20 15.5 35t31.5 21l16 5q55 -77 215 -156q49 -26 89 -45 q14 -7 14 -8t1 -5.5t-6.5 -8.5t-21.5 -2q-67 11 -192 45q-85 25 -123.5 52.5t-38.5 66.5z" />
<glyph unicode="&#xc9;" horiz-adv-x="966" d="M-4 649q-11 141 86.5 264.5t273 203.5t394.5 104q241 24 376 -39t127 -191q-4 -65 -43.5 -126t-99 -103t-131 -70.5t-139.5 -28t-125 24.5q-45 22 -61 52.5t-7.5 58t24 52t31.5 39.5l15 15q80 -60 168.5 -78t154.5 1t110.5 60t47.5 91q6 107 -120.5 153.5t-346.5 18.5 q-139 -17 -261.5 -77t-199.5 -156t-75 -205q3 -124 89 -220t218.5 -138t273.5 -21q14 2 20 -3t4.5 -14.5t-5 -19t-7.5 -16.5l-4 -7q-2 0 -4.5 -1t-3.5 -1q-10 -10 -24 -10q-85 -11 -159.5 -34.5t-138.5 -62t-105.5 -97t-51.5 -131.5q-17 -130 79 -213q99 -86 263 -79 q214 10 421 173q50 39 97 86q18 16 27.5 10.5t12.5 -19.5l3 -14q-226 -223 -503 -296q-225 -59 -397 3q-146 53 -190 176q-23 62 -14 136q17 129 121 221.5t279 146.5q-211 25 -350.5 128t-149.5 253zM546 1251.5q1 4.5 1 5.5q0 4 100 58q168 83 217 151q7 -1 17.5 -4 t27.5 -17t17 -34q0 -39 -40 -68.5t-124 -52.5q-134 -40 -191 -49q-13 -2 -19.5 2t-5.5 8.5z" />
<glyph unicode="&#xca;" horiz-adv-x="966" d="M-4 649q-11 141 86.5 264.5t273 203.5t394.5 104q241 24 376 -39t127 -191q-4 -65 -43.5 -126t-99 -103t-131 -70.5t-139.5 -28t-125 24.5q-45 22 -61 52.5t-7.5 58t24 52t31.5 39.5l15 15q80 -60 168.5 -78t154.5 1t110.5 60t47.5 91q6 107 -120.5 153.5t-346.5 18.5 q-139 -17 -261.5 -77t-199.5 -156t-75 -205q3 -124 89 -220t218.5 -138t273.5 -21q14 2 20 -3t4.5 -14.5t-5 -19t-7.5 -16.5l-4 -7q-2 0 -4.5 -1t-3.5 -1q-10 -10 -24 -10q-85 -11 -159.5 -34.5t-138.5 -62t-105.5 -97t-51.5 -131.5q-17 -130 79 -213q99 -86 263 -79 q214 10 421 173q50 39 97 86q18 16 27.5 10.5t12.5 -19.5l3 -14q-226 -223 -503 -296q-225 -59 -397 3q-146 53 -190 176q-23 62 -14 136q17 129 121 221.5t279 146.5q-211 25 -350.5 128t-149.5 253zM477 1282.5v7.5q13 8 101 76q96 74 130.5 94t51.5 10q19 -10 92.5 -78.5 t87.5 -88.5q7 -7 9.5 -12.5t1 -9t-3.5 -6t-5 -3.5l-4 -2l-123 67q-80 43 -82 45q-47 -29 -84 -47q-83 -44 -141 -61q-15 -4 -23 -0.5t-8 9z" />
<glyph unicode="&#xcb;" horiz-adv-x="966" d="M-4 649q-11 141 86.5 264.5t273 203.5t394.5 104q241 24 376 -39t127 -191q-4 -65 -43.5 -126t-99 -103t-131 -70.5t-139.5 -28t-125 24.5q-45 22 -61 52.5t-7.5 58t24 52t31.5 39.5l15 15q80 -60 168.5 -78t154.5 1t110.5 60t47.5 91q6 107 -120.5 153.5t-346.5 18.5 q-139 -17 -261.5 -77t-199.5 -156t-75 -205q3 -124 89 -220t218.5 -138t273.5 -21q14 2 20 -3t4.5 -14.5t-5 -19t-7.5 -16.5l-4 -7q-2 0 -4.5 -1t-3.5 -1q-10 -10 -24 -10q-85 -11 -159.5 -34.5t-138.5 -62t-105.5 -97t-51.5 -131.5q-17 -130 79 -213q99 -86 263 -79 q214 10 421 173q50 39 97 86q18 16 27.5 10.5t12.5 -19.5l3 -14q-226 -223 -503 -296q-225 -59 -397 3q-146 53 -190 176q-23 62 -14 136q17 129 121 221.5t279 146.5q-211 25 -350.5 128t-149.5 253zM498 1397q3 43 40 70.5t83 27.5q45 0 73.5 -27.5t24.5 -70.5 q-3 -39 -56 -78t-81 -39q-27 0 -57.5 38.5t-26.5 78.5zM762 1397q3 43 40 70.5t83 27.5q45 0 73.5 -27.5t24.5 -70.5q-3 -39 -56 -78t-83 -39q-26 0 -56 38.5t-26 78.5z" />
<glyph unicode="&#xcc;" horiz-adv-x="997" d="M0 -128q-2 45 19 89t65 76q22 16 45.5 27t52 14.5t50.5 6t58 -4.5t57 -10.5t64.5 -17.5t62.5 -20.5t70 -24.5t70 -25q49 168 64 432q14 279 -15 401t-108 103q-80 -18 -112.5 -108t-16.5 -224.5t76 -288.5q17 -40 3 -67q-11 -23 -31 3q-11 14 -21 41q-49 130 -69.5 247.5 t-11 215t61 163.5t141.5 85q97 20 160 -1t98 -88t45.5 -170t2.5 -261q-18 -335 -115 -533q156 -42 291 -45q-1 -1 0 -8.5t-2 -19.5t-7 -23.5t-15.5 -19t-28.5 -6.5q-135 11 -275 55q-142 -223 -412 -232q-69 -2 -129 17.5t-99.5 53.5t-63 78.5t-25.5 89.5zM72.5 -79 q-1.5 -31 7 -63.5t31.5 -62.5t54.5 -53t78.5 -35t102 -10q164 9 244 219q-35 14 -96.5 39.5t-92.5 38t-78 27.5t-75.5 19t-60 0.5t-54.5 -17.5q-27 -17 -43 -44t-17.5 -58zM401 1196q0 20 16 35t32 21l16 5q54 -75 215 -155q45 -24 85 -43q17 -9 17 -10q0 -2 1 -6.5t-6 -8.5 t-21 -2q-69 11 -193 45q-85 25 -123.5 52.5t-38.5 66.5z" />
<glyph unicode="&#xcd;" horiz-adv-x="997" d="M0 -128q-2 45 19 89t65 76q22 16 45.5 27t52 14.5t50.5 6t58 -4.5t57 -10.5t64.5 -17.5t62.5 -20.5t70 -24.5t70 -25q49 168 64 432q14 279 -15 401t-108 103q-80 -18 -112.5 -108t-16.5 -224.5t76 -288.5q17 -40 3 -67q-11 -23 -31 3q-11 14 -21 41q-49 130 -69.5 247.5 t-11 215t61 163.5t141.5 85q97 20 160 -1t98 -88t45.5 -170t2.5 -261q-18 -335 -115 -533q156 -42 291 -45q-1 -1 0 -8.5t-2 -19.5t-7 -23.5t-15.5 -19t-28.5 -6.5q-135 11 -275 55q-142 -223 -412 -232q-69 -2 -129 17.5t-99.5 53.5t-63 78.5t-25.5 89.5zM72.5 -79 q-1.5 -31 7 -63.5t31.5 -62.5t54.5 -53t78.5 -35t102 -10q164 9 244 219q-35 14 -96.5 39.5t-92.5 38t-78 27.5t-75.5 19t-60 0.5t-54.5 -17.5q-27 -17 -43 -44t-17.5 -58zM394 1022.5q1 4.5 1 5.5q0 2 101 57q167 83 217 152q2 0 6.5 -1t15 -5.5t18.5 -10t14.5 -15.5 t6.5 -23q0 -39 -40 -68.5t-124 -52.5q-135 -40 -190 -49q-13 -2 -20 2t-6 8.5z" />
<glyph unicode="&#xce;" horiz-adv-x="997" d="M0 -128q-2 45 19 89t65 76q22 16 45.5 27t52 14.5t50.5 6t58 -4.5t57 -10.5t64.5 -17.5t62.5 -20.5t70 -24.5t70 -25q49 168 64 432q14 279 -15 401t-108 103q-80 -18 -112.5 -108t-16.5 -224.5t76 -288.5q17 -40 3 -67q-11 -23 -31 3q-11 14 -21 41q-49 130 -69.5 247.5 t-11 215t61 163.5t141.5 85q97 20 160 -1t98 -88t45.5 -170t2.5 -261q-18 -335 -115 -533q156 -42 291 -45q-1 -1 0 -8.5t-2 -19.5t-7 -23.5t-15.5 -19t-28.5 -6.5q-135 11 -275 55q-142 -223 -412 -232q-69 -2 -129 17.5t-99.5 53.5t-63 78.5t-25.5 89.5zM72.5 -79 q-1.5 -31 7 -63.5t31.5 -62.5t54.5 -53t78.5 -35t102 -10q164 9 244 219q-35 14 -96.5 39.5t-92.5 38t-78 27.5t-75.5 19t-60 0.5t-54.5 -17.5q-27 -17 -43 -44t-17.5 -58zM356 1028.5v7.5q13 8 101 76q98 75 131.5 95t50.5 10q19 -10 92.5 -79t87.5 -89q7 -7 9.5 -12.5 t1 -9t-3.5 -6t-6 -3.5l-3 -2l-123 67q-80 43 -82 45q-47 -29 -84 -47q-83 -44 -141 -61q-15 -4 -23 -0.5t-8 9z" />
<glyph unicode="&#xcf;" horiz-adv-x="997" d="M0 -128q-2 45 19 89t65 76q22 16 45.5 27t52 14.5t50.5 6t58 -4.5t57 -10.5t64.5 -17.5t62.5 -20.5t70 -24.5t70 -25q49 168 64 432q14 279 -15 401t-108 103q-80 -18 -112.5 -108t-16.5 -224.5t76 -288.5q17 -40 3 -67q-11 -23 -31 3q-11 14 -21 41q-49 130 -69.5 247.5 t-11 215t61 163.5t141.5 85q97 20 160 -1t98 -88t45.5 -170t2.5 -261q-18 -335 -115 -533q156 -42 291 -45q-1 -1 0 -8.5t-2 -19.5t-7 -23.5t-15.5 -19t-28.5 -6.5q-135 11 -275 55q-142 -223 -412 -232q-69 -2 -129 17.5t-99.5 53.5t-63 78.5t-25.5 89.5zM72.5 -79 q-1.5 -31 7 -63.5t31.5 -62.5t54.5 -53t78.5 -35t102 -10q164 9 244 219q-35 14 -96.5 39.5t-92.5 38t-78 27.5t-75.5 19t-60 0.5t-54.5 -17.5q-27 -17 -43 -44t-17.5 -58zM367 1171q3 43 39.5 71t82.5 28q45 0 74 -28t25 -71q-3 -39 -55.5 -77.5t-81.5 -38.5 q-27 0 -57.5 38t-26.5 78zM631 1171q3 43 40 71t83 28q45 0 73.5 -28t24.5 -71q-3 -39 -56 -77.5t-83 -38.5q-26 0 -56 38t-26 78z" />
<glyph unicode="&#xd0;" horiz-adv-x="1507" d="M8 -113q-19 31 6 60t57.5 33.5t45.5 -9.5q28 -58 119.5 -106.5t244.5 -65.5q164 -17 298 9t225 85t153.5 147.5t92 192.5t32.5 224q4 240 -162 369t-452 112q-248 -17 -391 -120q-80 -58 -87 -111q-3 -23 11 -37q8 -8 -10 -19q-34 -21 -72 7q-8 6 -15 14 q-13 24 -19.5 62.5t35 86.5t104 90.5t186 74.5t282.5 40q389 18 596.5 -119.5t194.5 -425.5q-7 -139 -54.5 -262t-135.5 -222.5t-208.5 -168t-282.5 -99t-349 -16.5q-360 26 -445 174zM385 389h2q2 0 8 0.5t15.5 1.5t28.5 2t44 2l15 223q6 124 -2 226q4 3 12 7t30 12t42 12 t44.5 0t41.5 -19q33 -32 37 -89t-17 -161q-18 -100 -39 -200q54 5 88 10q10 -18 -2 -49q-7 -23 -28 -31t-74 -8q-7 -32 -19.5 -88.5t-17 -78.5t-12 -61t-10 -61.5t-5 -53t-2.5 -61.5q0 -26 2 -48.5t3 -26.5t-1 -9q-35 -19 -70.5 -7.5t-45.5 52.5q-5 20 -6.5 38t1 53t6 70.5 t11 118.5t14.5 171q-42 5 -69 14q-37 15 -25 39z" />
<glyph unicode="&#xd1;" horiz-adv-x="1439" d="M0 -158q1 58 44 71q22 5 26 -3q-10 -159 88 -195q119 -40 216 66.5t128 337.5q29 212 37.5 428.5t-13.5 349.5q-3 8 0 14q-6 11 2 15q41 22 85 30t79 -8q95 -53 195 -434q55 -213 96.5 -346.5t73.5 -198t55.5 -84t50.5 -14.5q37 6 62 108.5t31 293t-17 462.5 q-7 104 -41 228q4 3 10.5 7.5t26.5 15t39 15.5t43 4t43 -14q37 -27 48 -82t3 -164q-12 -186 -32 -338.5t-45 -256.5t-53 -180.5t-58.5 -119t-59 -62t-57.5 -19.5q-187 0 -348 571q-67 238 -137 393q26 -206 -9 -569q-8 -80 -27.5 -150t-47.5 -123.5t-64 -96.5t-76 -69.5 t-84 -43t-89 -16t-89 10.5q-64 18 -99.5 65.5t-35.5 100.5zM737 1071q3 39 33 62.5t80 19.5q52 -2 130 -34.5t95 -35.5q30 -6 43 12.5t10 45.5l21 -8q40 -22 37 -56q-5 -40 -32.5 -57t-84.5 -16q-25 1 -91 13t-104 21q-49 11 -72.5 -1.5t-27.5 -35.5q0 -3 -10.5 3t-20 23.5 t-6.5 43.5z" />
<glyph unicode="&#xd2;" horiz-adv-x="1269" d="M2 315q19 325 236 549q-39 68 -54 141t-8.5 128.5t27.5 91.5q43 73 97 80q31 4 37 -15q3 -9 -3 -18q-16 -29 -22.5 -77t1.5 -112.5t33 -124.5q169 123 350 146q187 25 297 -51t84 -211q76 -69 116.5 -181.5t37.5 -234.5q-3 -114 -35.5 -228.5t-93 -216t-140.5 -179.5 t-187 -122t-224 -40q-133 4 -242 63t-177.5 153t-103 213t-26.5 246zM217 414q-18 -192 16 -348t123.5 -255t223.5 -108q150 -10 263 76t165 229q55 148 69.5 330t-12.5 299q-7 41 -33 90q-45 -64 -129.5 -105.5t-199 -42t-220.5 55.5q-99 50 -174 131q-74 -139 -92 -352z M387 881q29 -42 74 -84q61 -56 147 -87.5t162.5 -34.5t137.5 16t79 57q7 15 10 28q-39 48 -93 79.5t-103 39.5q-37 7 -15 19q32 17 95 14h2q63 -6 116 -33q-28 82 -118.5 123.5t-202.5 21.5q-179 -36 -291 -159zM549 1319q0 20 15.5 35.5t31.5 20.5l16 5q54 -75 215 -155 l103 -54q0 -1 1 -5.5t-6.5 -8.5t-21.5 -2q-67 11 -192 45q-85 25 -123.5 52.5t-38.5 66.5z" />
<glyph unicode="&#xd3;" horiz-adv-x="1269" d="M2 315q19 325 236 549q-39 68 -54 141t-8.5 128.5t27.5 91.5q43 73 97 80q31 4 37 -15q3 -9 -3 -18q-16 -29 -22.5 -77t1.5 -112.5t33 -124.5q169 123 350 146q187 25 297 -51t84 -211q76 -69 116.5 -181.5t37.5 -234.5q-3 -114 -35.5 -228.5t-93 -216t-140.5 -179.5 t-187 -122t-224 -40q-133 4 -242 63t-177.5 153t-103 213t-26.5 246zM217 414q-18 -192 16 -348t123.5 -255t223.5 -108q150 -10 263 76t165 229q55 148 69.5 330t-12.5 299q-7 41 -33 90q-45 -64 -129.5 -105.5t-199 -42t-220.5 55.5q-99 50 -174 131q-74 -139 -92 -352z M387 881q29 -42 74 -84q61 -56 147 -87.5t162.5 -34.5t137.5 16t79 57q7 15 10 28q-39 48 -93 79.5t-103 39.5q-37 7 -15 19q32 17 95 14h2q63 -6 116 -33q-28 82 -118.5 123.5t-202.5 21.5q-179 -36 -291 -159zM544 1157.5q1 4.5 1 5.5q0 4 100 58q168 83 217 151 q7 -1 17.5 -4t27.5 -17t17 -34q0 -39 -40 -68.5t-124 -52.5q-134 -40 -191 -49q-13 -2 -19.5 2t-5.5 8.5z" />
<glyph unicode="&#xd4;" horiz-adv-x="1269" d="M2 315q19 325 236 549q-39 68 -54 141t-8.5 128.5t27.5 91.5q43 73 97 80q31 4 37 -15q3 -9 -3 -18q-16 -29 -22.5 -77t1.5 -112.5t33 -124.5q169 123 350 146q187 25 297 -51t84 -211q76 -69 116.5 -181.5t37.5 -234.5q-3 -114 -35.5 -228.5t-93 -216t-140.5 -179.5 t-187 -122t-224 -40q-133 4 -242 63t-177.5 153t-103 213t-26.5 246zM217 414q-18 -192 16 -348t123.5 -255t223.5 -108q150 -10 263 76t165 229q55 148 69.5 330t-12.5 299q-7 41 -33 90q-45 -64 -129.5 -105.5t-199 -42t-220.5 55.5q-99 50 -174 131q-74 -139 -92 -352z M387 881q29 -42 74 -84q61 -56 147 -87.5t162.5 -34.5t137.5 16t79 57q7 15 10 28q-39 48 -93 79.5t-103 39.5q-37 7 -15 19q32 17 95 14h2q63 -6 116 -33q-28 82 -118.5 123.5t-202.5 21.5q-179 -36 -291 -159zM485 1133.5v7.5q13 8 101 76q96 74 130.5 94t51.5 10 q19 -10 92.5 -79t87.5 -89q7 -7 9.5 -12.5t1 -9t-3.5 -6t-5 -3.5l-4 -2q-1 0 -12 6t-43 24t-68 38q-80 43 -82 45q-47 -29 -84 -47q-88 -46 -141 -62q-15 -4 -23 0t-8 9.5z" />
<glyph unicode="&#xd5;" horiz-adv-x="1269" d="M2 315q19 325 236 549q-39 68 -54 141t-8.5 128.5t27.5 91.5q43 73 97 80q31 4 37 -15q3 -9 -3 -18q-16 -29 -22.5 -77t1.5 -112.5t33 -124.5q169 123 350 146q187 25 297 -51t84 -211q76 -69 116.5 -181.5t37.5 -234.5q-3 -114 -35.5 -228.5t-93 -216t-140.5 -179.5 t-187 -122t-224 -40q-133 4 -242 63t-177.5 153t-103 213t-26.5 246zM217 414q-18 -192 16 -348t123.5 -255t223.5 -108q150 -10 263 76t165 229q55 148 69.5 330t-12.5 299q-7 41 -33 90q-45 -64 -129.5 -105.5t-199 -42t-220.5 55.5q-99 50 -174 131q-74 -139 -92 -352z M387 881q29 -42 74 -84q61 -56 147 -87.5t162.5 -34.5t137.5 16t79 57q7 15 10 28q-39 48 -93 79.5t-103 39.5q-37 7 -15 19q32 17 95 14h2q63 -6 116 -33q-28 82 -118.5 123.5t-202.5 21.5q-179 -36 -291 -159zM510 1235q3 39 33 62.5t80 19.5q52 -2 130 -34.5t95 -35.5 q30 -6 43 12.5t10 45.5l21 -8q39 -22 36 -56q-5 -40 -32 -57.5t-84 -16.5q-68 4 -195 35q-49 11 -72.5 -1.5t-27.5 -35.5q0 -3 -10.5 3t-20 23.5t-6.5 43.5z" />
<glyph unicode="&#xd6;" horiz-adv-x="1269" d="M2 315q19 325 236 549q-39 68 -54 141t-8.5 128.5t27.5 91.5q43 73 97 80q31 4 37 -15q3 -9 -3 -18q-16 -29 -22.5 -77t1.5 -112.5t33 -124.5q169 123 350 146q187 25 297 -51t84 -211q76 -69 116.5 -181.5t37.5 -234.5q-3 -114 -35.5 -228.5t-93 -216t-140.5 -179.5 t-187 -122t-224 -40q-133 4 -242 63t-177.5 153t-103 213t-26.5 246zM217 414q-18 -192 16 -348t123.5 -255t223.5 -108q150 -10 263 76t165 229q55 148 69.5 330t-12.5 299q-7 41 -33 90q-45 -64 -129.5 -105.5t-199 -42t-220.5 55.5q-99 50 -174 131q-74 -139 -92 -352z M387 881q29 -42 74 -84q61 -56 147 -87.5t162.5 -34.5t137.5 16t79 57q7 15 10 28q-39 48 -93 79.5t-103 39.5q-37 7 -15 19q32 17 95 14h2q63 -6 116 -33q-28 82 -118.5 123.5t-202.5 21.5q-179 -36 -291 -159zM479 1282q3 43 40 70.5t83 27.5q45 0 73.5 -27.5t24.5 -70.5 q-3 -39 -56 -78t-81 -39q-27 0 -57.5 38.5t-26.5 78.5zM743 1282q3 43 40 70.5t83 27.5q45 0 74 -27.5t25 -70.5q-3 -39 -56.5 -78t-83.5 -39q-26 0 -56 38.5t-26 78.5z" />
<glyph unicode="&#xd7;" horiz-adv-x="364" d="M37 354q4 21 35 35q22 9 44.5 -0.5t61.5 -48.5l25 -27q63 72 86 105q21 -4 33 -35q11 -21 0.5 -44.5t-50.5 -62.5l-20 -20q37 -45 61 -86q4 -9 5 -16.5t0.5 -11.5t-3 -7.5t-4.5 -4.5t-5 -2l-3 -1q-3 0 -98 86q-71 -61 -101 -72q-9 -4 -16.5 -5t-11.5 0t-7.5 3.5t-4.5 4.5 t-2 5l-1 3q0 5 93 106q-79 69 -117 96z" />
<glyph unicode="&#xd8;" horiz-adv-x="1269" d="M2 315q19 325 236 549q-39 68 -54 141t-8.5 128.5t27.5 91.5q43 73 97 80q31 4 37 -15q3 -9 -3 -18q-16 -29 -22.5 -77t1.5 -112.5t33 -124.5q169 123 350 146q136 18 238 -23q35 75 53 183q5 -2 25 0t53.5 -11t50.5 -39q14 -20 15 -52t-15.5 -76.5t-50.5 -92.5l-8 -10 q35 -62 20 -141q76 -69 116.5 -181.5t37.5 -234.5q-3 -114 -35.5 -228.5t-93 -216t-140.5 -179.5t-187 -122t-224 -40q-127 6 -232 57q-36 -70 -47 -105q-11 -31 -18 -58l-2 -7q-30 -3 -51 16t-11 51q6 28 60 146q-127 93 -193 247.5t-55 327.5zM217 414q-15 -166 9.5 -308 t86.5 -239q87 179 365 713q-108 7 -195 55q-99 50 -174 131q-74 -139 -92 -352zM369 -203q85 -85 211 -94q150 -10 263 76t165 229q55 148 69.5 330t-12.5 299q-7 41 -33 90q-71 -97 -213 -135q-241 -405 -450 -795zM387 881q29 -42 74 -84q107 -98 268 -119l107 209 q-7 3 -35 8q-39 7 -16 19t71 14l41 82q-92 52 -219 30q-179 -36 -291 -159zM870 680q93 16 117 68q7 15 10 28q-5 5 -13 13.5t-15.5 16t-14.5 13.5q-11 -19 -84 -139z" />
<glyph unicode="&#xd9;" horiz-adv-x="1536" d="M2.5 151.5q-4.5 32.5 9 65.5t41.5 57q13 10 23.5 5t17 -16.5t2.5 -14.5q-32 -26 -40.5 -54.5t14 -53.5t75.5 -36q153 -32 332 35q-11 88 -8 207q10 353 109.5 521.5t255.5 150.5q64 -7 102.5 -70t40 -158.5t-25 -201t-98 -209.5t-173.5 -172l-25 -17q11 -203 70 -310 t162 -107q68 0 129 59t116 181t100 328.5t73 483.5l6 60q0 1 1 3.5t1 4.5v2l6 14q4 12 31 12.5t58 -7t58 -20.5t31 -26q5 -16 5.5 -42.5t-3.5 -64t-9.5 -74t-13 -92.5t-12.5 -101q-29 -259 -31.5 -411.5t14.5 -204.5t50 -56q35 -6 70 28.5t45 71.5q2 5 11 -1q20 -15 1 -58 q-27 -59 -85.5 -101t-137.5 -30q-83 11 -120 149t-15 402q-69 -322 -186 -474.5t-265 -150.5q-123 1 -212 121t-120 323q-193 -80 -352 -51q-58 12 -91 40t-37.5 60.5zM653 233l31 25q65 56 115.5 144t74 178t28.5 172t-19 136t-70 60q-35 4 -62 -33.5t-45 -110.5 t-29.5 -160.5t-17.5 -197.5q-9 -116 -6 -213zM895 1176q0 20 15.5 35t31.5 21l16 5q55 -76 216 -156q45 -23 85 -43q17 -9 17 -10t1 -5.5t-6.5 -8.5t-21.5 -2q-67 11 -192 45q-85 25 -123.5 52.5t-38.5 66.5z" />
<glyph unicode="&#xda;" horiz-adv-x="1536" d="M2.5 151.5q-4.5 32.5 9 65.5t41.5 57q13 10 23.5 5t17 -16.5t2.5 -14.5q-32 -26 -40.5 -54.5t14 -53.5t75.5 -36q153 -32 332 35q-11 88 -8 207q10 353 109.5 521.5t255.5 150.5q64 -7 102.5 -70t40 -158.5t-25 -201t-98 -209.5t-173.5 -172l-25 -17q11 -203 70 -310 t162 -107q68 0 129 59t116 181t100 328.5t73 483.5l6 60q0 1 1 3.5t1 4.5v2l6 14q4 12 31 12.5t58 -7t58 -20.5t31 -26q5 -16 5.5 -42.5t-3.5 -64t-9.5 -74t-13 -92.5t-12.5 -101q-29 -259 -31.5 -411.5t14.5 -204.5t50 -56q35 -6 70 28.5t45 71.5q2 5 11 -1q20 -15 1 -58 q-27 -59 -85.5 -101t-137.5 -30q-83 11 -120 149t-15 402q-69 -322 -186 -474.5t-265 -150.5q-123 1 -212 121t-120 323q-193 -80 -352 -51q-58 12 -91 40t-37.5 60.5zM653 233l31 25q65 56 115.5 144t74 178t28.5 172t-19 136t-70 60q-35 4 -62 -33.5t-45 -110.5 t-29.5 -160.5t-17.5 -197.5q-9 -116 -6 -213zM994 989.5q1 4.5 1 5.5q0 3 101 58q168 83 217 151q2 0 6.5 -1t15 -5.5t18.5 -10t14.5 -15.5t6.5 -23q0 -39 -40 -68.5t-124 -52.5q-135 -40 -190 -49q-13 -2 -20 2t-6 8.5z" />
<glyph unicode="&#xdb;" horiz-adv-x="1536" d="M2.5 151.5q-4.5 32.5 9 65.5t41.5 57q13 10 23.5 5t17 -16.5t2.5 -14.5q-32 -26 -40.5 -54.5t14 -53.5t75.5 -36q153 -32 332 35q-11 88 -8 207q10 353 109.5 521.5t255.5 150.5q64 -7 102.5 -70t40 -158.5t-25 -201t-98 -209.5t-173.5 -172l-25 -17q11 -203 70 -310 t162 -107q68 0 129 59t116 181t100 328.5t73 483.5l6 60q0 1 1 3.5t1 4.5v2l6 14q4 12 31 12.5t58 -7t58 -20.5t31 -26q5 -16 5.5 -42.5t-3.5 -64t-9.5 -74t-13 -92.5t-12.5 -101q-29 -259 -31.5 -411.5t14.5 -204.5t50 -56q35 -6 70 28.5t45 71.5q2 5 11 -1q20 -15 1 -58 q-27 -59 -85.5 -101t-137.5 -30q-83 11 -120 149t-15 402q-69 -322 -186 -474.5t-265 -150.5q-123 1 -212 121t-120 323q-193 -80 -352 -51q-58 12 -91 40t-37.5 60.5zM653 233l31 25q65 56 115.5 144t74 178t28.5 172t-19 136t-70 60q-35 4 -62 -33.5t-45 -110.5 t-29.5 -160.5t-17.5 -197.5q-9 -116 -6 -213zM862 1065.5v7.5q13 8 101 76q96 74 130.5 94t51.5 10q19 -10 92.5 -79t87.5 -89q7 -7 9.5 -12.5t1 -9t-4 -5.5t-5.5 -4l-3 -1l-123 67q-80 43 -82 45q-47 -29 -84 -47q-83 -44 -141 -61q-15 -4 -23 -0.5t-8 9z" />
<glyph unicode="&#xdc;" horiz-adv-x="1536" d="M2.5 151.5q-4.5 32.5 9 65.5t41.5 57q13 10 23.5 5t17 -16.5t2.5 -14.5q-32 -26 -40.5 -54.5t14 -53.5t75.5 -36q153 -32 332 35q-11 88 -8 207q10 353 109.5 521.5t255.5 150.5q64 -7 102.5 -70t40 -158.5t-25 -201t-98 -209.5t-173.5 -172l-25 -17q11 -203 70 -310 t162 -107q68 0 129 59t116 181t100 328.5t73 483.5l6 60q0 1 1 3.5t1 4.5v2l6 14q4 12 31 12.5t58 -7t58 -20.5t31 -26q5 -16 5.5 -42.5t-3.5 -64t-9.5 -74t-13 -92.5t-12.5 -101q-29 -259 -31.5 -411.5t14.5 -204.5t50 -56q35 -6 70 28.5t45 71.5q2 5 11 -1q20 -15 1 -58 q-27 -59 -85.5 -101t-137.5 -30q-83 11 -120 149t-15 402q-69 -322 -186 -474.5t-265 -150.5q-123 1 -212 121t-120 323q-193 -80 -352 -51q-58 12 -91 40t-37.5 60.5zM653 233l31 25q65 56 115.5 144t74 178t28.5 172t-19 136t-70 60q-35 4 -62 -33.5t-45 -110.5 t-29.5 -160.5t-17.5 -197.5q-9 -116 -6 -213zM872 1137q3 43 40 70.5t83 27.5q45 0 74 -27.5t25 -70.5q-3 -39 -56 -78t-82 -39q-27 0 -57.5 38.5t-26.5 78.5zM1137 1137q3 43 40 70.5t83 27.5q45 0 73.5 -27.5t24.5 -70.5q-3 -39 -56 -78t-83 -39q-26 0 -56 38.5t-26 78.5z " />
<glyph unicode="&#xdd;" horiz-adv-x="1531" d="M2.5 151.5q-4.5 32.5 9 65.5t41.5 57q13 10 23.5 5t17 -16.5t2.5 -14.5q-32 -26 -40.5 -54.5t14 -53.5t75.5 -36q153 -32 332 35q-11 88 -8 207q10 353 109.5 521.5t255.5 150.5q64 -7 102.5 -70t40 -158.5t-25 -201t-98 -209.5t-173.5 -172l-25 -17q11 -203 70 -310 t162 -107q69 0 130.5 59.5t116.5 183.5t100 334.5t73 493.5l6 53q2 10 20.5 13.5t44 0t51 -10.5t44.5 -19t22 -25q0 -1 -0.5 -3.5t-0.5 -5.5t-0.5 -7.5t-1 -9.5t-1 -12l-1 -14t-1 -16t-0.5 -18q-54 -773 -88 -1026q172 -12 289 -100q3 -3 -2 -11.5t-18 -11.5t-40 12 q-101 57 -235 64q-38 -244 -105 -410q-43 -105 -104.5 -166.5t-122 -73.5t-117 4.5t-97 61.5t-54.5 103q-9 47 -8 97.5t23 105.5t58 104.5t97 95.5t139 78q63 26 117 37l4 28q6 65 19 235.5t24 291.5q-69 -326 -186 -479.5t-267 -151.5q-123 1 -212 121t-120 323 q-193 -80 -352 -51q-58 12 -91 40t-37.5 60.5zM653 233l31 25q65 56 115.5 144t74 178t28.5 172t-19 136t-70 60q-35 4 -62 -33.5t-45 -110.5t-29.5 -160.5t-17.5 -197.5q-9 -116 -6 -213zM850 -709q8 -62 46 -96t84.5 -33t93.5 39.5t71 108.5q51 148 72 373 q-54 -11 -109 -31q-87 -31 -151 -97.5t-89.5 -136t-17.5 -127.5zM978 1007.5q1 4.5 1 6.5q0 3 100 57q167 83 217 152q7 -1 17.5 -4t27.5 -17.5t17 -34.5q0 -39 -40 -67.5t-124 -52.5q-142 -42 -190 -50q-13 -2 -20 2t-6 8.5z" />
<glyph unicode="&#xde;" horiz-adv-x="1202" d="M-0.5 397q-1.5 32 21 72t66.5 79t127.5 74.5t191.5 55.5q3 73 8 125q8 113 -4 227q5 3 12.5 7t30 12t42.5 11.5t44 -1t41 -19.5q33 -29 36 -87t-14 -162l-12 -93q2 0 7.5 1t8.5 1q277 12 422 -59.5t135 -239.5q-6 -108 -93.5 -203t-225.5 -154t-293 -71q-1 2 -2.5 6.5 t-4 15t-1.5 18.5t8.5 15.5t21.5 8.5q84 5 173 51.5t152 125t65 163.5q3 120 -91.5 182.5t-289.5 50.5h-4q-112 -858 -97 -1110q1 -25 2.5 -48t2 -26t-0.5 -8q-35 -19 -71 -8.5t-47 51.5q-13 51 -13.5 179.5t10 339t35.5 602.5q-49 -12 -92.5 -29t-75.5 -36t-57.5 -39.5 t-40.5 -40t-22.5 -37.5t-6.5 -33t11 -25q8 -6 -9 -17q-31 -20 -68 5q-9 7 -18 16q-19 19 -20.5 51z" />
<glyph unicode="&#xdf;" horiz-adv-x="555" d="M-96 -125q-5 6 4 16t26 17q18 7 30.5 23t28.5 60t31 138t29 238q15 161 73 292t141.5 199.5t172.5 54.5q57 -7 95.5 -65t27.5 -152q-10 -90 -65 -146.5t-136 -80.5q65 -25 109.5 -85t40.5 -148q-3 -63 -24.5 -111.5t-53 -76t-70 -41.5t-75.5 -12.5t-69.5 15.5t-51.5 39 q-23 30 5 44q13 6 15 1q21 -43 58.5 -51t73 33t47.5 125q19 122 -8 188t-93 66q-19 0 -18 8q2 12 27 19q4 0 8 1q6 0 8 2q88 23 119 179q18 91 8.5 145.5t-41.5 62.5q-17 4 -33 -3.5t-33 -33.5t-31.5 -69t-29 -114t-25.5 -165q-15 -128 -38.5 -231.5t-49 -168.5 t-56.5 -112.5t-58 -70.5t-56 -35q-45 -20 -63 6z" />
<glyph unicode="&#xe0;" d="M8 244q28 133 128 219t216 80q83 -4 127.5 -56.5t22.5 -101.5q-31 -70 -128 -47q-50 12 -68 30q-4 4 -1 5q29 8 51 33q27 31 19 66t-47 36q-56 4 -100.5 -58.5t-65.5 -168.5q-14 -92 0 -141.5t43 -49.5q36 0 69 59.5t54 155.5q0 11 2 17q1 10 36 -1t69 -32t32 -35 q-8 -80 9.5 -120.5t47.5 -43.5q35 -5 65.5 29.5t41.5 73.5q2 6 12 -2q19 -16 0 -58q-25 -54 -87.5 -94.5t-127.5 -24.5q-93 20 -104 158q-37 -88 -90 -133.5t-113 -38.5q-57 7 -95.5 73.5t-17.5 170.5zM100 721q0 20 16 35.5t32 20.5l16 5q54 -75 215 -155q102 -53 102 -54 t1 -5.5t-6 -8.5t-21 -2q-69 11 -193 45q-85 25 -123.5 52.5t-38.5 66.5z" />
<glyph unicode="&#xe1;" d="M8 244q28 133 128 219t216 80q83 -4 127.5 -56.5t22.5 -101.5q-31 -70 -128 -47q-50 12 -68 30q-4 4 -1 5q29 8 51 33q27 31 19 66t-47 36q-56 4 -100.5 -58.5t-65.5 -168.5q-14 -92 0 -141.5t43 -49.5q36 0 69 59.5t54 155.5q0 11 2 17q1 10 36 -1t69 -32t32 -35 q-8 -80 9.5 -120.5t47.5 -43.5q35 -5 65.5 29.5t41.5 73.5q2 6 12 -2q19 -16 0 -58q-25 -54 -87.5 -94.5t-127.5 -24.5q-93 20 -104 158q-37 -88 -90 -133.5t-113 -38.5q-57 7 -95.5 73.5t-17.5 170.5zM93 530.5q1 4.5 1 6.5t101 57q168 83 217 151q2 0 6.5 -1t15 -5.5 t18.5 -10t14.5 -15.5t6.5 -23q0 -39 -40 -68.5t-124 -52.5q-135 -40 -190 -49q-13 -2 -20 2t-6 8.5z" />
<glyph unicode="&#xe2;" d="M8 244q28 133 128 219t216 80q83 -4 127.5 -56.5t22.5 -101.5q-31 -70 -128 -47q-50 12 -68 30q-4 4 -1 5q29 8 51 33q27 31 19 66t-47 36q-56 4 -100.5 -58.5t-65.5 -168.5q-14 -92 0 -141.5t43 -49.5q36 0 69 59.5t54 155.5q0 11 2 17q1 10 36 -1t69 -32t32 -35 q-8 -80 9.5 -120.5t47.5 -43.5q35 -5 65.5 29.5t41.5 73.5q2 6 12 -2q19 -16 0 -58q-25 -54 -87.5 -94.5t-127.5 -24.5q-93 20 -104 158q-37 -88 -90 -133.5t-113 -38.5q-57 7 -95.5 73.5t-17.5 170.5zM51 547.5v7.5q13 8 101 76q96 74 130.5 94t51.5 10q19 -10 92.5 -79 t87.5 -89q7 -7 9.5 -12.5t1 -9t-4 -5.5t-5.5 -4l-3 -1l-123 67q-80 43 -82 45q-47 -29 -84 -47q-83 -44 -141 -61q-15 -4 -23 -0.5t-8 9z" />
<glyph unicode="&#xe3;" d="M8 244q28 133 128 219t216 80q83 -4 127.5 -56.5t22.5 -101.5q-31 -70 -128 -47q-50 12 -68 30q-4 4 -1 5q29 8 51 33q27 31 19 66t-47 36q-56 4 -100.5 -58.5t-65.5 -168.5q-14 -92 0 -141.5t43 -49.5q36 0 69 59.5t54 155.5q0 11 2 17q1 10 36 -1t69 -32t32 -35 q-8 -80 9.5 -120.5t47.5 -43.5q35 -5 65.5 29.5t41.5 73.5q2 6 12 -2q19 -16 0 -58q-25 -54 -87.5 -94.5t-127.5 -24.5q-93 20 -104 158q-37 -88 -90 -133.5t-113 -38.5q-57 7 -95.5 73.5t-17.5 170.5zM72 621q3 39 32.5 62t79.5 19q52 -2 130.5 -34t95.5 -35q30 -6 43 12.5 t10 44.5l21 -8q39 -21 36 -55q-5 -40 -32.5 -57.5t-84.5 -16.5q-67 4 -194 35q-49 11 -72.5 -1.5t-27.5 -35.5q0 -3 -10.5 3t-20 23.5t-6.5 43.5z" />
<glyph unicode="&#xe4;" d="M8 244q28 133 128 219t216 80q83 -4 127.5 -56.5t22.5 -101.5q-31 -70 -128 -47q-50 12 -68 30q-4 4 -1 5q29 8 51 33q27 31 19 66t-47 36q-56 4 -100.5 -58.5t-65.5 -168.5q-14 -92 0 -141.5t43 -49.5q36 0 69 59.5t54 155.5q0 11 2 17q1 10 36 -1t69 -32t32 -35 q-8 -80 9.5 -120.5t47.5 -43.5q35 -5 65.5 29.5t41.5 73.5q2 6 12 -2q19 -16 0 -58q-25 -54 -87.5 -94.5t-127.5 -24.5q-93 20 -104 158q-37 -88 -90 -133.5t-113 -38.5q-57 7 -95.5 73.5t-17.5 170.5zM53 680q3 43 40 70.5t83 27.5q45 0 73.5 -27.5t24.5 -70.5 q-3 -39 -56 -78t-81 -39q-27 0 -57.5 38.5t-26.5 78.5zM317 680q3 43 40 70.5t83 27.5q45 0 74 -27.5t25 -70.5q-3 -39 -56.5 -78t-83.5 -39q-26 0 -56 38.5t-26 78.5z" />
<glyph unicode="&#xe5;" d="M8 244q28 133 128 219t216 80q83 -4 127.5 -56.5t22.5 -101.5q-31 -70 -128 -47q-50 12 -68 30q-4 4 -1 5q29 8 51 33q27 31 19 66t-47 36q-56 4 -100.5 -58.5t-65.5 -168.5q-14 -92 0 -141.5t43 -49.5q36 0 69 59.5t54 155.5q0 11 2 17q1 10 36 -1t69 -32t32 -35 q-8 -80 9.5 -120.5t47.5 -43.5q35 -5 65.5 29.5t41.5 73.5q2 6 12 -2q19 -16 0 -58q-25 -54 -87.5 -94.5t-127.5 -24.5q-93 20 -104 158q-37 -88 -90 -133.5t-113 -38.5q-57 7 -95.5 73.5t-17.5 170.5zM135 639q9 37 64 65.5t123 28.5q69 0 105.5 -28.5t27.5 -65.5 q-9 -38 -63.5 -66t-123.5 -28q-68 0 -105 28t-28 66zM238 639q-8 -29 2 -50.5t32 -21.5q21 0 47 22t33 50q7 29 -3 49.5t-30 20.5q-23 0 -48.5 -21t-32.5 -49z" />
<glyph unicode="&#xe6;" horiz-adv-x="706" d="M8 244q12 64 42.5 114.5t69.5 79.5t83.5 44t88.5 13t81 -18q26 27 60.5 31.5t66.5 -14.5q88 32 147 -11q37 -29 53 -74.5t-4 -97.5q-26 -50 -83.5 -79t-137.5 -25q10 -56 43.5 -85.5t77.5 -31.5q52 -1 93.5 28t55.5 75q2 6 12 -2q20 -14 1 -58q-26 -59 -99 -101t-163 -32 q-56 7 -104 46.5t-64 107.5q-34 -76 -90.5 -118t-116.5 -36q-58 7 -96 73.5t-17 170.5zM153.5 177.5q5.5 -42.5 20.5 -65t33 -22.5q35 0 69 52t48 124l2 2l4 23q-3 40 6 98q2 22 14 49q-57 15 -111.5 -25t-76.5 -132q-14 -61 -8.5 -103.5zM475 233q60 14 99.5 71t39.5 116 q0 51 -24 62t-49 -25q-56 -72 -66 -189q-3 -20 0 -35z" />
<glyph unicode="&#xe7;" horiz-adv-x="446" d="M2 256q4 54 25 101.5t50.5 80t66 56t72 33t68 8.5t54.5 -15q40 -24 55 -68t-4 -92q-31 -70 -123 -46q-45 13 -61 30q-3 3 0 4q54 17 80.5 59t21.5 74q-2 18 -30 18t-52 -24q-21 -23 -43 -78t-26 -104q-10 -90 37 -145.5t106 -57.5q55 -2 108 28t68 75q0 5 9 -1 q23 -14 3 -59q-23 -49 -96 -92t-160 -43q-47 -56 -53 -158q-4 -48 18.5 -72t55.5 -20.5t63 27.5q7 4 21.5 -6.5t1.5 -22.5q-37 -33 -87 -46t-92.5 -4t-68.5 45.5t-18 92.5q13 97 112 168q-75 14 -132.5 82t-49.5 172z" />
<glyph unicode="&#xe8;" horiz-adv-x="471" d="M2 244q7 76 37.5 137.5t72.5 96t89 53.5t89 18.5t70 -17.5q52 -28 61 -89.5t-24 -118.5q-26 -49 -92 -83.5t-145 -31.5q17 -55 63.5 -86t93.5 -33q65 -2 122.5 28t72.5 75q0 5 9 -1q23 -14 3 -59q-27 -57 -115 -100t-190 -33q-35 4 -72.5 21t-73 45.5t-56 75.5t-15.5 102 zM37 721q0 20 15.5 35.5t31.5 20.5l16 5q54 -75 215 -155l103 -54q0 -1 1 -5.5t-6.5 -8.5t-21.5 -2q-67 11 -192 45q-85 25 -123.5 52.5t-38.5 66.5zM154 244q65 17 107 77t42 123q0 55 -26 66.5t-54 -27.5q-59 -75 -69 -202q-3 -22 0 -37z" />
<glyph unicode="&#xe9;" horiz-adv-x="471" d="M2 244q7 76 37.5 137.5t72.5 96t89 53.5t89 18.5t70 -17.5q52 -28 61 -89.5t-24 -118.5q-26 -49 -92 -83.5t-145 -31.5q17 -55 63.5 -86t93.5 -33q65 -2 122.5 28t72.5 75q0 5 9 -1q23 -14 3 -59q-27 -57 -115 -100t-190 -33q-35 4 -72.5 21t-73 45.5t-56 75.5t-15.5 102 zM17 542.5q1 4.5 1 6.5t101 57q167 83 217 152q7 -1 17 -4t27 -17.5t17 -34.5q0 -39 -40 -67.5t-124 -52.5q-142 -42 -190 -50q-13 -2 -20 2t-6 8.5zM154 244q65 17 107 77t42 123q0 55 -26 66.5t-54 -27.5q-59 -75 -69 -202q-3 -22 0 -37z" />
<glyph unicode="&#xea;" horiz-adv-x="471" d="M-25 535.5v7.5q13 7 101 75q98 75 131.5 95t50.5 10q19 -10 92.5 -79t87.5 -89q7 -7 9.5 -12.5t1 -9t-3.5 -6t-5 -3.5l-4 -2q-1 0 -12 6t-43 24t-68 38q-80 43 -82 45q-47 -29 -84 -47q-88 -46 -141 -62q-15 -4 -23 0t-8 9.5zM2 244q7 76 37.5 137.5t72.5 96t89 53.5 t89 18.5t70 -17.5q52 -28 61 -89.5t-24 -118.5q-26 -49 -92 -83.5t-145 -31.5q17 -55 63.5 -86t93.5 -33q65 -2 122.5 28t72.5 75q0 5 9 -1q23 -14 3 -59q-27 -57 -115 -100t-190 -33q-35 4 -72.5 21t-73 45.5t-56 75.5t-15.5 102zM154 244q65 17 107 77t42 123 q0 55 -26 66.5t-54 -27.5q-59 -75 -69 -202q-3 -22 0 -37z" />
<glyph unicode="&#xeb;" horiz-adv-x="471" d="M0 668q3 43 40 70.5t83 27.5q45 0 73.5 -27.5t24.5 -70.5q-3 -39 -56 -78t-81 -39q-27 0 -57.5 38.5t-26.5 78.5zM2 244q7 76 37.5 137.5t72.5 96t89 53.5t89 18.5t70 -17.5q52 -28 61 -89.5t-24 -118.5q-26 -49 -92 -83.5t-145 -31.5q17 -55 63.5 -86t93.5 -33 q65 -2 122.5 28t72.5 75q0 5 9 -1q23 -14 3 -59q-27 -57 -115 -100t-190 -33q-35 4 -72.5 21t-73 45.5t-56 75.5t-15.5 102zM154 244q65 17 107 77t42 123q0 55 -26 66.5t-54 -27.5q-59 -75 -69 -202q-3 -22 0 -37zM264 668q3 43 40 70.5t83 27.5q45 0 73.5 -27.5 t24.5 -70.5q-3 -39 -56 -78t-83 -39q-26 0 -56 38.5t-26 78.5z" />
<glyph unicode="&#xec;" horiz-adv-x="268" d="M-47 733q0 20 16 35.5t31 21.5l16 5q55 -77 215 -156q49 -26 89 -45q14 -7 14 -8q0 -2 1 -6.5t-6.5 -8.5t-21.5 -2q-67 11 -192 45q-85 25 -123.5 52.5t-38.5 66.5zM1 271.5q2 63.5 15 117.5q16 64 50.5 91.5t71.5 20t69 -39.5q1 -1 -8 -28t-22 -82t-17 -111 q-14 -149 45 -156q34 -5 61 30.5t41 78.5q2 6 12 -2q19 -14 0 -58q-26 -56 -87.5 -100.5t-125.5 -30.5q-38 9 -63.5 50.5t-34.5 98.5t-7 120.5z" />
<glyph unicode="&#xed;" horiz-adv-x="268" d="M-54 555.5q1 4.5 1 5.5q0 3 100 57q167 83 217 152q7 -1 17.5 -4t27.5 -17t17 -34q0 -39 -40 -68.5t-124 -52.5q-134 -40 -191 -49q-13 -2 -19.5 2t-5.5 8.5zM1 271.5q2 63.5 15 117.5q16 64 50.5 91.5t71.5 20t69 -39.5q1 -1 -8 -28t-22 -82t-17 -111q-14 -149 45 -156 q34 -5 61 30.5t41 78.5q2 6 12 -2q19 -14 0 -58q-26 -56 -87.5 -100.5t-125.5 -30.5q-38 9 -63.5 50.5t-34.5 98.5t-7 120.5z" />
<glyph unicode="&#xee;" horiz-adv-x="268" d="M-109 547.5v7.5q13 8 101 76q96 74 130.5 94t51.5 10q19 -10 92.5 -79t87.5 -89q7 -7 9.5 -12.5t1 -9t-4 -5.5t-5.5 -4l-3 -1l-123 67q-80 43 -82 45q-47 -29 -84 -47q-83 -44 -141 -61q-15 -4 -23 -0.5t-8 9zM1 271.5q2 63.5 15 117.5q16 64 50.5 91.5t71.5 20t69 -39.5 q1 -1 -8 -28t-22 -82t-17 -111q-14 -149 45 -156q34 -5 61 30.5t41 78.5q2 6 12 -2q19 -14 0 -58q-26 -56 -87.5 -100.5t-125.5 -30.5q-38 9 -63.5 50.5t-34.5 98.5t-7 120.5z" />
<glyph unicode="&#xef;" horiz-adv-x="268" d="M-94 717q3 43 40 70.5t83 27.5q45 0 73.5 -27.5t24.5 -70.5q-3 -39 -56 -78t-81 -39q-27 0 -57.5 38.5t-26.5 78.5zM1 271.5q2 63.5 15 117.5q16 64 50.5 91.5t71.5 20t69 -39.5q1 -1 -8 -28t-22 -82t-17 -111q-14 -149 45 -156q34 -5 61 30.5t41 78.5q2 6 12 -2 q19 -14 0 -58q-26 -56 -87.5 -100.5t-125.5 -30.5q-38 9 -63.5 50.5t-34.5 98.5t-7 120.5zM170 717q3 43 40 70.5t83 27.5q45 0 73.5 -27.5t24.5 -70.5q-3 -39 -56 -78t-83 -39q-26 0 -56 38.5t-26 78.5z" />
<glyph unicode="&#xf0;" horiz-adv-x="552" d="M2 225q2 50 26 96.5t68.5 80.5t108.5 41t147 -21v6q-3 81 -20 166q-39 -2 -90 2q-24 1 -33 10.5t-8 16.5t4 12q2 2 106 27q-21 60 -53 104q-3 4 2.5 17.5t18 21.5t36.5 -4q59 -37 111 -109q50 15 85.5 28t41.5 15q2 -2 4 -6t6 -19t0 -32q-5 -27 -24.5 -42.5t-67.5 -25.5 q37 -87 43 -190q8 -109 -20 -201.5t-89.5 -152t-146.5 -68.5q-120 -11 -191.5 48.5t-64.5 178.5zM162 242q-7 -90 26.5 -149.5t85.5 -53.5q42 4 59 90.5t19 247.5q-85 23 -134 -11.5t-56 -123.5z" />
<glyph unicode="&#xf1;" horiz-adv-x="581" d="M12 528l10 4q9 5 18.5 8.5t24.5 8.5t29.5 7.5t30 2.5t30 -5t25.5 -15q51 -48 23 -179q58 89 133.5 131t138.5 23q14 -4 23.5 -11t13.5 -19t5 -24t-1.5 -33t-5.5 -39.5t-8 -49.5t-8 -57q-12 -101 -7 -145.5t31 -51.5q30 -10 59.5 26t43.5 83q2 6 12 -2q19 -14 0 -58 q-30 -67 -96 -110.5t-129 -24.5q-54 17 -70 77.5t-2 166.5q4 27 9.5 61t7.5 50t3.5 33.5t-0.5 25t-8 10.5q-10 5 -24.5 -1t-31.5 -22.5t-35.5 -41.5t-35.5 -60t-31 -74t-24 -87.5t-12 -98.5v-21q-47 -25 -90.5 -11.5t-49.5 65.5q-9 89 0 231q9 123 -2 227zM55 670 q3 39 33 62.5t80 19.5q52 -2 130 -34.5t95 -35.5q30 -6 43 12.5t10 44.5l22 -8q39 -21 36 -55q-5 -40 -32.5 -57.5t-84.5 -16.5q-67 4 -194 35q-49 11 -73 -1.5t-28 -35.5q0 -3 -10.5 3t-20 23.5t-6.5 43.5z" />
<glyph unicode="&#xf2;" horiz-adv-x="473" d="M2 244q6 78 38.5 136.5t76.5 87.5t89 40t81 2q22 22 51 25q40 5 63.5 -30.5t27.5 -93.5t-1 -130q-3 -48 -16 -93h2q12 1 23.5 6.5t20 12t17 16t13 16t9.5 13.5l5 8q6 7 15 -2q14 -13 -3 -43q-45 -72 -108 -72h-9q-59 -134 -196 -143q-86 -8 -147.5 61t-51.5 183zM55 733 q0 20 16 35.5t32 21.5l16 5q55 -77 215 -156q45 -24 85 -43q17 -9 17 -10q0 -2 1 -6.5t-6 -8.5t-21 -2q-69 11 -193 45q-85 25 -123.5 52.5t-38.5 66.5zM156 268q-3 -83 22.5 -132t75.5 -50q54 -3 96 70q-61 31 -84 108q-19 53 -20 112.5t20 104.5q-19 3 -39 -10 q-30 -22 -50 -76.5t-21 -126.5zM315 283q9 -66 54 -88q11 31 14 73q4 42 1.5 73t-11.5 48.5t-23 16.5q-22 0 -33 -37t-2 -86z" />
<glyph unicode="&#xf3;" horiz-adv-x="473" d="M2 244q6 78 38.5 136.5t76.5 87.5t89 40t81 2q22 22 51 25q40 5 63.5 -30.5t27.5 -93.5t-1 -130q-3 -48 -16 -93h2q12 1 23.5 6.5t20 12t17 16t13 16t9.5 13.5l5 8q6 7 15 -2q14 -13 -3 -43q-45 -72 -108 -72h-9q-59 -134 -196 -143q-86 -8 -147.5 61t-51.5 183z M42 555.5q1 4.5 1 5.5q0 3 100 57q167 83 217 152q7 -1 17.5 -4t27.5 -17t17 -34q0 -39 -40 -68.5t-124 -52.5q-135 -40 -190 -49q-13 -2 -20 2t-6 8.5zM156 268q-3 -83 22.5 -132t75.5 -50q54 -3 96 70q-61 31 -84 108q-19 53 -20 112.5t20 104.5q-19 3 -39 -10 q-30 -22 -50 -76.5t-21 -126.5zM315 283q9 -66 54 -88q11 31 14 73q4 42 1.5 73t-11.5 48.5t-23 16.5q-22 0 -33 -37t-2 -86z" />
<glyph unicode="&#xf4;" horiz-adv-x="473" d="M-6 559.5v7.5q12 8 100 76q98 75 131.5 95t50.5 10q19 -10 93 -79t88 -89q7 -7 9.5 -12.5t1 -9t-3.5 -6t-6 -4.5l-3 -1l-123 67q-80 43 -82 45q-47 -29 -84 -47q-83 -44 -141 -61q-15 -4 -23 -0.5t-8 9zM2 244q6 78 38.5 136.5t76.5 87.5t89 40t81 2q22 22 51 25 q40 5 63.5 -30.5t27.5 -93.5t-1 -130q-3 -48 -16 -93h2q12 1 23.5 6.5t20 12t17 16t13 16t9.5 13.5l5 8q6 7 15 -2q14 -13 -3 -43q-45 -72 -108 -72h-9q-59 -134 -196 -143q-86 -8 -147.5 61t-51.5 183zM156 268q-3 -83 22.5 -132t75.5 -50q54 -3 96 70q-61 31 -84 108 q-19 53 -20 112.5t20 104.5q-19 3 -39 -10q-30 -22 -50 -76.5t-21 -126.5zM315 283q9 -66 54 -88q11 31 14 73q4 42 1.5 73t-11.5 48.5t-23 16.5q-22 0 -33 -37t-2 -86z" />
<glyph unicode="&#xf5;" horiz-adv-x="473" d="M2 244q6 78 38.5 136.5t76.5 87.5t89 40t81 2q22 22 51 25q40 5 63.5 -30.5t27.5 -93.5t-1 -130q-3 -48 -16 -93h2q12 1 23.5 6.5t20 12t17 16t13 16t9.5 13.5l5 8q6 7 15 -2q14 -13 -3 -43q-45 -72 -108 -72h-9q-59 -134 -196 -143q-86 -8 -147.5 61t-51.5 183zM12 645 q3 39 33 62.5t80 19.5q52 -2 130 -34.5t95 -35.5q30 -6 43 12.5t10 45.5l21 -8q40 -22 37 -56q-5 -40 -32.5 -57t-84.5 -16q-72 4 -194 34q-49 11 -73 -1.5t-28 -35.5q0 -3 -10.5 3t-20 23.5t-6.5 43.5zM156 268q-3 -83 22.5 -132t75.5 -50q54 -3 96 70q-61 31 -84 108 q-19 53 -20 112.5t20 104.5q-19 3 -39 -10q-30 -22 -50 -76.5t-21 -126.5zM315 283q9 -66 54 -88q11 31 14 73q4 42 1.5 73t-11.5 48.5t-23 16.5q-22 0 -33 -37t-2 -86z" />
<glyph unicode="&#xf6;" horiz-adv-x="473" d="M2 244q6 78 38.5 136.5t76.5 87.5t89 40t81 2q22 22 51 25q40 5 63.5 -30.5t27.5 -93.5t-1 -130q-3 -48 -16 -93h2q12 1 23.5 6.5t20 12t17 16t13 16t9.5 13.5l5 8q6 7 15 -2q14 -13 -3 -43q-45 -72 -108 -72h-9q-59 -134 -196 -143q-86 -8 -147.5 61t-51.5 183zM2 717 q3 43 40 70.5t83 27.5q45 0 73.5 -27.5t24.5 -70.5q-3 -39 -56 -78t-81 -39q-27 0 -57.5 38.5t-26.5 78.5zM156 268q-3 -83 22.5 -132t75.5 -50q54 -3 96 70q-61 31 -84 108q-19 53 -20 112.5t20 104.5q-19 3 -39 -10q-30 -22 -50 -76.5t-21 -126.5zM266 717q3 43 40 70.5 t83 27.5q45 0 73.5 -27.5t24.5 -70.5q-3 -39 -56 -78t-83 -39q-26 0 -56 38.5t-26 78.5zM315 283q9 -66 54 -88q11 31 14 73q4 42 1.5 73t-11.5 48.5t-23 16.5q-22 0 -33 -37t-2 -86z" />
<glyph unicode="&#xf7;" horiz-adv-x="432" d="M41 340h2q29 3 152 8q57 4 196 19q10 -19 -2 -50q-7 -23 -29 -30.5t-81 -7.5q-52 0 -121.5 7t-91.5 15q-37 15 -25 39zM133 104q0 42 39 71.5t86 29.5q46 0 77 -31.5t19 -73.5q-13 -45 -61 -71.5t-80 -26.5q-27 0 -53.5 28.5t-26.5 73.5zM141 530q1 44 39.5 73.5 t85.5 29.5q46 0 77 -32.5t19 -74.5q-13 -44 -60.5 -71t-80.5 -27q-27 0 -53.5 28.5t-26.5 73.5z" />
<glyph unicode="&#xf8;" horiz-adv-x="473" d="M2 244q5 71 32.5 126t67 85.5t80.5 45.5t78 13q21 87 21 148q8 2 21.5 4.5t44.5 -3t50 -26.5q38 -42 9 -141q33 -59 22 -215q-3 -48 -16 -93h2q12 1 23.5 6.5t20 12t17 16t13 16t9.5 13.5l5 8q6 7 15 -2q14 -13 -3 -43q-45 -72 -108 -72h-9q-59 -134 -196 -143h-35 q-8 -27 -10 -45q-4 -18 -6.5 -33t-3 -19.5t-1.5 -4.5q-26 -7 -45.5 7t-15.5 44q3 41 12 76q-48 29 -74.5 86.5t-19.5 132.5zM156 268q-2 -24 2 -61q50 149 86 250l6 24q-13 -3 -23 -10q-30 -22 -50 -76.5t-21 -126.5zM203 104q21 -18 51 -18q54 -3 96 70q-50 24 -76 84 q-47 -81 -71 -136zM311 305q0 -6 4 -22q9 -66 54 -88q11 31 14 73q9 106 -21 133q-10 -21 -51 -96z" />
<glyph unicode="&#xf9;" horiz-adv-x="575" d="M4 231q2 16 7.5 55.5t7 51.5t4.5 40t3 42v34.5t-1 39.5l9 4q8 4 16.5 7.5t22 8t26.5 6t27 1.5t27.5 -5.5t24.5 -15.5q28 -26 28 -73.5t-26 -139.5q-18 -65 -19 -111t11 -67t33 -21q32 0 65.5 48t48.5 114q0 45 7 110q9 75 41.5 112.5t72.5 34.5t76 -38q-17 -55 -29 -190 q-8 -103 -1.5 -147.5t30.5 -51.5q31 -10 57.5 24.5t40.5 83.5q2 6 13 -1q21 -14 0 -56q-29 -69 -92 -110.5t-125 -22.5q-64 21 -84 154q-34 -78 -90.5 -120t-116.5 -36q-59 7 -94 66.5t-21 168.5zM94 709q0 20 16 35.5t32 20.5l16 5q55 -77 215 -156q45 -23 85 -43 q17 -9 17 -10t1 -5.5t-6 -8.5t-21 -2q-69 11 -193 45q-85 25 -123.5 52.5t-38.5 66.5z" />
<glyph unicode="&#xfa;" horiz-adv-x="575" d="M4 231q2 16 7.5 55.5t7 51.5t4.5 40t3 42v34.5t-1 39.5l9 4q8 4 16.5 7.5t22 8t26.5 6t27 1.5t27.5 -5.5t24.5 -15.5q28 -26 28 -73.5t-26 -139.5q-18 -65 -19 -111t11 -67t33 -21q32 0 65.5 48t48.5 114q0 45 7 110q9 75 41.5 112.5t72.5 34.5t76 -38q-17 -55 -29 -190 q-8 -103 -1.5 -147.5t30.5 -51.5q31 -10 57.5 24.5t40.5 83.5q2 6 13 -1q21 -14 0 -56q-29 -69 -92 -110.5t-125 -22.5q-64 21 -84 154q-34 -78 -90.5 -120t-116.5 -36q-59 7 -94 66.5t-21 168.5zM99 579.5q1 4.5 1 6.5t101 57q167 83 217 152q7 -1 17 -4t27 -17.5t17 -34.5 q0 -39 -40 -68.5t-124 -52.5q-135 -40 -190 -49q-13 -2 -20 2t-6 8.5z" />
<glyph unicode="&#xfb;" horiz-adv-x="575" d="M4 231q2 16 7.5 55.5t7 51.5t4.5 40t3 42v34.5t-1 39.5l9 4q8 4 16.5 7.5t22 8t26.5 6t27 1.5t27.5 -5.5t24.5 -15.5q28 -26 28 -73.5t-26 -139.5q-18 -65 -19 -111t11 -67t33 -21q32 0 65.5 48t48.5 114q0 45 7 110q9 75 41.5 112.5t72.5 34.5t76 -38q-17 -55 -29 -190 q-8 -103 -1.5 -147.5t30.5 -51.5q31 -10 57.5 24.5t40.5 83.5q2 6 13 -1q21 -14 0 -56q-29 -69 -92 -110.5t-125 -22.5q-64 21 -84 154q-34 -78 -90.5 -120t-116.5 -36q-59 7 -94 66.5t-21 168.5zM45 572.5v7.5q12 7 100 75q97 74 131.5 94.5t51.5 10.5q19 -10 92.5 -79 t87.5 -89q7 -7 9.5 -12.5t1 -9t-3.5 -6t-5 -4.5l-4 -1q-1 0 -12 6t-43 24t-68 38q-80 43 -82 45q-47 -29 -84 -47q-88 -46 -141 -62q-15 -4 -23 0t-8 9.5z" />
<glyph unicode="&#xfc;" horiz-adv-x="575" d="M4 231q2 16 7.5 55.5t7 51.5t4.5 40t3 42v34.5t-1 39.5l9 4q8 4 16.5 7.5t22 8t26.5 6t27 1.5t27.5 -5.5t24.5 -15.5q28 -26 28 -73.5t-26 -139.5q-18 -65 -19 -111t11 -67t33 -21q32 0 65.5 48t48.5 114q0 45 7 110q9 75 41.5 112.5t72.5 34.5t76 -38q-17 -55 -29 -190 q-8 -103 -1.5 -147.5t30.5 -51.5q31 -10 57.5 24.5t40.5 83.5q2 6 13 -1q21 -14 0 -56q-29 -69 -92 -110.5t-125 -22.5q-64 21 -84 154q-34 -78 -90.5 -120t-116.5 -36q-59 7 -94 66.5t-21 168.5zM43 692q3 43 40 71t83 28q45 0 73.5 -28t24.5 -71q-3 -39 -56 -78t-81 -39 q-27 0 -57.5 38.5t-26.5 78.5zM307 692q3 43 40 71t83 28q45 0 73.5 -28t24.5 -71q-3 -39 -56 -78t-83 -39q-26 0 -56 38.5t-26 78.5z" />
<glyph unicode="&#xfd;" horiz-adv-x="548" d="M4 231q27 185 23 263q104 52 153 6q25 -25 25.5 -73.5t-25.5 -139.5q-18 -65 -19 -111t11 -67t33 -21q29 0 61 41.5t47 101.5l29 154q13 63 45 94.5t71 27.5t74 -38q0 -1 -6.5 -21t-19 -75.5t-21.5 -128.5q-14 -125 -26 -205q50 32 90 80q30 33 39 69q2 6 13 -1 q21 -14 -1 -56q-50 -95 -151 -141q-32 -184 -105 -305q-35 -57 -80 -88t-83.5 -34t-69 8.5t-45.5 33.5q-20 32 -21.5 77t17 95.5t75 101t142.5 84.5l6 4q0 2 1 6.5t1 6.5q1 16 4.5 58t5.5 62q-74 -113 -178 -104q-59 7 -94 66.5t-21 168.5zM96 -330q10 -35 52.5 -28.5 t68.5 47.5q40 73 64 235q-105 -44 -153.5 -120.5t-31.5 -133.5zM97 579.5q1 4.5 1 6.5t101 57q167 83 217 152q7 -1 17 -4t27 -17.5t17 -34.5q0 -39 -40 -68.5t-124 -52.5q-135 -40 -190 -49q-13 -2 -20 2t-6 8.5z" />
<glyph unicode="&#xfe;" horiz-adv-x="522" d="M-61 -344.5q-3 58.5 16 162.5q66 493 82 755q8 109 -8 263q9 5 22 11t38.5 14.5t51.5 5t45 -20.5q32 -29 37.5 -70t-8.5 -153q-3 -24 -11.5 -103t-13.5 -119q38 59 91 91t104 28q55 -7 91 -72.5t22 -171.5q-9 -59 -37.5 -107.5t-67 -77t-84 -46.5t-89 -16t-81.5 16 q-9 -67 -12 -154q-3 -112 6 -313q-4 -3 -11 -7t-27 -12t-38.5 -11.5t-41.5 1t-40 19.5q-33 29 -36 87.5zM143 90q58 -32 117.5 4.5t81.5 143.5q12 63 6.5 105t-19.5 63.5t-32 21.5q-31 0 -68.5 -49t-54.5 -113q-6 -34 -6 -43q-19 -88 -25 -133z" />
<glyph unicode="&#xff;" horiz-adv-x="548" d="M4 231q27 185 23 263q104 52 153 6q25 -25 25.5 -73.5t-25.5 -139.5q-18 -65 -19 -111t11 -67t33 -21q29 0 61 41.5t47 101.5l29 154q13 63 45 94.5t71 27.5t74 -38q0 -1 -6.5 -21t-19 -75.5t-21.5 -128.5q-14 -125 -26 -205q50 32 90 80q30 33 39 69q2 6 13 -1 q21 -14 -1 -56q-50 -95 -151 -141q-32 -184 -105 -305q-35 -57 -80 -88t-83.5 -34t-69 8.5t-45.5 33.5q-20 32 -21.5 77t17 95.5t75 101t142.5 84.5l6 4q0 2 1 6.5t1 6.5q1 16 4.5 58t5.5 62q-74 -113 -178 -104q-59 7 -94 66.5t-21 168.5zM57 705q3 43 40 70.5t83 27.5 q45 0 74 -27.5t25 -70.5q-3 -39 -56 -78t-82 -39q-27 0 -57.5 38.5t-26.5 78.5zM96 -330q10 -35 52.5 -28.5t68.5 47.5q40 73 64 235q-105 -44 -153.5 -120.5t-31.5 -133.5zM322 705q3 43 39.5 70.5t82.5 27.5q45 0 74 -27.5t25 -70.5q-3 -39 -56.5 -78t-83.5 -39 q-26 0 -55.5 38.5t-25.5 78.5z" />
<glyph unicode="&#x152;" horiz-adv-x="2105" d="M2 317q19 327 234 549q-38 68 -52.5 141t-8 128.5t27.5 91.5q43 73 97 80q31 4 37 -15q3 -9 -3 -18q-26 -47 -26 -136t38 -177q170 124 350 147q188 23 297.5 -53t83.5 -211q51 -47 76 -94q12 89 63 161t124 116t158.5 66.5t170.5 20.5q120 -3 183 -63t63 -170 q0 -58 -23.5 -108.5t-63.5 -83t-88 -50.5t-101.5 -14t-100.5 30q-14 8 -19 30.5t-1 49t9.5 51.5t10.5 42l6 16q64 -51 120 -73.5t93 -16.5t59.5 32t26.5 68q8 85 -47.5 140.5t-157.5 58.5q-120 3 -195 -77t-91 -204q-11 -79 8 -143.5t58.5 -103.5t93.5 -55.5t112 -4.5 q23 4 32.5 -9t7.5 -28l-1 -16q-52 -11 -80 -13q-326 -62 -366 -358q-7 -56 4.5 -106.5t39 -88.5t68.5 -67.5t93.5 -44.5t111.5 -19t125.5 10t133 41t136 74.5t133.5 110.5q18 16 27.5 10.5t12.5 -19.5l3 -14q-97 -96 -212 -161.5t-224.5 -95t-217 -30.5t-192.5 26t-147 80.5 t-86 127.5q-92 -112 -213 -174.5t-262 -58.5q-133 4 -242 63t-177.5 153t-103 213t-26.5 246zM217 414q-18 -191 16 -347t123.5 -255t223.5 -107q150 -10 263 76t165 229q55 149 69.5 330.5t-12.5 298.5q-7 41 -33 90q-45 -63 -131 -104t-195.5 -44t-222.5 56 q-99 50 -174 131q-75 -146 -92 -354zM387 885q29 -46 74 -84q61 -56 147 -88t162.5 -35.5t137.5 15.5t79 57q7 15 10 28q-39 49 -93.5 81t-102.5 40q-35 6 -15 18q29 16 88 14q5 -1 9 -1q61 -6 116 -31q-28 80 -120 121.5t-201 21.5q-182 -36 -291 -157zM1221 322 q80 51 190 86q-114 21 -182 92q2 -25 2 -72q-4 -68 -10 -106z" />
<glyph unicode="&#x153;" horiz-adv-x="763" d="M2 244q6 78 38.5 136.5t76.5 87.5t89 40t81 2q26 23 51 25q82 8 92 -142q27 40 65 67t76 37.5t73.5 7t60.5 -21.5q38 -28 53.5 -74t-4.5 -98q-26 -50 -84.5 -79t-137.5 -25q10 -56 43.5 -85.5t77.5 -31.5q52 -1 94 28t56 75q2 6 12 -2q19 -14 0 -58q-26 -58 -98.5 -100.5 t-161.5 -32.5q-51 5 -97 40t-67 95q-58 -122 -190 -135q-88 -6 -148.5 62t-50.5 182zM154 268q-2 -83 24 -132t76 -50q54 -3 96 72q-62 32 -84 106q-20 56 -21 113.5t21 103.5q-21 3 -41 -10q-30 -22 -50 -76.5t-21 -126.5zM313 283q9 -63 56 -86q5 14 8 34q0 2 1 6.5t1 6.5 q0 13 4 37q7 127 -35 127q-21 -2 -31.5 -39t-3.5 -86zM530 246q41 14 75 52.5t48.5 79t8.5 66.5q-6 23 -25.5 20.5t-42.5 -30.5q-54 -68 -62 -153q-2 -12 -2 -35z" />
<glyph unicode="&#x178;" horiz-adv-x="1531" d="M2.5 151.5q-4.5 32.5 9 65.5t41.5 57q13 10 23.5 5t17 -16.5t2.5 -14.5q-32 -26 -40.5 -54.5t14 -53.5t75.5 -36q153 -32 332 35q-11 88 -8 207q10 353 109.5 521.5t255.5 150.5q64 -7 102.5 -70t40 -158.5t-25 -201t-98 -209.5t-173.5 -172l-25 -17q11 -203 70 -310 t162 -107q69 0 130.5 59.5t116.5 183.5t100 334.5t73 493.5l6 53q2 10 20.5 13.5t44 0t51 -10.5t44.5 -19t22 -25q0 -1 -0.5 -3.5t-0.5 -5.5t-0.5 -7.5t-1 -9.5t-1 -12l-1 -14t-1 -16t-0.5 -18q-54 -773 -88 -1026q172 -12 289 -100q3 -3 -2 -11.5t-18 -11.5t-40 12 q-101 57 -235 64q-38 -244 -105 -410q-43 -105 -104.5 -166.5t-122 -73.5t-117 4.5t-97 61.5t-54.5 103q-9 47 -8 97.5t23 105.5t58 104.5t97 95.5t139 78q63 26 117 37l4 28q6 65 19 235.5t24 291.5q-69 -326 -186 -479.5t-267 -151.5q-123 1 -212 121t-120 323 q-193 -80 -352 -51q-58 12 -91 40t-37.5 60.5zM653 233l31 25q65 56 115.5 144t74 178t28.5 172t-19 136t-70 60q-35 4 -62 -33.5t-45 -110.5t-29.5 -160.5t-17.5 -197.5q-9 -116 -6 -213zM850 -709q8 -62 46 -96t84.5 -33t93.5 39.5t71 108.5q51 148 72 373 q-54 -11 -109 -31q-87 -31 -151 -97.5t-89.5 -136t-17.5 -127.5zM868 1126q3 43 40 71t83 28q45 0 74 -28t25 -71q-3 -39 -56 -77.5t-82 -38.5q-27 0 -57.5 38t-26.5 78zM1133 1126q3 43 39.5 71t82.5 28q45 0 74 -28t25 -71q-3 -39 -56.5 -77.5t-83.5 -38.5q-26 0 -55.5 38 t-25.5 78z" />
<glyph unicode="&#x2c6;" horiz-adv-x="477" d="M2 572.5v7.5q12 7 100 75q97 74 131.5 94.5t51.5 10.5q19 -10 92.5 -79t87.5 -89q7 -7 9.5 -12.5t1 -9t-3.5 -6t-6 -4.5l-3 -1q-1 0 -12 6t-43 24t-68 38q-80 43 -82 45q-47 -29 -84 -47q-88 -46 -141 -62q-15 -4 -23 0t-8 9.5z" />
<glyph unicode="&#x2dc;" horiz-adv-x="450" d="M2 645q3 39 33 62.5t80 19.5q52 -2 130 -34.5t95 -35.5q30 -6 43 12.5t10 45.5l21 -8q40 -22 37 -56q-5 -40 -32.5 -57t-84.5 -16q-25 1 -91 13t-104 21q-49 11 -72.5 -1.5t-27.5 -35.5q0 -3 -10.5 3t-20 23.5t-6.5 43.5z" />
<glyph unicode="&#x2000;" horiz-adv-x="747" />
<glyph unicode="&#x2001;" horiz-adv-x="1495" />
<glyph unicode="&#x2002;" horiz-adv-x="747" />
<glyph unicode="&#x2003;" horiz-adv-x="1495" />
<glyph unicode="&#x2004;" horiz-adv-x="498" />
<glyph unicode="&#x2005;" horiz-adv-x="373" />
<glyph unicode="&#x2006;" horiz-adv-x="249" />
<glyph unicode="&#x2007;" horiz-adv-x="249" />
<glyph unicode="&#x2008;" horiz-adv-x="186" />
<glyph unicode="&#x2009;" horiz-adv-x="299" />
<glyph unicode="&#x200a;" horiz-adv-x="83" />
<glyph unicode="&#x2010;" horiz-adv-x="444" d="M29 279h1q28 3 152 8q86 6 197 18q10 -18 -2 -49q-7 -23 -29.5 -31t-81.5 -8q-51 0 -121 7.5t-92 15.5q-36 14 -24 39z" />
<glyph unicode="&#x2011;" horiz-adv-x="444" d="M29 279h1q28 3 152 8q86 6 197 18q10 -18 -2 -49q-7 -23 -29.5 -31t-81.5 -8q-51 0 -121 7.5t-92 15.5q-36 14 -24 39z" />
<glyph unicode="&#x2012;" horiz-adv-x="444" d="M29 279h1q28 3 152 8q86 6 197 18q10 -18 -2 -49q-7 -23 -29.5 -31t-81.5 -8q-51 0 -121 7.5t-92 15.5q-36 14 -24 39z" />
<glyph unicode="&#x2013;" horiz-adv-x="542" d="M29 279h1q28 3 152 8q251 11 320 18q10 -18 -2 -49q-7 -23 -29.5 -31t-81.5 -8q-60 0 -188 8t-148 15q-36 14 -24 39z" />
<glyph unicode="&#x2014;" horiz-adv-x="616" d="M29 279h1q28 3 152 8q370 16 393 18q10 -18 -2 -49q-8 -23 -30 -31t-80 -8q-65 0 -227.5 8t-182.5 15q-36 14 -24 39z" />
<glyph unicode="&#x2018;" horiz-adv-x="299" d="M152 752q45 120 92 157q12 10 27 7t20 -15l-1 -4q-2 -4 -4 -11.5t-5 -18.5t-5.5 -26t-4.5 -32t-3.5 -39.5t-1.5 -46.5q0 -80 33 -186q-10 -4 -25.5 -9t-52 -6t-59.5 15q-70 51 -10 215z" />
<glyph unicode="&#x2019;" horiz-adv-x="274" d="M98 903q3 1 9.5 3.5t24 6.5t33.5 5t36 -3t35 -14q71 -51 10 -213q-45 -123 -92 -160q-12 -10 -27.5 -6.5t-20.5 17.5q27 59 27 176q0 90 -35 188z" />
<glyph unicode="&#x201a;" horiz-adv-x="176" d="M0 276q3 1 9 3.5t23.5 6.5t33.5 5t36 -3t35 -14q71 -51 10 -213q-23 -64 -49 -104.5t-43 -54.5q-12 -10 -27 -7t-20 17q27 59 27 176q0 90 -35 188z" />
<glyph unicode="&#x201c;" horiz-adv-x="395" d="M2 608.5q-5 30.5 4.5 73t34.5 82.5q49 83 129 137q12 7 26.5 1.5t16.5 -17.5q-7 -7 -17.5 -21t-31 -60t-27.5 -95q-12 -75 6 -177q-8 -1 -22 -2t-46 6.5t-52 26.5q-16 15 -21 45.5zM223 752q45 120 92 157q11 10 26.5 7t18.5 -15l-2 -4q-1 -4 -3 -11.5t-4.5 -18.5t-5 -26 t-4.5 -32t-3.5 -39.5t-1.5 -46.5q0 -88 35 -186q-10 -4 -25.5 -9t-52.5 -6t-60 15q-70 51 -10 215z" />
<glyph unicode="&#x201d;" horiz-adv-x="481" d="M98 903q3 1 9.5 3.5t24 6.5t33.5 5t36 -3t35 -14q71 -51 10 -213q-45 -123 -92 -160q-12 -10 -27.5 -6.5t-20.5 17.5q27 59 27 176q0 90 -35 188zM256 549q7 8 17.5 23.5t31 64.5t27.5 98q10 74 -4 178q10 2 26.5 4t52 -4.5t52.5 -27.5q52 -62 -21 -180 q-33 -56 -78 -108.5t-61 -61.5q-13 -8 -28 -3t-15 17z" />
<glyph unicode="&#x201e;" horiz-adv-x="382" d="M0 276q3 1 9 3.5t23.5 6.5t33.5 5t36 -3t35 -14q71 -51 10 -213q-23 -64 -49 -104.5t-43 -54.5q-12 -10 -27 -7t-20 17q27 59 27 176q0 90 -35 188zM158 -78q7 9 17 24.5t30.5 64.5t27.5 98q10 74 -4 178q10 2 26.5 3.5t52 -5t52.5 -27.5q52 -63 -20 -180 q-33 -56 -78 -108.5t-61 -61.5q-13 -8 -28 -3t-15 17z" />
<glyph unicode="&#x2022;" horiz-adv-x="432" d="M37 410q0 69 61.5 115t137.5 46q73 0 123 -50t30 -115q-16 -50 -62.5 -88.5t-90 -54t-72.5 -15.5q-44 0 -85.5 45t-41.5 117z" />
<glyph unicode="&#x2026;" horiz-adv-x="1042" d="M74 104q0 42 39 71.5t86 29.5q46 0 77 -31.5t19 -73.5q-13 -45 -61 -71.5t-80 -26.5q-28 0 -54 28t-26 74zM422 104q0 42 39 71.5t86 29.5q46 0 77 -31.5t19 -73.5q-13 -45 -61 -71.5t-80 -26.5q-28 0 -54 28t-26 74zM770 104q0 43 38.5 72t86.5 29q46 0 77 -31.5 t19 -73.5q-15 -45 -62 -71.5t-79 -26.5q-28 0 -54 28t-26 74z" />
<glyph unicode="&#x202f;" horiz-adv-x="299" />
<glyph unicode="&#x2039;" horiz-adv-x="428" d="M63 293v2l7 6l2 2l112 86q79 59 154 123q17 -10 27 -41q6 -25 -8.5 -44t-61.5 -50q-39 -28 -97 -58t-87 -40l84 -74q47 -43 77 -68.5t48 -39.5t24 -19q-4 -21 -35 -35q-22 -11 -43.5 -0.5t-62.5 51.5q-37 37 -80.5 92t-52.5 76q-11 19 -7 31z" />
<glyph unicode="&#x203a;" horiz-adv-x="428" d="M63 70q-6 25 8.5 44t61.5 50q42 28 98.5 58.5t83.5 39.5l-82 74q-47 43 -77 68.5t-48 39.5t-24 19q4 21 35 35q22 10 43.5 -0.5t62.5 -51.5q38 -38 81 -92t52 -75q10 -23 7 -31v-2q-3 -2 -3 -4q-1 0 -2 -1t-2 -1q-12 -12 -114 -88q-79 -59 -154 -123q-19 10 -27 41z" />
<glyph unicode="&#x205f;" horiz-adv-x="373" />
<glyph unicode="&#x20ac;" horiz-adv-x="550" d="M0 224.5q1 4.5 2 6.5q31 -2 64 -4q0 15 2 23q0 21 2 31q-45 9 -47 10q-7 3 -11.5 9t-4 10.5t0.5 6.5q33 -2 70 -4q14 58 43 104.5t64 73.5t75.5 44t76.5 15.5t66 -11.5q35 -15 55 -43t20 -53t-11 -44q-40 -52 -125 -5q-32 18 -33 24q37 12 56 36.5t10 45.5 q-6 17 -30.5 15.5t-47.5 -26.5q-62 -54 -84 -174q75 5 102 13q4 -15 -2 -35q-13 -33 -84 -27h-24v-37q75 5 102 13q4 -15 -2 -35q-10 -33 -82 -27h-12q10 -54 41.5 -85t75.5 -36q48 -4 84 32.5t55 96.5q2 3 9.5 -1.5t10.5 -17t-8 -40.5q-27 -59 -88 -101.5t-147 -31.5 q-59 5 -113.5 59t-62.5 140q-38 3 -52 10q-8 3 -12.5 9t-3.5 10.5z" />
<glyph unicode="&#x2122;" horiz-adv-x="520" d="M61 446v31h158v-31h-61v-155h-37v155h-60zM229 291l15 186h55l33 -92l12 -45h2l12 45l33 92h53l15 -186h-37l-8 110v52h-4l-15 -56l-35 -104h-36l-35 108l-13 52h-2q0 -8 -1 -26t-1 -26l-6 -110h-37z" />
<glyph unicode="&#x25fc;" horiz-adv-x="542" d="M0 0v543h543v-543h-543z" />
</font>
</defs>
</svg>
