<?xml version="1.0" encoding="utf-8"?>
<!-- Generator: Adobe Illustrator 15.1.0, SVG Export Plug-In . SVG Version: 6.00 Build 0)  -->
<!DOCTYPE svg PUBLIC "-//W3C//DTD SVG 1.1//EN" "http://www.w3.org/Graphics/SVG/1.1/DTD/svg11.dtd">
<svg version="1.1" id="Layer_1" xmlns="http://www.w3.org/2000/svg" xmlns:xlink="http://www.w3.org/1999/xlink" x="0px" y="0px"
	 width="135px" height="55px" viewBox="17.5 70 135 55" enable-background="new 17.5 70 135 55" xml:space="preserve">
<g>
	<g>
		<path d="M111.182,116.171c0.548-7.437-3.263-7.916-6.599-11.47c2.254-3.837-3.039-7.697-4.965-4.6
			c-1.928,3.099-0.096,4.294,0.566,5.662c-2.442,3.793-10.319,15.069-21.765,9c-2.32-1.231-5.759-4.85-6.854-7.485
			c2.251-1.52,5.465-5.487,5.64-6.867c0.18-1.423-1.427-2.883-2.708-2.003c-2.221,1.526-3.979,6.088-6.659,6.428l-0.014-25.173
			c-0.159-2.287-3.981-2.05-3.971,0.005l0.231,38.208c0.116,1.653,3.374,1.155,3.611,0c0.238-1.155,0.099-10.329,0.099-10.329
			c0.327,0.409,5.08,8.362,8.077,10.046c15.71,8.818,23.771-4.966,27.142-9.85c2.466,2.347,5.05,2.572,4.812,7.621
			c-3.78-1.123-9.794-0.428-9.623,3.396c0.221,5.01,10.321,3.302,12.171,0c1.29,0.657,3.104,2.859,4.312,1.396
			C115.741,118.917,112.429,116.729,111.182,116.171z M101.6,119.328c-0.927-1.816,3.357-2.468,5.661-1.981
			C106.445,118.929,102.278,120.395,101.6,119.328z M150.196,119.535c-0.585-1.27-5.537-2.3-7.957-7.854
			c0.055-0.05,5.937-4.659,6.578-7.552c0.219-0.986-1.63-3.127-2.288-2.288c-3.525,4.186-6.898,7.396-8.057,7.766V82.494
			c0-2.808-3.823-2.913-3.823-0.282l-0.021,28.212c-1.082,0.088-2.109-0.034-2.967-0.479c-3.813-1.976,1.252-12.678-2.96-16.412
			c-4.05-3.59-10.442-0.552-12.455,2.818l0.045-21.501c-0.343-2.254-4.24-2.049-4.238-0.19l0.085,38.689
			c-0.016,2.893,3.173,3.626,3.921,3.084c0.856-0.786-0.23-11.049,1.645-15.736c1.258-3.146,3.839-4.937,6.187-4.618
			c4.857,0.661,0.81,10.719,2.83,14.719c0.813,2.456,4.3,3.458,7.914,3.303c0.008,3.928,0.013,6.595,0.012,6.605
			c0.104,2.26,3.869,1.945,3.826,0v-7.055c4.853,7.106,7.134,7.756,9.52,8.488C150.094,122.784,150.806,121.043,150.196,119.535z
			 M43.543,112.215c4.679,3.875,8.811-2.242,9.658-2.875c1.918,3.517,5.47,7.017,7.469,7.391c0.666,0.125,1.333-0.777,1.541-1.39
			c0.59-1.966-2.995-2.555-6.078-9.513c0,0,2.559-6.132,3.536-10.031c2.853-9.77,2.742-19.42-4.347-19.739
			c-12.077-0.193-6.029,24.958-3.588,30.583c-0.771,1.734-3.084,4.071-4.51,3.309 M47.222,109.95
			c-5.083-2.716,1.19-12.948-3.679-16.409c-4.081-2.899-8.528,0.177-10.19,3.671c-0.518-7.714-11-5.649-12.172,0l-0.194-3.824
			c-0.138-1.252-3.35-1.56-3.486,0v18.863c0.253,1.678,2.738,1.16,3.113,0c0.375-1.158,0.089-17.658,6.793-16.454
			c4.389,0.863,1.505,14.897,2.264,16.545c0.76,1.646,3.097,1.075,3.396,0c0.415-0.644,1.253-16.707,6.511-15.97
			c3.807,0.534,0.955,7.916,1.697,11.88c0.274,1.462,1.603,3.502,2.265,3.963 M54.484,102.614
			c-2.757-6.473-4.406-23.662,0.481-23.733C61.551,78.523,56.269,97.319,54.484,102.614z"/>
		<path d="M84.71,103.193c0,1.04-0.692,0-1.546,0c-0.854,0-1.546,1.04-1.546,0c0-1.039,0.688-1.694,1.536-1.777
			C84.013,101.329,84.71,102.154,84.71,103.193"/>
		<path d="M92.073,104.901c-0.305,0.995-0.662-0.202-1.478-0.451c-0.817-0.25-1.782,0.542-1.479-0.452
			c0.304-0.994,1.213-1.597,2.028-1.349C91.962,102.9,92.377,103.908,92.073,104.901"/>
		<path d="M77.509,105.597c4.07,10.951,13.656,7.089,16.484,2.479C93.147,106.756,79.291,104.102,77.509,105.597z M80.889,109.181
			c0,0,2.98-1.474,4.41,0.772c0.185,0.043,2.289-1.817,4.359,0.583C87.7,112.078,82.544,111.929,80.889,109.181z"/>
	</g>
</g>
</svg>
