<?xml version="1.0" encoding="utf-8"?>
<!-- Generator: Adobe Illustrator 15.1.0, SVG Export Plug-In . SVG Version: 6.00 Build 0)  -->
<!DOCTYPE svg PUBLIC "-//W3C//DTD SVG 1.1//EN" "http://www.w3.org/Graphics/SVG/1.1/DTD/svg11.dtd">
<svg version="1.1" id="Layer_1" xmlns="http://www.w3.org/2000/svg" xmlns:xlink="http://www.w3.org/1999/xlink" x="0px" y="0px"
	 width="135px" height="85px" viewBox="0 -15 135 85" enable-background="new 0 -15 135 85" xml:space="preserve">
<g>
	<g>
		<path d="M94.681,46.171c0.549-7.437-3.263-7.916-6.599-11.47c2.254-3.837-3.039-7.697-4.965-4.6
			c-1.929,3.099-0.097,4.293,0.565,5.662c-2.441,3.793-10.318,15.068-21.765,9c-2.319-1.231-5.759-4.851-6.854-7.486
			c2.252-1.52,5.465-5.486,5.641-6.866c0.18-1.423-1.428-2.884-2.708-2.003c-2.222,1.525-3.979,6.088-6.659,6.428L51.323,9.663
			c-0.159-2.287-3.981-2.05-3.971,0.005l0.231,38.208c0.116,1.653,3.374,1.155,3.611,0c0.238-1.155,0.099-10.329,0.099-10.329
			c0.327,0.409,5.08,8.362,8.077,10.046c15.71,8.818,23.771-4.966,27.143-9.85c2.465,2.347,5.049,2.571,4.812,7.621
			c-3.78-1.123-9.794-0.429-9.623,3.396c0.221,5.01,10.321,3.303,12.171,0c1.29,0.657,3.104,2.859,4.312,1.396
			C99.24,48.917,95.929,46.729,94.681,46.171z M85.099,49.328c-0.927-1.816,3.357-2.469,5.662-1.98
			C89.944,48.93,85.776,50.395,85.099,49.328z M133.694,49.535c-0.584-1.27-5.536-2.301-7.957-7.854
			c0.056-0.051,5.938-4.66,6.578-7.553c0.22-0.986-1.629-3.127-2.287-2.288c-3.525,4.187-6.898,7.396-8.057,7.767V12.494
			c0-2.809-3.824-2.913-3.824-0.282l-0.021,28.212c-1.082,0.088-2.108-0.033-2.967-0.479c-3.813-1.977,1.252-12.678-2.96-16.412
			c-4.051-3.59-10.442-0.553-12.455,2.818L99.79,4.85c-0.343-2.254-4.24-2.049-4.238-0.189l0.086,38.689
			c-0.017,2.893,3.172,3.625,3.92,3.084c0.856-0.787-0.229-11.05,1.646-15.736c1.258-3.146,3.839-4.938,6.187-4.618
			c4.857,0.661,0.811,10.719,2.83,14.719c0.813,2.456,4.301,3.458,7.914,3.304c0.008,3.928,0.014,6.594,0.012,6.604
			c0.104,2.26,3.869,1.944,3.826,0V43.65c4.854,7.106,7.135,7.757,9.521,8.488C133.593,52.784,134.306,51.043,133.694,49.535z
			 M27.042,42.215c4.679,3.875,8.811-2.242,9.658-2.875c1.918,3.518,5.47,7.018,7.469,7.391c0.666,0.125,1.333-0.776,1.541-1.39
			c0.59-1.966-2.995-2.555-6.078-9.513c0,0,2.559-6.133,3.536-10.031c2.853-9.77,2.742-19.42-4.347-19.738
			c-12.077-0.193-6.029,24.957-3.588,30.582c-0.771,1.734-3.084,4.071-4.51,3.31 M30.721,39.95
			c-5.083-2.716,1.19-12.948-3.679-16.409c-4.081-2.898-8.528,0.177-10.19,3.671c-0.518-7.714-11-5.649-12.172,0l-0.194-3.823
			c-0.138-1.253-3.35-1.561-3.486,0v18.862c0.253,1.679,2.738,1.16,3.113,0c0.375-1.158,0.089-17.658,6.793-16.454
			c4.389,0.863,1.505,14.896,2.264,16.545c0.76,1.646,3.097,1.075,3.396,0c0.415-0.644,1.253-16.707,6.511-15.97
			c3.807,0.534,0.955,7.916,1.697,11.88c0.274,1.462,1.603,3.502,2.265,3.963 M37.983,32.614
			c-2.757-6.474-4.406-23.662,0.481-23.733C45.05,8.523,39.768,27.318,37.983,32.614z"/>
		<path d="M68.209,33.193c0,1.039-0.692,0-1.546,0s-1.546,1.039-1.546,0s0.688-1.694,1.536-1.777
			C67.513,31.329,68.209,32.154,68.209,33.193"/>
		<path d="M75.572,34.9c-0.306,0.996-0.662-0.201-1.478-0.45c-0.818-0.25-1.783,0.542-1.479-0.452s1.213-1.598,2.028-1.35
			C75.461,32.9,75.876,33.908,75.572,34.9"/>
		<path d="M61.008,35.598c4.07,10.95,13.656,7.088,16.484,2.479C76.646,36.756,62.79,34.102,61.008,35.598z M64.388,39.182
			c0,0,2.98-1.475,4.41,0.771c0.186,0.043,2.289-1.817,4.359,0.583C71.199,42.078,66.043,41.93,64.388,39.182z"/>
	</g>
</g>
</svg>
