<?xml version="1.0" encoding="utf-8"?>
<!-- Generator: Adobe Illustrator 15.1.0, SVG Export Plug-In . SVG Version: 6.00 Build 0)  -->
<!DOCTYPE svg PUBLIC "-//W3C//DTD SVG 1.1//EN" "http://www.w3.org/Graphics/SVG/1.1/DTD/svg11.dtd">
<svg version="1.1" id="Layer_1" xmlns="http://www.w3.org/2000/svg" xmlns:xlink="http://www.w3.org/1999/xlink" x="0px" y="0px"
	 width="135px" height="55px" viewBox="0 0 135 55" enable-background="new 0 0 135 55" xml:space="preserve">
<g>
	<path d="M7.42,17.214h-7.722V12h21.933v5.214h-7.723v24.003H7.42V17.214z"/>
	<path d="M42.288,41.217h-6.25V29.075c0-2.627-0.716-4.14-2.866-4.14c-2.865,0-3.702,2.11-3.702,5.056v11.226h-6.288V12h6.25v11.304
		h0.078c1.036-1.512,2.747-3.063,6.052-3.063c4.179,0,6.727,2.586,6.727,8.558V41.217z"/>
	<path d="M44.636,12h6.288v5.056h-6.288V12z M44.636,20.718h6.288v20.499h-6.288V20.718z"/>
	<path d="M72.578,41.217h-6.25V29.075c0-3.063-0.995-4.14-2.865-4.14c-2.907,0-3.702,2.189-3.702,5.096v11.186h-6.288V20.718h5.73
		l0.2,2.944h0.119c0.796-1.513,2.546-3.422,6.209-3.422c4.18,0,6.847,2.467,6.847,8.437V41.217z"/>
	<path d="M81.215,27.802l6.21-7.084h7.205l-6.888,7.362l7.522,13.137h-7.204l-4.537-8.639l-2.309,2.389v6.25h-6.289V12h6.289V27.802
		z"/>
	<path d="M113.895,12h1.95v19.344c0,7.045-3.703,10.351-10.19,10.351c-6.886,0-9.871-3.584-9.871-10.509V12h1.95v18.787
		c0,6.688,2.945,9.076,8.12,9.076c5.016,0,8.041-2.588,8.041-8.758V12z"/>
	<path d="M117.196,48.5V20.955h1.632l0.2,3.463h0.119c0.875-1.751,3.104-3.979,6.886-3.979c3.901,0,7.801,2.349,7.801,10.389
		c0,6.806-2.945,10.867-8.597,10.867c-2.826,0-5.016-1.315-6.051-3.186h-0.119V48.5H117.196z M125.197,40.062
		c4.617,0,6.607-3.9,6.607-9.234c0-6.249-2.189-8.797-6.051-8.797c-3.781,0-6.846,2.548-6.846,9.234
		C118.908,37.792,121.455,40.062,125.197,40.062z"/>
</g>
</svg>
